<?xml version="1.0" encoding="utf-8"?>
<!-- Generator: Adobe Illustrator 27.0.0, SVG Export Plug-In . SVG Version: 6.00 Build 0)  -->
<svg version="1.1" id="Codes" xmlns="http://www.w3.org/2000/svg" xmlns:xlink="http://www.w3.org/1999/xlink" x="0px" y="0px"
	 viewBox="0 0 200 200" style="enable-background:new 0 0 200 200;" xml:space="preserve">

<style type="text/css">
	@import url(../../css/cardicon.css);
</style>

<path id="javascript" d="M107.5,7.5v85h85v-85H107.5z M153.8,73.8c0,8.2-4.8,12.1-12,12.1c-6.4,0-10.1-3.3-12-7.3l6.5-3.9
	c1.2,2.2,2.4,4.1,5.1,4.1c2.6,0,4.3-1,4.3-5V46.5h7.9L153.8,73.8L153.8,73.8z M172.7,85.9c-7.4,0-12.2-3.5-14.6-8.1l6.5-3.7
	c1.7,2.8,3.9,4.8,7.8,4.8c3.3,0,5.4-1.6,5.4-3.9c0-2.7-2.2-3.7-5.8-5.3l-2-0.8c-5.7-2.4-9.6-5.5-9.6-12.1c0-6,4.5-10.6,11.7-10.6
	c5.1,0,8.8,1.8,11.4,6.4l-6.2,4c-1.4-2.4-2.8-3.4-5.1-3.4s-3.8,1.5-3.8,3.4c0,2.4,1.5,3.3,4.9,4.8l2,0.8c6.8,2.9,10.6,5.8,10.6,12.6
	C186,81.8,180.2,85.9,172.7,85.9L172.7,85.9z"/>
<path id="html" d="M8.6,7.6l6.6,75.1l29.6,9.8l29.8-9.9l6.6-75.1H8.6V7.6z M67,31.8H32.2l0.8,9.3h33.3l-2.6,28.1l-18.6,5.1v0.1h-0.2
	l-18.7-5.2l-1.1-14.4h9l0.7,7.2L45,64.9l10.1-2.7l1.1-11.8H24.6l-2.4-27.6h45.7L67,31.8z"/>
<path id="css" d="M8.6,107l6.6,75.1L45,192l29.8-9.9l6.6-75.1H8.6z M68,122.2l-0.9,9l-21.8,9.4h-0.1h21.1l-2.4,27.9l-18.6,5.4
	l-18.8-5.5l-1.2-14h9.3l0.6,7.2l10,2.5l10.4-2.9l0.7-11.7l-31.6-0.1l0,0l0,0l-0.7-8.8l21.2-8.9l1.2-0.5H23.2l-1.1-9h46V122.2z"/>
<path id="php" d="M145,129.4c22.7,0,40.2,9.5,40.2,20.1c0,10.5-17.5,20.1-40.2,20.1s-40.2-9.5-40.2-20.1
	C104.7,139.1,122.3,129.4,145,129.4 M145,127.2c-23.4,0-42.5,9.9-42.5,22.3c0,12.4,19,22.3,42.5,22.3s42.5-9.9,42.5-22.3
	C187.4,137.3,168.4,127.2,145,127.2z M131.4,147.8c-1,5.3-4.7,4.8-9.3,4.8l1.8-9.3C129,143.2,132.4,142.7,131.4,147.8L131.4,147.8z
	 M115.4,162.1h4.8l1.1-5.9c5.4,0,8.8,0.4,12-2.5c3.4-3.2,4.3-8.8,1.9-11.7c-1.3-1.5-3.3-2.2-6.1-2.2h-9.3L115.4,162.1z M140.1,133.7
	h4.8l-1.1,5.9c4.2,0,8-0.3,9.9,1.4c2,1.8,1,4.1-1.1,15h-4.9c2-10.5,2.4-11.5,1.7-12.2c-0.7-0.8-2.3-0.6-6.3-0.6l-2.5,12.9h-4.8
	L140.1,133.7L140.1,133.7z M169.5,147.8c-1.1,5.4-4.8,4.8-9.3,4.8l1.8-9.3C167.1,143.2,170.5,142.7,169.5,147.8L169.5,147.8z
	 M153.5,162.1h4.9l1.1-5.9c5.7,0,8.9,0.3,12-2.5c3.4-3.2,4.3-8.8,1.9-11.7c-1.3-1.5-3.3-2.2-6.1-2.2h-9.3L153.5,162.1z"/>
</svg>
