<?xml version="1.0" encoding="utf-8"?>
<!-- Generator: Adobe Illustrator 27.0.0, SVG Export Plug-In . SVG Version: 6.00 Build 0)  -->
<svg version="1.1" id="svg-seo" xmlns="http://www.w3.org/2000/svg" xmlns:xlink="http://www.w3.org/1999/xlink" x="0px" y="0px"
	 viewBox="0 0 200 200" style="enable-background:new 0 0 200 200;" xml:space="preserve">
<style type="text/css">
	@import url(../../css/cardicon.css);
</style>

<path id="seo-e" class="st0" d="M115.3,112.9c-0.8,1.5-1.6,2.9-2.3,4.1c-1.2,2-2.5,3.6-3.7,4.8c0,0,0,0,0,0
	c-1.4,0.7-2.7,1.6-3.9,2.6c-0.3,0.1-0.6,0.2-0.9,0.3c-1.6,0.5-4.3,0.8-7.9,0.8H96H85.8c-1.8,0-3-0.2-3.6-0.5
	c-0.6-0.4-1.1-0.9-1.3-1.5c-0.3-0.6-0.4-2.3-0.4-5.2V97.1h14.1c2.7,0,4.7,0.3,6,0.9c1.3,0.6,2.2,1.5,2.8,2.6c0.4,0.9,0.9,2.9,1.3,6
	h1.8V84.3h-1.8c-0.2,3.7-1.1,6.2-2.7,7.7c-1.2,1.1-3.7,1.7-7.3,1.7H80.5V77.2v-5.1v-3.9h3.2h7.4h7c3.2,0,5.4,0.2,6.7,0.7
	c1.6,0.7,2.8,1.6,3.6,2.9c0.8,1.3,1.5,3.6,2.2,7h1.8l-0.7-14.1H92.4h-7.9H62.2v1.8h2.3c2.7,0,4.5,0.6,5.7,1.9c0.7,0.8,1.1,3,1.2,6.3
	c0,0.4,0,0.8,0,1.2v2.4v39.3c0,3.1-0.2,5.2-0.5,6.2c-0.4,1-1,1.8-2.1,2.3c-1.4,0.7-2.8,1.1-4.3,1.1h-2.3v1.8h30.7h8.8h10l3-8.8
	l1.2-3.6l1.3-3.8H115.3z"/>
<g id="seo-o">
	<path class="st0" d="M109.3,121.9c1.7-0.8,3.5-1.3,5.4-1.6l1.2-3.6c-1,0.1-2,0.2-2.9,0.3C111.8,119,110.6,120.6,109.3,121.9
		C109.3,121.9,109.3,121.9,109.3,121.9z"/>
	<path class="st1" d="M139.9,126.2c-6.1-6.3-13.3-9.5-21.7-9.5c-0.8,0-1.5,0-2.3,0.1l-1.2,3.6c0.8-0.1,1.7-0.2,2.6-0.2
		c6.1,0,10.9,2.1,14.4,6.4c4.3,5.4,6.5,13.6,6.5,24.6c0,10.1-2,17.6-5.9,22.3c-3.9,4.7-8.9,7.1-14.9,7.1c-5.7,0-10.2-2.1-13.6-6.4
		c-4.5-5.7-6.7-13.7-6.7-24.2c0-8.7,1.6-15.6,4.7-20.7c0.6-0.9,1.1-1.8,1.8-2.6c0.6-0.7,1.3-1.4,1.9-2c1.2-1.1,2.5-2,3.9-2.6
		c0,0,0,0,0,0c1.2-1.2,2.4-2.8,3.7-4.8c-6.2,0.9-11.7,3.6-16.4,8c-0.2,0.2-0.4,0.4-0.5,0.5c-1.2,1.1-2.2,2.3-3.2,3.5
		c-4.5,5.8-6.7,12.7-6.7,20.9c0,10,3,18.1,9,24.4c6,6.3,13.4,9.4,22.3,9.4c8.7,0,16.2-3.2,22.4-9.7s9.2-14.5,9.2-24.3
		C149.1,140.4,146,132.5,139.9,126.2z"/>
</g>
<g id="seo-s">
	<path class="st0" d="M80.5,77.2v-5.1c-2.2,1.7-5.1,2.6-8.7,2.6c-0.1,0-0.3,0-0.4,0c0,0.4,0,0.8,0,1.2v2.4c0.5,0,0.9,0.1,1.4,0.1
		C75.6,78.4,78.1,78,80.5,77.2z"/>
	<g id="main-s">
		<path class="st2" d="M62.3,72.4c-2.9-1.5-5-3.4-6.4-5.7c-1.4-2.3-2.5-5.7-3.3-10.3h-1.8v22h1.8c0.2-1.5,0.6-2.5,1-2.9
			c0.5-0.5,1.1-0.7,1.9-0.7c0.8,0,2.8,0.5,5.8,1.5c3.1,1,5.1,1.6,6.1,1.7c1.2,0.2,2.5,0.3,3.9,0.4v-2.4c0-0.4,0-0.8,0-1.2
			C68.1,74.6,65.1,73.9,62.3,72.4z"/>
		<path class="st2" d="M91.2,53.2c-1.2-2.3-2.9-4.4-5.1-6.1c-2.2-1.7-6.3-4.2-12.3-7.4c-7.4-3.9-12-7.1-14-9.5c-1.4-1.6-2-3.4-2-5.4
			c0-2.6,1.1-4.8,3.2-6.8c2.1-2,4.9-3,8.1-3c2.9,0,5.7,0.7,8.4,2.2c2.7,1.5,4.8,3.5,6.3,6c1.5,2.5,2.5,5.9,3.1,10.2h1.8V11.2H87
			c-0.3,1.5-0.7,2.5-1.3,3c-0.5,0.5-1.2,0.7-2,0.7c-0.7,0-2-0.4-3.7-1.2c-3.8-1.7-7.4-2.5-10.8-2.5c-5.5,0-10,1.7-13.5,5
			c-3.5,3.3-5.3,7.3-5.3,11.9c0,2.7,0.6,5.1,1.8,7.3c1.2,2.2,3,4.2,5.3,6.1c2.3,1.8,6.2,4.3,11.7,7.4c5.5,3.1,8.9,5.1,10.1,6
			c1.8,1.4,3.2,2.9,4,4.5c0.9,1.6,1.3,3.2,1.3,4.8c0,0.2,0,0.4,0,0.5c-0.1,1.2-0.3,2.4-0.9,3.5c-0.6,1.2-1.4,2.3-2.5,3.3
			c-0.2,0.2-0.4,0.4-0.7,0.5v5.1c2.6-0.9,4.9-2.2,6.9-4.1c1.6-1.5,2.9-3.1,3.8-4.9c0.6-1.1,1-2.3,1.4-3.5c0.3-1.3,0.5-2.7,0.5-4.2
			C93,58,92.4,55.5,91.2,53.2z"/>
	</g>
</g>
</svg>
