<?xml version="1.0" encoding="utf-8"?>
<!-- Generator: Adobe Illustrator 27.0.0, SVG Export Plug-In . SVG Version: 6.00 Build 0)  -->
<svg version="1.1" id="FullStackDeveloper" xmlns="http://www.w3.org/2000/svg" xmlns:xlink="http://www.w3.org/1999/xlink" x="0px"
	 y="0px" viewBox="0 0 184.3 26.8" style="enable-background:new 0 0 184.3 26.8;" xml:space="preserve">
<style type="text/css">
	@import url(../../css/header.css);
</style>
<path id="h-f" d="M6.9,5.3v5.5h2.5c0.6,0,1-0.1,1.3-0.4c0.3-0.3,0.4-0.8,0.5-1.5h0.4v4.7h-0.4c0-0.5-0.1-0.9-0.2-1.2
	c-0.1-0.3-0.3-0.4-0.6-0.6c-0.2-0.1-0.6-0.2-1.1-0.2H6.9V16c0,0.7,0,1.2,0.1,1.4c0.1,0.2,0.2,0.3,0.4,0.4c0.3,0.2,0.6,0.2,0.9,0.2H9
	v0.4H3v-0.4h0.5c0.6,0,1-0.2,1.3-0.5C4.9,17.4,5,16.8,5,16V7c0-0.7,0-1.2-0.1-1.4C4.8,5.4,4.6,5.3,4.4,5.2C4.1,5,3.8,4.9,3.5,4.9H3
	V4.6h10.3l0.1,3.1h-0.4c-0.2-0.6-0.4-1.1-0.6-1.4c-0.2-0.3-0.5-0.5-0.9-0.7S10.7,5.3,10,5.3H6.9z"/>
<path id="h-u" d="M23.2,9.1v5.7c0,1.1,0,1.8,0.1,2c0.1,0.2,0.1,0.4,0.2,0.5c0.1,0.1,0.2,0.1,0.4,0.1c0.2,0,0.5-0.1,0.7-0.2l0.1,0.4
	L22,18.7h-0.5v-2c-0.8,0.9-1.4,1.4-1.8,1.7s-0.9,0.3-1.3,0.3c-0.5,0-1-0.2-1.4-0.5c-0.4-0.3-0.7-0.7-0.8-1.2s-0.2-1.2-0.2-2v-4.2
	c0-0.4,0-0.8-0.1-0.9s-0.2-0.3-0.4-0.4c-0.2-0.1-0.5-0.1-1-0.1V9.1h3.3v6.3c0,0.9,0.2,1.4,0.5,1.7c0.3,0.3,0.7,0.4,1.1,0.4
	c0.3,0,0.6-0.1,1-0.3s0.8-0.5,1.3-1.1v-5.3c0-0.5-0.1-0.9-0.3-1.1C21,9.6,20.6,9.5,20,9.4V9.1H23.2z"/>
<path id="h-l-1" d="M28.7,3.9v12.5c0,0.6,0,1,0.1,1.2c0.1,0.2,0.2,0.3,0.4,0.4s0.5,0.1,1,0.1v0.4h-4.6v-0.4c0.4,0,0.7,0,0.9-0.1
	s0.3-0.2,0.4-0.4s0.1-0.6,0.1-1.2V7.8c0-1.1,0-1.7-0.1-2c0-0.2-0.1-0.4-0.2-0.5c-0.1-0.1-0.2-0.1-0.4-0.1c-0.2,0-0.4,0.1-0.7,0.2
	L25.5,5l2.8-1.1H28.7z"/>
<path id="h-l-2" d="M34.6,3.9v12.5c0,0.6,0,1,0.1,1.2c0.1,0.2,0.2,0.3,0.4,0.4s0.5,0.1,1,0.1v0.4h-4.6v-0.4c0.4,0,0.7,0,0.9-0.1
	s0.3-0.2,0.4-0.4s0.1-0.6,0.1-1.2V7.8c0-1.1,0-1.7-0.1-2c0-0.2-0.1-0.4-0.2-0.5c-0.1-0.1-0.2-0.1-0.4-0.1c-0.2,0-0.4,0.1-0.7,0.2
	L31.3,5l2.8-1.1H34.6z"/>
<path id="h-s" d="M51.4,4.2V9H51c-0.1-0.9-0.3-1.7-0.7-2.2c-0.3-0.5-0.8-1-1.4-1.3s-1.2-0.5-1.8-0.5c-0.7,0-1.3,0.2-1.8,0.7
	c-0.5,0.4-0.7,0.9-0.7,1.5c0,0.4,0.1,0.8,0.4,1.2c0.4,0.5,1.4,1.2,3,2.1c1.3,0.7,2.2,1.2,2.7,1.6c0.5,0.4,0.8,0.8,1.1,1.3
	c0.3,0.5,0.4,1,0.4,1.6c0,1.1-0.4,2-1.2,2.7c-0.8,0.8-1.9,1.1-3.2,1.1c-0.4,0-0.8,0-1.1-0.1c-0.2,0-0.7-0.2-1.3-0.4
	c-0.7-0.2-1.1-0.3-1.3-0.3c-0.2,0-0.3,0.1-0.4,0.2c-0.1,0.1-0.2,0.3-0.2,0.6h-0.4V14h0.4c0.2,1,0.4,1.7,0.7,2.2
	c0.3,0.5,0.8,0.9,1.4,1.2s1.3,0.5,2,0.5c0.9,0,1.5-0.2,2-0.7s0.7-1,0.7-1.6c0-0.3-0.1-0.7-0.3-1c-0.2-0.3-0.5-0.7-0.9-1
	c-0.3-0.2-1-0.6-2.2-1.3c-1.2-0.7-2-1.2-2.5-1.6c-0.5-0.4-0.9-0.8-1.1-1.3s-0.4-1-0.4-1.6c0-1,0.4-1.9,1.1-2.6
	C45,4.6,46,4.2,47.1,4.2c0.7,0,1.5,0.2,2.3,0.5C49.9,4.9,50.1,5,50.3,5c0.2,0,0.3-0.1,0.4-0.2c0.1-0.1,0.2-0.3,0.3-0.6H51.4z"/>
<path id="h-t" d="M56.8,6v3.1H59v0.7h-2.2v6.1c0,0.6,0.1,1,0.3,1.2c0.2,0.2,0.4,0.3,0.7,0.3c0.2,0,0.4-0.1,0.7-0.2
	c0.2-0.1,0.4-0.3,0.5-0.6h0.4c-0.2,0.7-0.6,1.2-1,1.5c-0.4,0.3-0.9,0.5-1.4,0.5c-0.3,0-0.6-0.1-0.9-0.3c-0.3-0.2-0.5-0.4-0.7-0.7
	c-0.1-0.3-0.2-0.8-0.2-1.5V9.8h-1.5V9.4C54,9.3,54.4,9,54.8,8.7c0.4-0.4,0.7-0.8,1.1-1.3C56,7.1,56.2,6.7,56.5,6H56.8z"/>
<path id="h-a" d="M65.2,17.1c-1,0.7-1.6,1.2-1.8,1.3c-0.4,0.2-0.8,0.3-1.2,0.3c-0.7,0-1.2-0.2-1.6-0.7c-0.4-0.4-0.6-1-0.6-1.8
	c0-0.5,0.1-0.9,0.3-1.2c0.3-0.5,0.8-0.9,1.5-1.3c0.7-0.4,1.8-0.9,3.5-1.5v-0.4c0-0.9-0.1-1.6-0.4-1.9c-0.3-0.3-0.7-0.5-1.3-0.5
	c-0.4,0-0.8,0.1-1,0.3c-0.3,0.2-0.4,0.5-0.4,0.8l0,0.6c0,0.3-0.1,0.6-0.2,0.7c-0.2,0.2-0.4,0.3-0.6,0.3c-0.3,0-0.5-0.1-0.6-0.3
	c-0.2-0.2-0.2-0.4-0.2-0.7c0-0.6,0.3-1.1,0.9-1.6s1.4-0.7,2.5-0.7c0.8,0,1.5,0.1,2.1,0.4c0.4,0.2,0.7,0.5,0.9,1
	c0.1,0.3,0.2,0.9,0.2,1.8v3.2c0,0.9,0,1.4,0.1,1.6c0,0.2,0.1,0.3,0.2,0.4c0.1,0.1,0.2,0.1,0.3,0.1c0.1,0,0.2,0,0.3-0.1
	c0.1-0.1,0.4-0.3,0.8-0.7v0.6c-0.8,1-1.5,1.5-2.2,1.5c-0.3,0-0.6-0.1-0.8-0.3S65.2,17.7,65.2,17.1z M65.2,16.4v-3.6
	c-1,0.4-1.7,0.7-2,0.9c-0.5,0.3-0.9,0.6-1.2,0.9c-0.2,0.3-0.3,0.7-0.3,1.1c0,0.5,0.1,0.9,0.4,1.2s0.6,0.5,1,0.5
	C63.7,17.5,64.4,17.1,65.2,16.4z"/>
<path id="h-c" d="M77.2,14.9c-0.3,1.2-0.7,2.2-1.5,2.9c-0.7,0.7-1.6,1-2.5,1c-1.1,0-2-0.4-2.8-1.3s-1.2-2.1-1.2-3.6
	c0-1.5,0.4-2.7,1.3-3.6c0.9-0.9,1.9-1.4,3.2-1.4c0.9,0,1.7,0.2,2.3,0.7c0.6,0.5,0.9,1,0.9,1.5c0,0.3-0.1,0.5-0.3,0.6
	c-0.2,0.2-0.4,0.2-0.7,0.2c-0.4,0-0.7-0.1-0.9-0.4c-0.1-0.1-0.2-0.4-0.2-0.8c0-0.4-0.2-0.7-0.4-0.9c-0.2-0.2-0.6-0.3-1-0.3
	c-0.7,0-1.2,0.3-1.7,0.8c-0.6,0.7-0.8,1.6-0.8,2.7c0,1.1,0.3,2.1,0.8,3c0.6,0.9,1.3,1.3,2.2,1.3c0.7,0,1.3-0.2,1.8-0.7
	c0.4-0.3,0.7-0.9,1.1-1.7L77.2,14.9z"/>
<path id="h-k" d="M81.3,3.9v9.3l2.4-2.2c0.5-0.5,0.8-0.8,0.9-0.9c0.1-0.1,0.1-0.2,0.1-0.2c0-0.1-0.1-0.3-0.2-0.4
	c-0.1-0.1-0.3-0.2-0.6-0.2V9.1H88v0.3c-0.6,0-1,0.1-1.4,0.3c-0.4,0.2-0.8,0.4-1.2,0.8L83,12.7l2.4,3c0.7,0.8,1.1,1.4,1.4,1.6
	c0.3,0.3,0.6,0.5,0.9,0.6c0.2,0.1,0.5,0.1,0.9,0.1v0.4H84v-0.4c0.3,0,0.4,0,0.5-0.1c0.1-0.1,0.1-0.2,0.1-0.3c0-0.2-0.1-0.4-0.4-0.8
	l-2.9-3.7v3.1c0,0.6,0,1,0.1,1.2c0.1,0.2,0.2,0.3,0.4,0.4c0.2,0.1,0.5,0.1,1,0.1v0.4h-4.8v-0.4c0.5,0,0.8-0.1,1.1-0.2
	c0.1-0.1,0.3-0.2,0.3-0.3c0.1-0.2,0.2-0.6,0.2-1.2V7.8c0-1.1,0-1.8-0.1-2c0-0.2-0.1-0.4-0.2-0.5c-0.1-0.1-0.3-0.1-0.4-0.1
	c-0.1,0-0.4,0.1-0.6,0.2L78.1,5l2.8-1.1H81.3z"/>
<path id="h-d" d="M94,18.5v-0.4h0.5c0.6,0,1-0.2,1.3-0.6c0.2-0.2,0.2-0.7,0.2-1.5V7c0-0.9-0.1-1.4-0.3-1.6c-0.3-0.3-0.7-0.5-1.2-0.5
	H94V4.6h5.7c2.1,0,3.7,0.2,4.7,0.7c1.1,0.5,2,1.3,2.6,2.4c0.7,1.1,1,2.4,1,3.8c0,1.9-0.6,3.6-1.8,4.9c-1.3,1.4-3.3,2.2-6,2.2H94z
	 M98,17.5c0.9,0.2,1.6,0.3,2.2,0.3c1.6,0,2.9-0.6,3.9-1.7s1.6-2.6,1.6-4.5c0-1.9-0.5-3.4-1.6-4.5s-2.4-1.7-4-1.7
	c-0.6,0-1.3,0.1-2.1,0.3V17.5z"/>
<path id="h-e-1" d="M111.1,12.6c0,1.4,0.3,2.5,1,3.3c0.7,0.8,1.5,1.2,2.4,1.2c0.6,0,1.2-0.2,1.6-0.5c0.5-0.3,0.8-0.9,1.1-1.7
	l0.3,0.2c-0.1,0.9-0.6,1.8-1.3,2.6c-0.7,0.8-1.6,1.2-2.6,1.2c-1.1,0-2.1-0.4-2.9-1.3c-0.8-0.9-1.2-2.1-1.2-3.5
	c0-1.6,0.4-2.9,1.2-3.8c0.8-0.9,1.9-1.3,3.1-1.3c1.1,0,1.9,0.3,2.6,1s1,1.6,1,2.8H111.1z M111.1,12h4.3c0-0.6-0.1-1-0.2-1.3
	c-0.2-0.4-0.4-0.7-0.8-0.9c-0.3-0.2-0.7-0.3-1.1-0.3c-0.6,0-1.1,0.2-1.5,0.7C111.4,10.6,111.1,11.2,111.1,12z"/>
<path id="h-v" d="M118.3,9.1h4.4v0.4h-0.3c-0.3,0-0.5,0.1-0.6,0.2c-0.1,0.1-0.2,0.3-0.2,0.5c0,0.2,0.1,0.5,0.2,0.9l2.2,5.2l2.2-5.4
	c0.2-0.4,0.2-0.7,0.2-0.9c0-0.1,0-0.2-0.1-0.2c-0.1-0.1-0.2-0.2-0.3-0.2c-0.1,0-0.4-0.1-0.7-0.1V9.1h3.1v0.4c-0.4,0-0.6,0.1-0.7,0.2
	c-0.2,0.2-0.5,0.5-0.6,1l-3.3,8.1h-0.4l-3.4-7.9c-0.2-0.4-0.3-0.6-0.4-0.8c-0.1-0.2-0.3-0.3-0.5-0.4c-0.1-0.1-0.3-0.1-0.7-0.2V9.1z"
	/>
<path id="h-e-2" d="M130.9,12.6c0,1.4,0.3,2.5,1,3.3c0.7,0.8,1.5,1.2,2.4,1.2c0.6,0,1.2-0.2,1.6-0.5c0.5-0.3,0.8-0.9,1.1-1.7
	l0.3,0.2c-0.1,0.9-0.6,1.8-1.3,2.6c-0.7,0.8-1.6,1.2-2.6,1.2c-1.1,0-2.1-0.4-2.9-1.3c-0.8-0.9-1.2-2.1-1.2-3.5
	c0-1.6,0.4-2.9,1.2-3.8c0.8-0.9,1.9-1.3,3.1-1.3c1.1,0,1.9,0.3,2.6,1s1,1.6,1,2.8H130.9z M130.9,12h4.3c0-0.6-0.1-1-0.2-1.3
	c-0.2-0.4-0.4-0.7-0.8-0.9c-0.3-0.2-0.7-0.3-1.1-0.3c-0.6,0-1.1,0.2-1.5,0.7C131.2,10.6,131,11.2,130.9,12z"/>
<path id="h-l-3" d="M141.8,3.9v12.5c0,0.6,0,1,0.1,1.2c0.1,0.2,0.2,0.3,0.4,0.4s0.5,0.1,1,0.1v0.4h-4.6v-0.4c0.4,0,0.7,0,0.9-0.1
	s0.3-0.2,0.4-0.4s0.1-0.6,0.1-1.2V7.8c0-1.1,0-1.7-0.1-2c0-0.2-0.1-0.4-0.2-0.5c-0.1-0.1-0.2-0.1-0.4-0.1c-0.2,0-0.4,0.1-0.7,0.2
	L138.6,5l2.8-1.1H141.8z"/>
<path id="h-o" d="M149,8.8c1.4,0,2.6,0.5,3.4,1.6c0.7,0.9,1.1,2,1.1,3.2c0,0.8-0.2,1.7-0.6,2.6c-0.4,0.9-1,1.5-1.7,1.9
	c-0.7,0.4-1.5,0.7-2.4,0.7c-1.4,0-2.5-0.6-3.4-1.7c-0.7-1-1.1-2-1.1-3.2c0-0.9,0.2-1.7,0.6-2.6c0.4-0.9,1-1.5,1.7-1.9
	C147.5,9,148.3,8.8,149,8.8z M148.7,9.5c-0.4,0-0.7,0.1-1.1,0.3c-0.4,0.2-0.7,0.6-0.9,1.1s-0.3,1.2-0.3,2.1c0,1.4,0.3,2.5,0.8,3.5
	c0.5,1,1.3,1.5,2.1,1.5c0.7,0,1.2-0.3,1.6-0.8s0.6-1.5,0.6-2.8c0-1.7-0.4-3-1.1-3.9C150.1,9.8,149.5,9.5,148.7,9.5z"/>
<path id="h-p" d="M154.3,10l2.9-1.2h0.4V11c0.5-0.8,1-1.4,1.5-1.7c0.5-0.3,1-0.5,1.5-0.5c0.9,0,1.7,0.4,2.4,1.1
	c0.8,0.9,1.2,2.1,1.2,3.5c0,1.6-0.5,3-1.4,4c-0.8,0.9-1.7,1.3-2.9,1.3c-0.5,0-0.9-0.1-1.3-0.2c-0.3-0.1-0.6-0.3-0.9-0.6v2.9
	c0,0.6,0,1.1,0.1,1.2c0.1,0.2,0.2,0.3,0.4,0.4c0.2,0.1,0.5,0.2,1.1,0.2v0.4h-4.9v-0.4h0.3c0.4,0,0.7-0.1,1-0.2
	c0.1-0.1,0.2-0.2,0.3-0.4c0.1-0.2,0.1-0.6,0.1-1.3v-8.9c0-0.6,0-1-0.1-1.2s-0.1-0.3-0.3-0.4c-0.1-0.1-0.3-0.1-0.5-0.1
	c-0.2,0-0.4,0-0.6,0.1L154.3,10z M157.6,11.6v3.5c0,0.8,0,1.3,0.1,1.5c0.1,0.4,0.3,0.7,0.7,1c0.4,0.3,0.8,0.5,1.4,0.5
	c0.7,0,1.2-0.3,1.7-0.8c0.6-0.7,0.8-1.7,0.8-2.9c0-1.4-0.3-2.5-0.9-3.3c-0.4-0.5-1-0.8-1.6-0.8c-0.3,0-0.7,0.1-1,0.2
	C158.5,10.6,158.1,11,157.6,11.6z"/>
<path id="h-e-3" d="M167,12.6c0,1.4,0.3,2.5,1,3.3c0.7,0.8,1.5,1.2,2.4,1.2c0.6,0,1.2-0.2,1.6-0.5c0.5-0.3,0.8-0.9,1.1-1.7l0.3,0.2
	c-0.1,0.9-0.6,1.8-1.3,2.6c-0.7,0.8-1.6,1.2-2.6,1.2c-1.1,0-2.1-0.4-2.9-1.3c-0.8-0.9-1.2-2.1-1.2-3.5c0-1.6,0.4-2.9,1.2-3.8
	c0.8-0.9,1.9-1.3,3.1-1.3c1.1,0,1.9,0.3,2.6,1s1,1.6,1,2.8H167z M167,12h4.3c0-0.6-0.1-1-0.2-1.3c-0.2-0.4-0.4-0.7-0.8-0.9
	c-0.3-0.2-0.7-0.3-1.1-0.3c-0.6,0-1.1,0.2-1.5,0.7C167.4,10.6,167.1,11.2,167,12z"/>
<path id="h-r" d="M177.5,8.8v2.1c0.8-1.4,1.6-2.1,2.4-2.1c0.4,0,0.7,0.1,0.9,0.3c0.2,0.2,0.4,0.5,0.4,0.8c0,0.3-0.1,0.5-0.3,0.7
	s-0.4,0.3-0.6,0.3c-0.2,0-0.5-0.1-0.8-0.4c-0.3-0.2-0.5-0.4-0.7-0.4c-0.1,0-0.3,0.1-0.4,0.2c-0.3,0.3-0.6,0.7-1,1.4v4.5
	c0,0.5,0.1,0.9,0.2,1.2c0.1,0.2,0.2,0.3,0.5,0.5c0.2,0.1,0.6,0.2,1,0.2v0.4h-4.8v-0.4c0.5,0,0.8-0.1,1.1-0.2
	c0.2-0.1,0.3-0.3,0.4-0.5c0-0.1,0.1-0.4,0.1-1v-3.6c0-1.1,0-1.7-0.1-2c0-0.2-0.1-0.4-0.2-0.5c-0.1-0.1-0.3-0.1-0.4-0.1
	c-0.2,0-0.5,0.1-0.7,0.2l-0.1-0.4l2.8-1.1H177.5z"/>
</svg>
