<?xml version="1.0" encoding="utf-8"?>
<!-- Generator: Adobe Illustrator 27.0.0, SVG Export Plug-In . SVG Version: 6.00 Build 0)  -->
<svg version="1.1" id="Keyboard" xmlns="http://www.w3.org/2000/svg" xmlns:xlink="http://www.w3.org/1999/xlink" x="0px" y="0px"
	 viewBox="0 0 1969 594.9" style="enable-background:new 0 0 1969 594.9;" xml:space="preserve">
<style type="text/css">
	@import url(../../css/header.css);
</style>
<path id="Q" d="M152.1,186.2H53.5c-18.6,0-33.7-15.1-33.7-33.7V57.9c0-18.6,15.1-33.7,33.7-33.7h98.6c18.6,0,33.7,15.1,33.7,33.7
	v94.5C185.8,171,170.7,186.2,152.1,186.2z M53.5,30.2c-15.3,0-27.7,12.4-27.7,27.7v94.5c0,15.3,12.4,27.7,27.7,27.7h98.6
	c15.3,0,27.7-12.4,27.7-27.7V57.9c0-15.3-12.4-27.7-27.7-27.7H53.5z M123.5,133.5c-6.6-1.7-13-3.7-18.6-5.6c-1-0.4-2-0.7-3-0.7
	c-11.5-0.4-21.4-8.9-21.4-24.6C80.6,87,90.1,77,103.2,77c13.2,0,21.7,10.2,21.7,24.6c0,12.5-5.8,20.4-13.8,23.3v0.3
	c4.8,1.2,10.1,2.4,14.2,3.1L123.5,133.5z M118.3,101.8c0-9.7-5-19.7-15.3-19.7c-10.6,0-15.8,9.8-15.7,20.3
	c-0.1,10.3,5.6,19.6,15.4,19.6C112.7,122,118.3,112.9,118.3,101.8z"/>
<path id="W" d="M348,186.2h-98.6c-18.6,0-33.7-15.1-33.7-33.7V57.9c0-18.6,15.1-33.7,33.7-33.7H348c18.6,0,33.7,15.1,33.7,33.7v94.5
	C381.7,171,366.6,186.2,348,186.2z M249.5,30.2c-15.3,0-27.7,12.4-27.7,27.7v94.5c0,15.3,12.4,27.7,27.7,27.7H348
	c15.3,0,27.7-12.4,27.7-27.7V57.9c0-15.3-12.4-27.7-27.7-27.7H249.5z M287.3,126.3L275,77.8h6.6l5.8,24.6c1.4,6,2.7,12.1,3.6,16.8
	h0.1c0.8-4.8,2.3-10.6,4-16.8l6.5-24.5h6.6l5.9,24.6c1.4,5.8,2.7,11.5,3.4,16.6h0.1c1-5.3,2.4-10.7,3.9-16.8l6.4-24.5h6.4
	l-13.8,48.5H314l-6.1-25.3c-1.5-6.2-2.5-10.9-3.2-15.8h-0.1c-0.9,4.8-1.9,9.6-3.7,15.8l-6.9,25.3L287.3,126.3L287.3,126.3z"/>
<path id="E" d="M543.9,186.2h-98.6c-18.6,0-33.7-15.1-33.7-33.7V57.9c0-18.6,15.1-33.7,33.7-33.7h98.6c18.6,0,33.7,15.1,33.7,33.7
	v94.5C577.6,171,562.5,186.2,543.9,186.2z M445.4,30.2c-15.3,0-27.7,12.4-27.7,27.7v94.5c0,15.3,12.4,27.7,27.7,27.7H544
	c15.3,0,27.7-12.4,27.7-27.7V57.9c0-15.3-12.4-27.7-27.7-27.7H445.4z M500.5,103.6h-18.9v17.5h21v5.3h-27.3V77.8h26.2v5.3h-19.9
	v15.3h18.9L500.5,103.6L500.5,103.6z"/>
<path id="R" d="M739.8,186.2h-98.6c-18.6,0-33.7-15.1-33.7-33.7V57.9c0-18.6,15.1-33.7,33.7-33.7h98.6c18.6,0,33.7,15.1,33.7,33.7
	v94.5C773.5,171,758.4,186.2,739.8,186.2z M641.3,30.2c-15.3,0-27.7,12.4-27.7,27.7v94.5c0,15.3,12.4,27.7,27.7,27.7h98.6
	c15.3,0,27.7-12.4,27.7-27.7V57.9c0-15.3-12.4-27.7-27.7-27.7H641.3z M671.2,78.4c3.2-0.6,7.7-1,12-1c6.7,0,11,1.2,14,4
	c2.4,2.2,3.8,5.5,3.8,9.2c0,6.4-4,10.7-9.1,12.4v0.2c3.7,1.3,6,4.8,7.1,9.8c1.6,6.8,2.7,11.4,3.7,13.3h-6.5
	c-0.8-1.4-1.9-5.5-3.2-11.6c-1.4-6.7-4-9.2-9.7-9.4h-5.9v21h-6.3V78.4H671.2z M677.5,100.6h6.4c6.7,0,10.9-3.7,10.9-9.2
	c0-6.3-4.5-9-11.2-9.1c-3,0-5.2,0.3-6.2,0.6L677.5,100.6L677.5,100.6z"/>
<path id="T" d="M935.8,186.2h-98.6c-18.6,0-33.7-15.1-33.7-33.7V57.9c0-18.6,15.1-33.7,33.7-33.7h98.6c18.6,0,33.7,15.1,33.7,33.7
	v94.5C969.5,171,954.3,186.2,935.8,186.2z M837.2,30.2c-15.3,0-27.7,12.4-27.7,27.7v94.5c0,15.3,12.4,27.7,27.7,27.7h98.6
	c15.3,0,27.7-12.4,27.7-27.7V57.9c0-15.3-12.4-27.7-27.7-27.7H837.2z M876.4,83.1h-14.8v-5.3h35.9v5.3h-14.8v43.2h-6.3L876.4,83.1
	L876.4,83.1z"/>
<path id="Y" d="M1131.7,186.2h-98.6c-18.6,0-33.7-15.1-33.7-33.7V57.9c0-18.6,15.1-33.7,33.7-33.7h98.6c18.6,0,33.7,15.1,33.7,33.7
	v94.5C1165.4,171,1150.3,186.2,1131.7,186.2z M1033.1,30.2c-15.3,0-27.7,12.4-27.7,27.7v94.5c0,15.3,12.4,27.7,27.7,27.7h98.6
	c15.3,0,27.7-12.4,27.7-27.7V57.9c0-15.3-12.4-27.7-27.7-27.7H1033.1z M1073.9,126.3v-20.6l-15.3-27.9h7.1l6.8,13.4
	c1.9,3.7,3.3,6.6,4.8,10h0.1c1.4-3.2,3-6.3,4.9-10l7-13.4h7.1l-16.3,27.9v20.7h-6.2V126.3z"/>
<path id="U" d="M1327.6,186.2H1229c-18.6,0-33.7-15.1-33.7-33.7V57.9c0-18.6,15.1-33.7,33.7-33.7h98.6c18.6,0,33.7,15.1,33.7,33.7
	v94.5C1361.3,171,1346.2,186.2,1327.6,186.2z M1229,30.2c-15.3,0-27.7,12.4-27.7,27.7v94.5c0,15.3,12.4,27.7,27.7,27.7h98.6
	c15.3,0,27.7-12.4,27.7-27.7V57.9c0-15.3-12.4-27.7-27.7-27.7H1229z M1265.2,77.8v28.7c0,10.9,4.8,15.5,11.3,15.5
	c7.2,0,11.8-4.8,11.8-15.5V77.8h6.3v28.3c0,14.9-7.8,21-18.4,21c-9.9,0-17.4-5.7-17.4-20.7V77.8H1265.2z"/>
<path id="I" d="M1523.5,186.2H1425c-18.6,0-33.7-15.1-33.7-33.7V57.9c0-18.6,15.1-33.7,33.7-33.7h98.6c18.6,0,33.7,15.1,33.7,33.7
	v94.5C1557.2,171,1542.1,186.2,1523.5,186.2z M1425,30.2c-15.3,0-27.7,12.4-27.7,27.7v94.5c0,15.3,12.4,27.7,27.7,27.7h98.6
	c15.3,0,27.7-12.4,27.7-27.7V57.9c0-15.3-12.4-27.7-27.7-27.7H1425z M1472.2,77.8v48.5h-6.3V77.8H1472.2z"/>
<path id="O" d="M1719.4,186.2h-98.6c-18.6,0-33.7-15.1-33.7-33.7V57.9c0-18.6,15.1-33.7,33.7-33.7h98.6c18.6,0,33.7,15.1,33.7,33.7
	v94.5C1753.1,171,1738,186.2,1719.4,186.2z M1620.9,30.2c-15.3,0-27.7,12.4-27.7,27.7v94.5c0,15.3,12.4,27.7,27.7,27.7h98.6
	c15.3,0,27.7-12.4,27.7-27.7V57.9c0-15.3-12.4-27.7-27.7-27.7H1620.9z M1692.3,101.6c0,16.7-10.2,25.6-22.5,25.6
	c-12.8,0-21.8-9.9-21.8-24.6c0-15.4,9.6-25.5,22.5-25.5C1683.7,77,1692.3,87.2,1692.3,101.6z M1654.6,102.4
	c0,10.4,5.6,19.7,15.5,19.7s15.6-9.1,15.6-20.2c0-9.6-5-19.7-15.5-19.7C1659.8,82.1,1654.6,91.7,1654.6,102.4z"/>
<path id="P" d="M1915.3,186.2h-98.6c-18.6,0-33.7-15.1-33.7-33.7V57.9c0-18.6,15.1-33.7,33.7-33.7h98.6c18.6,0,33.7,15.1,33.7,33.7
	v94.5C1949,171,1933.9,186.2,1915.3,186.2z M1816.8,30.2c-15.3,0-27.7,12.4-27.7,27.7v94.5c0,15.3,12.4,27.7,27.7,27.7h98.6
	c15.3,0,27.7-12.4,27.7-27.7V57.9c0-15.3-12.4-27.7-27.7-27.7H1816.8z M1846.7,78.4c3-0.5,7-0.9,12-0.9c6.2,0,10.7,1.4,13.6,4
	c2.7,2.3,4.2,5.8,4.2,10.2c0,4.4-1.3,7.8-3.7,10.4c-3.3,3.5-8.7,5.3-14.8,5.3c-1.9,0-3.6-0.1-5-0.4v19.4h-6.3L1846.7,78.4
	L1846.7,78.4z M1853,101.8c1.4,0.4,3.1,0.5,5.2,0.5c7.6,0,12.2-3.7,12.2-10.4c0-6.4-4.5-9.5-11.4-9.5c-2.7,0-4.8,0.2-5.9,0.5
	L1853,101.8L1853,101.8z"/>
<path id="A" d="M199.5,380h-98.6c-18.6,0-33.7-15.1-33.7-33.7v-94.5c0-18.6,15.1-33.7,33.7-33.7h98.6c18.6,0,33.7,15.1,33.7,33.7
	v94.5C233.2,364.9,218,380,199.5,380z M100.9,224c-15.3,0-27.7,12.4-27.7,27.7v94.5c0,15.3,12.4,27.7,27.7,27.7h98.6
	c15.3,0,27.7-12.4,27.7-27.7v-94.5c0-15.3-12.4-27.7-27.7-27.7L100.9,224L100.9,224z M138.7,304.9l-5,15.3h-6.5l16.5-48.5h7.6
	l16.6,48.5h-6.7l-5.2-15.3H138.7z M154.6,300l-4.8-14c-1.1-3.2-1.8-6-2.5-8.9h-0.1c-0.7,2.9-1.5,5.8-2.4,8.8l-4.8,14h14.6V300z"/>
<path id="S" d="M395.4,380h-98.6c-18.6,0-33.7-15.1-33.7-33.7v-94.5c0-18.6,15.1-33.7,33.7-33.7h98.6c18.6,0,33.7,15.1,33.7,33.7
	v94.5C429.1,364.9,414,380,395.4,380z M296.8,224c-15.3,0-27.7,12.4-27.7,27.7v94.5c0,15.3,12.4,27.7,27.7,27.7h98.6
	c15.3,0,27.7-12.4,27.7-27.7v-94.5c0-15.3-12.4-27.7-27.7-27.7L296.8,224L296.8,224z M325.9,312.5c2.8,1.7,6.9,3.2,11.2,3.2
	c6.4,0,10.2-3.4,10.2-8.3c0-4.5-2.6-7.1-9.1-9.6c-7.9-2.8-12.8-6.9-12.8-13.8c0-7.6,6.3-13.2,15.7-13.2c5,0,8.6,1.2,10.7,2.4
	l-1.7,5.1c-1.6-0.9-4.8-2.3-9.2-2.3c-6.6,0-9.1,4-9.1,7.3c0,4.5,3,6.8,9.6,9.4c8.2,3.2,12.4,7.1,12.4,14.3c0,7.5-5.5,14-17,14
	c-4.7,0-9.8-1.4-12.4-3.1L325.9,312.5z"/>
<path id="D" d="M591.3,380h-98.6c-18.6,0-33.7-15.1-33.7-33.7v-94.5c0-18.6,15.1-33.7,33.7-33.7h98.6c18.6,0,33.7,15.1,33.7,33.7
	v94.5C625,364.9,609.9,380,591.3,380z M492.7,224c-15.3,0-27.7,12.4-27.7,27.7v94.5c0,15.3,12.4,27.7,27.7,27.7h98.6
	c15.3,0,27.7-12.4,27.7-27.7v-94.5c0-15.3-12.4-27.7-27.7-27.7L492.7,224L492.7,224z M522.7,272.3c3.8-0.6,8.4-1,13.3-1
	c9,0,15.4,2.1,19.7,6c4.3,4,6.8,9.6,6.8,17.4c0,7.9-2.4,14.4-7,18.9c-4.5,4.5-12,7-21.5,7c-4.5,0-8.2-0.2-11.4-0.6v-47.7H522.7z
	 M528.9,315.2c1.6,0.3,3.9,0.4,6.3,0.4c13.4,0,20.7-7.5,20.7-20.6c0.1-11.4-6.4-18.7-19.7-18.7c-3.2,0-5.7,0.3-7.3,0.6V315.2z"/>
<path id="F" d="M787.2,380h-98.6c-18.6,0-33.7-15.1-33.7-33.7v-94.5c0-18.6,15.1-33.7,33.7-33.7h98.6c18.6,0,33.7,15.1,33.7,33.7
	v94.5C820.9,364.9,805.8,380,787.2,380z M688.6,224c-15.3,0-27.7,12.4-27.7,27.7v94.5c0,15.3,12.4,27.7,27.7,27.7h98.6
	c15.3,0,27.7-12.4,27.7-27.7v-94.5c0-15.3-12.4-27.7-27.7-27.7L688.6,224L688.6,224z M718.6,271.6h26.1v5.3h-19.9V293h18.4v5.2
	h-18.4v22h-6.3v-48.6H718.6z"/>
<path id="H" d="M1172.1,380h-98.6c-18.6,0-33.7-15.1-33.7-33.7v-94.5c0-18.6,15.1-33.7,33.7-33.7h98.6c18.6,0,33.7,15.1,33.7,33.7
	v94.5C1205.8,364.9,1190.7,380,1172.1,380z M1073.6,224c-15.3,0-27.7,12.4-27.7,27.7v94.5c0,15.3,12.4,27.7,27.7,27.7h98.6
	c15.3,0,27.7-12.4,27.7-27.7v-94.5c0-15.3-12.4-27.7-27.7-27.7L1073.6,224L1073.6,224z M1109.8,271.6v20.3h23.5v-20.3h6.3v48.5h-6.3
	v-22.8h-23.5v22.8h-6.3v-48.5H1109.8z"/>
<path id="J" d="M1368,380h-98.6c-18.6,0-33.7-15.1-33.7-33.7v-94.5c0-18.6,15.1-33.7,33.7-33.7h98.6c18.6,0,33.7,15.1,33.7,33.7
	v94.5C1401.7,364.9,1386.6,380,1368,380z M1269.5,224c-15.3,0-27.7,12.4-27.7,27.7v94.5c0,15.3,12.4,27.7,27.7,27.7h98.6
	c15.3,0,27.7-12.4,27.7-27.7v-94.5c0-15.3-12.4-27.7-27.7-27.7L1269.5,224L1269.5,224z M1309.4,271.6h6.3v32.5
	c0,12.9-6.3,16.8-14.7,16.8c-2.3,0-5.1-0.5-6.7-1.2l0.9-5.1c1.3,0.5,3.2,0.9,5.3,0.9c5.6,0,8.9-2.5,8.9-12L1309.4,271.6
	L1309.4,271.6z"/>
<path id="K" d="M1563.9,380h-98.6c-18.6,0-33.7-15.1-33.7-33.7v-94.5c0-18.6,15.1-33.7,33.7-33.7h98.6c18.6,0,33.7,15.1,33.7,33.7
	v94.5C1597.6,364.9,1582.5,380,1563.9,380z M1465.4,224c-15.3,0-27.7,12.4-27.7,27.7v94.5c0,15.3,12.4,27.7,27.7,27.7h98.6
	c15.3,0,27.7-12.4,27.7-27.7v-94.5c0-15.3-12.4-27.7-27.7-27.7L1465.4,224L1465.4,224z M1495.3,271.6h6.3V295h0.2
	c1.3-1.9,2.6-3.6,3.8-5.2l14.8-18.2h7.8l-17.6,20.6l18.9,27.9h-7.4l-16-23.8l-4.6,5.3v18.5h-6.3L1495.3,271.6L1495.3,271.6z"/>
<path id="Z" d="M297.4,569.9h-98.6c-18.6,0-33.7-15.1-33.7-33.7v-94.5c0-18.6,15.1-33.7,33.7-33.7h98.6c18.6,0,33.7,15.1,33.7,33.7
	v94.5C331.1,554.7,316,569.9,297.4,569.9z M198.9,413.9c-15.3,0-27.7,12.4-27.7,27.7v94.5c0,15.3,12.4,27.7,27.7,27.7h98.6
	c15.3,0,27.7-12.4,27.7-27.7v-94.5c0-15.3-12.4-27.7-27.7-27.7L198.9,413.9L198.9,413.9z M225.5,506.3l26.9-39.4v-0.2h-24.6v-5.3
	h32.8v3.8l-26.8,39.2v0.2h27.1v5.3h-35.4L225.5,506.3L225.5,506.3z"/>
<path id="X" d="M493.3,569.9h-98.6c-18.6,0-33.7-15.1-33.7-33.7v-94.5c0-18.6,15.1-33.7,33.7-33.7h98.6c18.6,0,33.7,15.1,33.7,33.7
	v94.5C527,554.7,511.9,569.9,493.3,569.9z M394.8,413.9c-15.3,0-27.7,12.4-27.7,27.7v94.5c0,15.3,12.4,27.7,27.7,27.7h98.6
	c15.3,0,27.7-12.4,27.7-27.7v-94.5c0-15.3-12.4-27.7-27.7-27.7L394.8,413.9L394.8,413.9z M451.3,510l-6.2-10.7
	c-2.5-4.1-4.1-6.8-5.6-9.6h-0.1c-1.4,2.8-2.7,5.4-5.3,9.6l-5.8,10.7H421l14.8-24.6l-14.3-24h7.3l6.4,11.4c1.8,3.2,3.2,5.6,4.5,8.2
	h0.2c1.4-2.9,2.6-5.1,4.4-8.2l6.6-11.4h7.2L443.3,485l15.1,24.9h-7.1V510z"/>
<path id="L" d="M1759.9,380h-98.6c-18.6,0-33.7-15.1-33.7-33.7v-94.5c0-18.6,15.1-33.7,33.7-33.7h98.6c18.6,0,33.7,15.1,33.7,33.7
	v94.5C1793.6,364.9,1778.4,380,1759.9,380z M1661.3,224c-15.3,0-27.7,12.4-27.7,27.7v94.5c0,15.3,12.4,27.7,27.7,27.7h98.6
	c15.3,0,27.7-12.4,27.7-27.7v-94.5c0-15.3-12.4-27.7-27.7-27.7L1661.3,224L1661.3,224z M1691.3,271.6h6.3v43.3h20.7v5.3h-27V271.6z"
	/>
<path id="C" d="M689.2,569.9h-98.6c-18.6,0-33.7-15.1-33.7-33.7v-94.5c0-18.6,15.1-33.7,33.7-33.7h98.6c18.6,0,33.7,15.1,33.7,33.7
	v94.5C722.9,554.7,707.8,569.9,689.2,569.9z M590.7,413.9c-15.3,0-27.7,12.4-27.7,27.7v94.5c0,15.3,12.4,27.7,27.7,27.7h98.6
	c15.3,0,27.7-12.4,27.7-27.7v-94.5c0-15.3-12.4-27.7-27.7-27.7L590.7,413.9L590.7,413.9z M654.5,508.4c-2.3,1.2-6.9,2.3-12.8,2.3
	c-13.7,0-24-8.6-24-24.6c0-15.2,10.3-25.5,25.3-25.5c6,0,9.9,1.3,11.5,2.2l-1.5,5.1c-2.4-1.2-5.8-2-9.8-2c-11.4,0-18.9,7.3-18.9,20
	c0,11.9,6.8,19.5,18.6,19.5c3.8,0,7.7-0.8,10.2-2L654.5,508.4z"/>
<path id="V" d="M885.2,569.9h-98.6c-18.6,0-33.7-15.1-33.7-33.7v-94.5c0-18.6,15.1-33.7,33.7-33.7h98.6c18.6,0,33.7,15.1,33.7,33.7
	v94.5C918.9,554.7,903.7,569.9,885.2,569.9z M786.6,413.9c-15.3,0-27.7,12.4-27.7,27.7v94.5c0,15.3,12.4,27.7,27.7,27.7h98.6
	c15.3,0,27.7-12.4,27.7-27.7v-94.5c0-15.3-12.4-27.7-27.7-27.7L786.6,413.9L786.6,413.9z M827.2,510l-15.8-48.5h6.8l7.6,23.9
	c2.1,6.6,3.9,12.5,5.2,18.1h0.1c1.4-5.6,3.4-11.7,5.5-18.1l8.2-24h6.7L834.1,510H827.2z"/>
<path id="B" d="M1081.1,569.9h-98.6c-18.6,0-33.7-15.1-33.7-33.7v-94.5c0-18.6,15.1-33.7,33.7-33.7h98.6c18.6,0,33.7,15.1,33.7,33.7
	v94.5C1114.8,554.7,1099.7,569.9,1081.1,569.9z M982.5,413.9c-15.3,0-27.7,12.4-27.7,27.7v94.5c0,15.3,12.4,27.7,27.7,27.7h98.6
	c15.3,0,27.7-12.4,27.7-27.7v-94.5c0-15.3-12.4-27.7-27.7-27.7L982.5,413.9L982.5,413.9z M1012.5,462.1c2.7-0.6,7.1-1,11.4-1
	c6.3,0,10.3,1.1,13.3,3.5c2.5,1.9,4,4.8,4,8.6c0,4.7-3.1,8.8-8.2,10.7v0.1c4.6,1.2,10,5,10,12.2c0,4.2-1.7,7.3-4.1,9.7
	c-3.4,3.1-8.9,4.5-16.8,4.5c-4.3,0-7.6-0.3-9.7-0.6L1012.5,462.1L1012.5,462.1z M1018.7,482h5.7c6.6,0,10.5-3.5,10.5-8.1
	c0-5.7-4.3-7.9-10.7-7.9c-2.9,0-4.5,0.2-5.5,0.4L1018.7,482L1018.7,482z M1018.7,505.3c1.2,0.2,3,0.3,5.3,0.3
	c6.5,0,12.5-2.4,12.5-9.4c0-6.6-5.7-9.4-12.5-9.4h-5.2L1018.7,505.3L1018.7,505.3z"/>
<path id="N" d="M1277,569.9h-98.5c-18.6,0-33.7-15.1-33.7-33.7v-94.5c0-18.6,15.1-33.7,33.7-33.7h98.5c18.6,0,33.7,15.1,33.7,33.7
	v94.5C1310.7,554.7,1295.6,569.9,1277,569.9z M1178.4,413.9c-15.3,0-27.7,12.4-27.7,27.7v94.5c0,15.3,12.4,27.7,27.7,27.7h98.5
	c15.3,0,27.7-12.4,27.7-27.7v-94.5c0-15.3-12.4-27.7-27.7-27.7L1178.4,413.9L1178.4,413.9z M1208.4,510v-48.5h6.8l15.6,24.6
	c3.6,5.7,6.4,10.8,8.7,15.8l0.1-0.1c-0.6-6.5-0.7-12.4-0.7-19.9v-20.3h5.9V510h-6.3l-15.4-24.6c-3.4-5.4-6.6-10.9-9.1-16.2l-0.2,0.1
	c0.4,6.1,0.5,12,0.5,20V510H1208.4z"/>
<path id="M" d="M1472.9,573.6h-98.5c-18.6,0-33.7-15.1-33.7-33.7v-94.5c0-18.6,15.1-33.7,33.7-33.7h98.5c18.6,0,33.7,15.1,33.7,33.7
	v94.5C1506.6,558.5,1491.4,573.6,1472.9,573.6z M1374.3,417.6c-15.3,0-27.7,12.4-27.7,27.7v94.5c0,15.3,12.4,27.7,27.7,27.7h98.5
	c15.3,0,27.7-12.4,27.7-27.7v-94.5c0-15.3-12.4-27.7-27.7-27.7L1374.3,417.6L1374.3,417.6z M1445.2,492.4c-0.4-6.8-0.8-14.9-0.7-21
	h-0.2c-1.7,5.7-3.7,11.7-6.1,18.4l-8.6,23.5h-4.8l-7.8-23.1c-2.3-6.8-4.2-13.1-5.6-18.9h-0.1c-0.1,6-0.5,14.2-0.9,21.5l-1.3,20.8h-6
	l3.4-48.5h8l8.3,23.5c2,6,3.7,11.3,4.9,16.3h0.2c1.2-4.9,3-10.2,5.1-16.3l8.6-23.5h8l3,48.5h-6.1L1445.2,492.4z"/>
<path id="G" d="M979.9,380h-98.6c-18.6,0-33.7-15.1-33.7-33.7v-94.5c0-18.6,15.1-33.7,33.7-33.7h98.6c18.6,0,33.7,15.1,33.7,33.7
	v94.5C1013.6,364.9,998.5,380,979.9,380z M881.3,224c-15.3,0-27.7,12.4-27.7,27.7v94.5c0,15.3,12.4,27.7,27.7,27.7h98.6
	c15.3,0,27.7-12.4,27.7-27.7v-94.5c0-15.3-12.4-27.7-27.7-27.7L881.3,224L881.3,224z M945.4,318.7c-2.8,1-8.4,2.7-14.9,2.7
	c-7.3,0-13.4-1.9-18.1-6.4c-4.2-4-6.8-10.5-6.8-18.1c0.1-14.5,10-25.1,26.3-25.1c5.6,0,10,1.2,12.1,2.2l-1.5,5.1
	c-2.6-1.2-5.8-2.1-10.7-2.1c-11.8,0-19.5,7.3-19.5,19.5c0,12.3,7.4,19.6,18.7,19.6c4.1,0,6.9-0.6,8.4-1.3v-14.5h-9.9v-5h16V318.7z"
	/>
</svg>
