<?xml version="1.0" encoding="utf-8"?>
<!-- Generator: Adobe Illustrator 27.0.0, SVG Export Plug-In . SVG Version: 6.00 Build 0)  -->
<svg version="1.1" id="SEO" xmlns="http://www.w3.org/2000/svg" xmlns:xlink="http://www.w3.org/1999/xlink" x="0px" y="0px"
	 viewBox="0 0 115.3 49.9" style="enable-background:new 0 0 115.3 49.9;" xml:space="preserve">
<style type="text/css">
	@import url(../../css/header.css);
</style>
<path id="SEO-S" d="M27.5,4.4v13.7h-1.1c-0.4-2.6-1-4.7-1.9-6.3c-0.9-1.6-2.2-2.8-3.9-3.7c-1.7-0.9-3.4-1.4-5.2-1.4
	c-2,0-3.7,0.6-5,1.9c-1.3,1.2-2,2.7-2,4.2c0,1.2,0.4,2.3,1.3,3.3c1.2,1.5,4.1,3.4,8.6,5.9c3.7,2,6.2,3.5,7.6,4.6
	c1.4,1.1,2.4,2.3,3.1,3.8c0.7,1.4,1.1,3,1.1,4.5c0,3-1.2,5.6-3.5,7.8c-2.3,2.2-5.3,3.3-9,3.3c-1.2,0-2.2-0.1-3.3-0.3
	c-0.6-0.1-1.9-0.5-3.8-1.1S7.5,43.7,7,43.7c-0.5,0-0.9,0.1-1.2,0.4c-0.3,0.3-0.5,0.9-0.6,1.8H4.1V32.4h1.1c0.5,2.9,1.2,5,2.1,6.4
	c0.9,1.4,2.2,2.6,3.9,3.5c1.8,0.9,3.7,1.4,5.8,1.4c2.4,0,4.4-0.6,5.8-1.9c1.4-1.3,2.1-2.8,2.1-4.6c0-1-0.3-2-0.8-3
	c-0.5-1-1.4-1.9-2.5-2.8c-0.8-0.6-2.8-1.8-6.2-3.7s-5.8-3.4-7.3-4.6c-1.4-1.1-2.5-2.4-3.3-3.8c-0.7-1.4-1.1-2.9-1.1-4.5
	c0-2.9,1.1-5.3,3.3-7.4c2.2-2.1,5-3.1,8.3-3.1c2.1,0,4.3,0.5,6.7,1.6c1.1,0.5,1.9,0.7,2.3,0.7c0.5,0,0.9-0.2,1.2-0.5
	C26,6,26.2,5.4,26.4,4.4H27.5z"/>
<path id="SEO-E" d="M45.9,7.5v15.7h8.7c2.3,0,3.8-0.3,4.5-1c1-0.9,1.6-2.5,1.7-4.7H62v13.8h-1.1c-0.3-1.9-0.5-3.2-0.8-3.7
	c-0.4-0.7-0.9-1.2-1.7-1.6c-0.8-0.4-2-0.6-3.7-0.6h-8.7v13.1c0,1.8,0.1,2.8,0.2,3.2c0.2,0.4,0.4,0.7,0.8,0.9
	c0.4,0.2,1.1,0.3,2.2,0.3h6.7c2.2,0,3.9-0.2,4.9-0.5c1-0.3,2-0.9,2.9-1.8c1.2-1.2,2.5-3,3.7-5.5h1.2l-3.4,10H34.6V44H36
	c0.9,0,1.8-0.2,2.7-0.7c0.6-0.3,1-0.8,1.3-1.4c0.2-0.6,0.3-1.9,0.3-3.8V12.3c0-2.5-0.3-4.1-0.8-4.7c-0.7-0.8-1.9-1.2-3.5-1.2h-1.4
	V5.4h30.6l0.4,8.7h-1.1c-0.4-2.1-0.9-3.5-1.4-4.3C62.7,9,61.9,8.4,60.9,8c-0.8-0.3-2.2-0.4-4.1-0.4H45.9z"/>
<path id="SEO-O" d="M92,4.4c5.2,0,9.6,2,13.4,5.9c3.8,3.9,5.7,8.8,5.7,14.7c0,6-1.9,11-5.7,15s-8.4,6-13.8,6
	C86,46,81.4,44,77.7,40.2c-3.7-3.9-5.6-8.9-5.6-15.1c0-6.3,2.1-11.5,6.4-15.4C82.3,6.2,86.8,4.4,92,4.4z M91.4,6.6
	c-3.6,0-6.4,1.3-8.6,4c-2.7,3.3-4,8.1-4,14.4c0,6.5,1.4,11.5,4.2,15c2.1,2.7,4.9,4,8.4,4c3.7,0,6.8-1.5,9.2-4.4
	c2.4-2.9,3.6-7.5,3.6-13.8c0-6.8-1.3-11.9-4-15.2C98.2,7.9,95.2,6.6,91.4,6.6z"/>
</svg>
