<?xml version="1.0" encoding="utf-8"?>
<!-- Generator: Adobe Illustrator 27.0.0, SVG Export Plug-In . SVG Version: 6.00 Build 0)  -->
<svg version="1.1" id="check_x5F_list" xmlns="http://www.w3.org/2000/svg" xmlns:xlink="http://www.w3.org/1999/xlink" x="0px"
	 y="0px" viewBox="0 0 246 377" style="enable-background:new 0 0 246 377;" xml:space="preserve">
<style type="text/css">
	@import url(../css/checklist_gears.css);
</style>
<path id="Board" class="st0" d="M238,44v323.4H12.9V44H238z M181.5,38.8v24.4h-112V38.8c0-5.7,4.6-10.3,10.3-10.3h21.1
	c-0.2-1-0.3-1.9-0.3-2.9c0-10.2,11.1-18.4,24.9-18.4c13.7,0,24.9,8.2,24.9,18.4c0,1-0.1,2-0.3,2.9h21.1
	C176.8,28.4,181.5,33,181.5,38.8z M135.8,25.5c0-5.7-4.6-10.3-10.3-10.3s-10.3,4.6-10.3,10.3s4.6,10.3,10.3,10.3
	S135.8,31.2,135.8,25.5z"/>
<g id="texts">
	<path d="M102,127l0.5,8.1H102c-0.7-2.4-1.8-4.2-3.1-5.2s-3-1.6-4.9-1.6c-1.6,0-3,0.4-4.3,1.2s-2.3,2.1-3,3.8s-1.1,3.9-1.1,6.6
		c0,2.2,0.3,4,1,5.6s1.7,2.8,3.1,3.6s3,1.3,4.8,1.3c1.5,0,2.9-0.3,4.1-1s2.5-2,3.9-3.9l0.5,0.4c-1.2,2.1-2.6,3.7-4.2,4.7
		s-3.5,1.5-5.7,1.5c-3.9,0-7-1.5-9.2-4.4c-1.6-2.2-2.4-4.7-2.4-7.7c0-2.4,0.5-4.6,1.6-6.6s2.5-3.5,4.4-4.6s3.9-1.6,6.1-1.6
		c1.7,0,3.4,0.4,5.1,1.3c0.5,0.3,0.8,0.4,1.1,0.4s0.6-0.1,0.8-0.3c0.3-0.3,0.5-0.8,0.7-1.3h0.7V127z M113.3,134.8
		c2.4,0,4.4,0.9,5.9,2.8c1.3,1.6,1.9,3.4,1.9,5.4c0,1.4-0.3,2.9-1,4.4s-1.6,2.6-2.9,3.3s-2.6,1.1-4.1,1.1c-2.4,0-4.4-1-5.8-2.9
		c-1.2-1.6-1.8-3.5-1.8-5.5c0-1.5,0.4-2.9,1.1-4.4s1.7-2.5,2.9-3.2S112,134.8,113.3,134.8z M112.8,136c-0.6,0-1.2,0.2-1.9,0.6
		s-1.1,1-1.5,1.9s-0.6,2.1-0.6,3.6c0,2.3,0.5,4.4,1.4,6.1s2.2,2.5,3.7,2.5c1.1,0,2.1-0.5,2.8-1.4s1.1-2.5,1.1-4.8
		c0-2.9-0.6-5.1-1.8-6.8C115.1,136.5,114.1,136,112.8,136z M128.1,138.3c1.9-2.3,3.7-3.4,5.4-3.4c0.9,0,1.6,0.2,2.3,0.7
		s1.1,1.2,1.5,2.2c0.3,0.7,0.4,1.8,0.4,3.2v6.9c0,1,0.1,1.7,0.2,2.1c0.1,0.3,0.3,0.5,0.6,0.7s0.8,0.2,1.6,0.2v0.6h-8v-0.6h0.3
		c0.8,0,1.3-0.1,1.6-0.3s0.5-0.6,0.6-1c0-0.2,0.1-0.7,0.1-1.7v-6.6c0-1.5-0.2-2.5-0.6-3.2s-1-1-1.9-1c-1.4,0-2.8,0.8-4.2,2.3v8.5
		c0,1.1,0.1,1.8,0.2,2c0.2,0.3,0.4,0.6,0.7,0.7s0.9,0.2,1.7,0.2v0.6h-8v-0.6h0.4c0.8,0,1.4-0.2,1.7-0.6s0.4-1.2,0.4-2.4v-6
		c0-1.9,0-3.1-0.1-3.5s-0.2-0.7-0.4-0.9s-0.4-0.2-0.7-0.2s-0.7,0.1-1.2,0.3l-0.3-0.6l4.9-2h0.8V138.3z M146.1,130v5.3h3.8v1.2h-3.8
		V147c0,1,0.1,1.7,0.4,2.1s0.7,0.5,1.2,0.5c0.4,0,0.8-0.1,1.1-0.4s0.6-0.6,0.8-1.1h0.7c-0.4,1.1-1,2-1.7,2.6s-1.5,0.9-2.3,0.9
		c-0.5,0-1.1-0.1-1.6-0.4s-0.9-0.7-1.1-1.3s-0.4-1.4-0.4-2.6v-10.8h-2.5V136c0.6-0.3,1.3-0.7,2-1.3s1.3-1.3,1.8-2.2
		c0.3-0.4,0.6-1.3,1.1-2.4h0.5V130z M154.1,141.4c0,2.4,0.6,4.3,1.7,5.6s2.5,2,4.1,2c1.1,0,2-0.3,2.8-0.9s1.4-1.6,2-3l0.5,0.4
		c-0.2,1.6-1,3.1-2.1,4.4s-2.7,2-4.4,2c-1.9,0-3.6-0.8-5-2.3s-2.1-3.5-2.1-6.1c0-2.8,0.7-4.9,2.1-6.4s3.2-2.3,5.3-2.3
		c1.8,0,3.3,0.6,4.4,1.8s1.7,2.8,1.7,4.8H154.1z M154.1,140.4h7.5c-0.1-1-0.2-1.8-0.4-2.2c-0.3-0.7-0.7-1.2-1.3-1.5
		s-1.2-0.6-1.8-0.6c-1,0-1.8,0.4-2.6,1.1S154.3,139,154.1,140.4z M172.1,138.3c1.9-2.3,3.7-3.4,5.4-3.4c0.9,0,1.6,0.2,2.3,0.7
		s1.1,1.2,1.5,2.2c0.3,0.7,0.4,1.8,0.4,3.2v6.9c0,1,0.1,1.7,0.2,2.1c0.1,0.3,0.3,0.5,0.6,0.7s0.8,0.2,1.6,0.2v0.6h-8v-0.6h0.3
		c0.8,0,1.3-0.1,1.6-0.3s0.5-0.6,0.6-1c0-0.2,0.1-0.7,0.1-1.7v-6.6c0-1.5-0.2-2.5-0.6-3.2s-1-1-1.9-1c-1.4,0-2.8,0.8-4.2,2.3v8.5
		c0,1.1,0.1,1.8,0.2,2c0.2,0.3,0.4,0.6,0.7,0.7s0.9,0.2,1.7,0.2v0.6h-8v-0.6h0.4c0.8,0,1.4-0.2,1.7-0.6s0.4-1.2,0.4-2.4v-6
		c0-1.9,0-3.1-0.1-3.5s-0.2-0.7-0.4-0.9s-0.4-0.2-0.7-0.2c-0.3,0-0.7,0.1-1.2,0.3l-0.3-0.6l4.9-2h0.8V138.3z M190.1,130v5.3h3.8v1.2
		h-3.8V147c0,1,0.1,1.7,0.4,2.1s0.7,0.5,1.2,0.5c0.4,0,0.8-0.1,1.1-0.4s0.6-0.6,0.8-1.1h0.7c-0.4,1.1-1,2-1.7,2.6s-1.5,0.9-2.3,0.9
		c-0.5,0-1.1-0.1-1.6-0.4s-0.9-0.7-1.1-1.3s-0.4-1.4-0.4-2.6v-10.8h-2.5V136c0.6-0.3,1.3-0.7,2-1.3s1.3-1.3,1.8-2.2
		c0.3-0.4,0.6-1.3,1.1-2.4h0.5V130z"/>
	<path d="M80.9,192v-0.7h0.9c1,0,1.7-0.3,2.1-1c0.3-0.4,0.4-1.3,0.4-2.6v-15.4c0-1.5-0.2-2.4-0.5-2.8c-0.5-0.5-1.1-0.8-2-0.8h-0.9
		V168h9.7c3.6,0,6.3,0.4,8.1,1.2s3.4,2.2,4.5,4s1.7,4.1,1.7,6.5c0,3.3-1,6.1-3,8.3c-2.3,2.5-5.7,3.7-10.3,3.7H80.9V192z M87.7,190.3
		c1.5,0.3,2.7,0.5,3.7,0.5c2.7,0,5-1,6.8-2.9s2.7-4.5,2.7-7.8s-0.9-5.9-2.7-7.8s-4.1-2.8-6.9-2.8c-1.1,0-2.3,0.2-3.6,0.5V190.3z
		 M110.1,181.9c0,2.4,0.6,4.3,1.7,5.6s2.5,2,4.1,2c1.1,0,2-0.3,2.8-0.9s1.4-1.6,2-3l0.5,0.4c-0.2,1.6-1,3.1-2.1,4.4s-2.7,2-4.4,2
		c-1.9,0-3.6-0.8-5-2.3s-2.1-3.5-2.1-6.1c0-2.8,0.7-4.9,2.1-6.4s3.2-2.3,5.3-2.3c1.8,0,3.3,0.6,4.4,1.8s1.7,2.8,1.7,4.8H110.1z
		 M110.1,180.9h7.5c-0.1-1-0.2-1.8-0.4-2.2c-0.3-0.7-0.7-1.2-1.3-1.5s-1.2-0.6-1.8-0.6c-1,0-1.8,0.4-2.6,1.1
		S110.3,179.6,110.1,180.9z M133.8,175.4v5.5h-0.6c-0.4-1.7-1-2.9-1.7-3.5s-1.6-0.9-2.7-0.9c-0.8,0-1.5,0.2-2,0.7s-0.8,0.9-0.8,1.4
		c0,0.7,0.2,1.2,0.6,1.7c0.4,0.5,1.1,1,2.2,1.5l2.6,1.2c2.4,1.2,3.6,2.7,3.6,4.6c0,1.5-0.6,2.6-1.7,3.5s-2.3,1.3-3.7,1.3
		c-1,0-2.1-0.2-3.4-0.5c-0.4-0.1-0.7-0.2-0.9-0.2c-0.3,0-0.5,0.2-0.6,0.5h-0.6v-5.7h0.6c0.3,1.6,1,2.9,1.9,3.7s2,1.2,3.1,1.2
		c0.8,0,1.5-0.2,2-0.7s0.8-1,0.8-1.7c0-0.8-0.3-1.5-0.9-2s-1.7-1.2-3.4-2.1s-2.8-1.6-3.3-2.3s-0.8-1.5-0.8-2.5
		c0-1.3,0.5-2.4,1.4-3.3s2.1-1.3,3.5-1.3c0.6,0,1.4,0.1,2.3,0.4c0.6,0.2,1,0.3,1.2,0.3s0.3,0,0.4-0.1s0.2-0.3,0.4-0.5h0.5V175.4z
		 M143,175.4v12.9c0,1,0.1,1.7,0.2,2s0.4,0.6,0.7,0.7s0.8,0.2,1.6,0.2v0.6h-7.8v-0.6c0.8,0,1.3-0.1,1.6-0.2s0.5-0.4,0.6-0.8
		c0.1-0.4,0.2-1,0.2-2V182c0-1.7-0.1-2.9-0.2-3.4c-0.1-0.4-0.2-0.6-0.4-0.8s-0.4-0.2-0.7-0.2s-0.7,0.1-1.2,0.3l-0.2-0.6l4.9-2h0.7
		V175.4z M141.5,167c0.5,0,0.9,0.2,1.3,0.5s0.5,0.8,0.5,1.3s-0.2,0.9-0.5,1.3s-0.8,0.5-1.3,0.5s-0.9-0.2-1.3-0.5s-0.5-0.8-0.5-1.3
		s0.2-0.9,0.5-1.3C140.5,167.1,141,167,141.5,167z M151.7,186.1c-1-0.5-1.7-1.2-2.3-2s-0.8-1.8-0.8-2.9c0-1.6,0.6-3,1.8-4.1
		s2.7-1.7,4.6-1.7c1.5,0,2.9,0.4,4,1.1h3.4c0.5,0,0.8,0,0.9,0s0.1,0.1,0.2,0.1c0.1,0.1,0.1,0.3,0.1,0.6s0,0.5-0.1,0.6
		c0,0.1-0.1,0.1-0.2,0.1s-0.4,0.1-0.9,0.1h-2.1c0.7,0.8,1,1.9,1,3.2c0,1.5-0.6,2.8-1.7,3.8s-2.7,1.6-4.6,1.6c-0.8,0-1.6-0.1-2.4-0.4
		c-0.5,0.4-0.9,0.8-1,1.2s-0.3,0.6-0.3,0.9c0,0.2,0.1,0.4,0.3,0.6s0.6,0.3,1.1,0.4c0.3,0,1.1,0.1,2.5,0.1c2.4,0.1,4,0.1,4.7,0.2
		c1.1,0.2,2,0.6,2.6,1.2s1,1.5,1,2.4c0,1.3-0.6,2.6-1.9,3.7c-1.8,1.7-4.2,2.6-7.2,2.6c-2.3,0-4.2-0.5-5.7-1.5
		c-0.9-0.6-1.3-1.2-1.3-1.8c0-0.3,0.1-0.6,0.2-0.8c0.2-0.4,0.6-1,1.2-1.8c0.1-0.1,0.7-0.7,1.8-1.9c-0.6-0.4-1-0.7-1.3-1
		s-0.4-0.6-0.4-1s0.2-0.9,0.5-1.4S150.5,187.1,151.7,186.1z M151.5,192c-0.6,0.6-1,1.2-1.2,1.7s-0.4,1-0.4,1.4c0,0.6,0.3,1.1,1,1.5
		c1.2,0.7,2.9,1.1,5.1,1.1c2.1,0,3.7-0.4,4.7-1.1c1-0.7,1.5-1.5,1.5-2.4c0-0.6-0.3-1-0.9-1.3s-1.8-0.4-3.6-0.5
		C155,192.3,153,192.2,151.5,192z M154.8,176.2c-0.9,0-1.6,0.3-2.2,1s-0.9,1.8-0.9,3.2c0,1.9,0.4,3.3,1.2,4.3
		c0.6,0.8,1.4,1.2,2.3,1.2s1.6-0.3,2.2-1s0.9-1.7,0.9-3.1c0-1.9-0.4-3.3-1.2-4.4C156.5,176.6,155.7,176.2,154.8,176.2z M170.1,178.8
		c1.9-2.3,3.7-3.4,5.4-3.4c0.9,0,1.6,0.2,2.3,0.7s1.1,1.2,1.5,2.2c0.3,0.7,0.4,1.8,0.4,3.2v6.9c0,1,0.1,1.7,0.2,2.1
		c0.1,0.3,0.3,0.5,0.6,0.7s0.8,0.2,1.6,0.2v0.6h-8v-0.6h0.3c0.8,0,1.3-0.1,1.6-0.3s0.5-0.6,0.6-1c0-0.2,0.1-0.7,0.1-1.7v-6.6
		c0-1.5-0.2-2.5-0.6-3.2s-1-1-1.9-1c-1.4,0-2.8,0.8-4.2,2.3v8.5c0,1.1,0.1,1.8,0.2,2c0.2,0.3,0.4,0.6,0.7,0.7s0.9,0.2,1.7,0.2v0.6
		h-8v-0.6h0.4c0.8,0,1.4-0.2,1.7-0.6s0.4-1.2,0.4-2.4v-6c0-1.9,0-3.1-0.1-3.5s-0.2-0.7-0.4-0.9s-0.4-0.2-0.7-0.2
		c-0.3,0-0.7,0.1-1.2,0.3l-0.3-0.6l4.9-2h0.8V178.8z"/>
	<path d="M87.7,221.4v6.9c0,1.5,0.2,2.4,0.5,2.8c0.4,0.5,1.1,0.8,2,0.8h0.9v0.7H80.9v-0.7h0.9c1,0,1.7-0.3,2.2-1
		c0.2-0.4,0.4-1.2,0.4-2.6v-15.4c0-1.5-0.2-2.4-0.5-2.8c-0.5-0.5-1.1-0.8-2-0.8H81v-0.7h8.7c2.1,0,3.8,0.2,5,0.7s2.3,1.2,3.1,2.2
		s1.3,2.3,1.3,3.7c0,1.9-0.6,3.5-1.9,4.7s-3.1,1.8-5.4,1.8c-0.6,0-1.2,0-1.9-0.1S88.4,221.5,87.7,221.4z M87.7,220.4
		c0.6,0.1,1.2,0.2,1.7,0.3s0.9,0.1,1.2,0.1c1.2,0,2.3-0.5,3.2-1.4s1.3-2.2,1.3-3.7c0-1-0.2-2-0.6-2.9s-1-1.5-1.8-2s-1.7-0.7-2.6-0.7
		c-0.6,0-1.4,0.1-2.3,0.3L87.7,220.4L87.7,220.4z M106.2,216v3.6c1.3-2.4,2.7-3.6,4.1-3.6c0.6,0,1.2,0.2,1.6,0.6s0.6,0.8,0.6,1.4
		c0,0.5-0.2,0.8-0.5,1.2s-0.7,0.5-1.1,0.5c-0.4,0-0.9-0.2-1.4-0.6s-0.9-0.6-1.1-0.6c-0.2,0-0.4,0.1-0.7,0.4
		c-0.5,0.5-1.1,1.3-1.6,2.4v7.7c0,0.9,0.1,1.6,0.3,2c0.2,0.3,0.4,0.6,0.8,0.8s0.9,0.3,1.7,0.3v0.6h-8.2v-0.6c0.8,0,1.4-0.1,1.8-0.4
		c0.3-0.2,0.5-0.5,0.6-0.9c0.1-0.2,0.1-0.8,0.1-1.7v-6.2c0-1.9,0-3-0.1-3.3s-0.2-0.6-0.4-0.8s-0.5-0.2-0.8-0.2
		c-0.4,0-0.8,0.1-1.2,0.3l-0.2-0.6l4.9-2h0.8V216z M121.3,216c2.4,0,4.4,0.9,5.9,2.8c1.3,1.6,1.9,3.4,1.9,5.4c0,1.4-0.3,2.9-1,4.4
		s-1.6,2.6-2.9,3.3s-2.6,1.1-4.1,1.1c-2.4,0-4.4-1-5.8-2.9c-1.2-1.6-1.8-3.5-1.8-5.5c0-1.5,0.4-2.9,1.1-4.4s1.7-2.5,2.9-3.2
		S120,216,121.3,216z M120.8,217.1c-0.6,0-1.2,0.2-1.9,0.6s-1.1,1-1.5,1.9s-0.6,2.1-0.6,3.6c0,2.3,0.5,4.4,1.4,6.1s2.2,2.5,3.7,2.5
		c1.1,0,2.1-0.5,2.8-1.4s1.1-2.5,1.1-4.8c0-2.9-0.6-5.1-1.8-6.8C123.1,217.7,122.1,217.1,120.8,217.1z M136.1,211.1v5.3h3.8v1.2
		h-3.8V228c0,1,0.1,1.7,0.4,2.1s0.7,0.5,1.2,0.5c0.4,0,0.8-0.1,1.1-0.4s0.6-0.6,0.8-1.1h0.7c-0.4,1.1-1,2-1.7,2.6s-1.5,0.9-2.3,0.9
		c-0.5,0-1.1-0.1-1.6-0.4s-0.9-0.7-1.1-1.3s-0.4-1.4-0.4-2.6v-10.8h-2.5v-0.6c0.6-0.3,1.3-0.7,2-1.3s1.3-1.3,1.8-2.2
		c0.3-0.4,0.6-1.3,1.1-2.4L136.1,211.1L136.1,211.1z M149.3,216c2.4,0,4.4,0.9,5.9,2.8c1.3,1.6,1.9,3.4,1.9,5.4c0,1.4-0.3,2.9-1,4.4
		s-1.6,2.6-2.9,3.3s-2.6,1.1-4.1,1.1c-2.4,0-4.4-1-5.8-2.9c-1.2-1.6-1.8-3.5-1.8-5.5c0-1.5,0.4-2.9,1.1-4.4s1.7-2.5,2.9-3.2
		S148,216,149.3,216z M148.8,217.1c-0.6,0-1.2,0.2-1.9,0.6s-1.1,1-1.5,1.9s-0.6,2.1-0.6,3.6c0,2.3,0.5,4.4,1.4,6.1s2.2,2.5,3.7,2.5
		c1.1,0,2.1-0.5,2.8-1.4s1.1-2.5,1.1-4.8c0-2.9-0.6-5.1-1.8-6.8C151.1,217.7,150.1,217.1,148.8,217.1z M164.1,211.1v5.3h3.8v1.2
		h-3.8V228c0,1,0.1,1.7,0.4,2.1s0.7,0.5,1.2,0.5c0.4,0,0.8-0.1,1.1-0.4s0.6-0.6,0.8-1.1h0.7c-0.4,1.1-1,2-1.7,2.6s-1.5,0.9-2.3,0.9
		c-0.5,0-1.1-0.1-1.6-0.4s-0.9-0.7-1.1-1.3s-0.4-1.4-0.4-2.6v-10.8h-2.5v-0.6c0.6-0.3,1.3-0.7,2-1.3c0.7-0.6,1.3-1.3,1.8-2.2
		c0.3-0.4,0.6-1.3,1.1-2.4L164.1,211.1L164.1,211.1z M168.5,216.4h7.5v0.7h-0.4c-0.5,0-0.9,0.1-1.2,0.3s-0.4,0.5-0.4,0.9
		c0,0.5,0.2,1.1,0.6,1.9l3.9,8.1l3.6-8.9c0.2-0.5,0.3-1,0.3-1.4c0-0.2,0-0.4-0.1-0.5s-0.2-0.2-0.4-0.3s-0.6-0.1-1.1-0.1v-0.7h5.2
		v0.7c-0.4,0-0.8,0.1-1,0.3s-0.5,0.4-0.8,0.8c-0.1,0.2-0.3,0.6-0.6,1.4l-6.6,16.1c-0.6,1.6-1.5,2.7-2.5,3.5s-2,1.2-3,1.2
		c-0.7,0-1.3-0.2-1.7-0.6s-0.7-0.9-0.7-1.4s0.2-0.9,0.5-1.2s0.8-0.4,1.3-0.4c0.4,0,0.9,0.1,1.6,0.4c0.5,0.2,0.8,0.3,0.9,0.3
		c0.4,0,0.7-0.2,1.2-0.5s0.8-1.1,1.3-2.1l1.1-2.8l-5.8-12.1c-0.2-0.4-0.5-0.8-0.8-1.4c-0.3-0.4-0.5-0.7-0.7-0.8
		c-0.3-0.2-0.7-0.4-1.3-0.5v-0.9H168.5z M186.3,218l5-2h0.7v3.8c0.8-1.4,1.7-2.4,2.5-3s1.7-0.9,2.6-0.9c1.6,0,3,0.6,4,1.9
		c1.3,1.5,2,3.6,2,6c0,2.8-0.8,5.1-2.4,6.9c-1.3,1.5-3,2.2-5,2.2c-0.9,0-1.6-0.1-2.2-0.4c-0.5-0.2-1-0.5-1.6-1.1v4.9
		c0,1.1,0.1,1.8,0.2,2.1s0.4,0.5,0.7,0.7s0.9,0.3,1.8,0.3v0.7h-8.4v-0.7h0.4c0.6,0,1.2-0.1,1.7-0.4c0.2-0.1,0.4-0.3,0.5-0.6
		s0.2-1,0.2-2.2V221c0-1,0-1.7-0.1-2s-0.2-0.5-0.4-0.6s-0.5-0.2-0.8-0.2s-0.6,0.1-1.1,0.2L186.3,218z M191.9,220.8v6
		c0,1.3,0.1,2.2,0.2,2.6c0.2,0.7,0.6,1.3,1.2,1.8s1.4,0.8,2.4,0.8c1.2,0,2.1-0.5,2.8-1.4c0.9-1.2,1.4-2.9,1.4-5
		c0-2.5-0.5-4.4-1.6-5.7c-0.8-0.9-1.6-1.4-2.7-1.4c-0.6,0-1.1,0.1-1.7,0.4C193.6,219.1,192.9,219.8,191.9,220.8z M208.1,222.5
		c0,2.4,0.6,4.3,1.7,5.6s2.5,2,4.1,2c1.1,0,2-0.3,2.8-0.9s1.4-1.6,2-3l0.5,0.4c-0.2,1.6-1,3.1-2.1,4.4s-2.7,2-4.4,2
		c-1.9,0-3.6-0.8-5-2.3s-2.1-3.5-2.1-6.1c0-2.8,0.7-4.9,2.1-6.4s3.2-2.3,5.3-2.3c1.8,0,3.3,0.6,4.4,1.8s1.7,2.8,1.7,4.8H208.1z
		 M208.1,221.5h7.5c-0.1-1-0.2-1.8-0.4-2.2c-0.3-0.7-0.7-1.2-1.3-1.5s-1.2-0.6-1.8-0.6c-1,0-1.8,0.4-2.6,1.1
		S208.3,220.1,208.1,221.5z"/>
	<path d="M102,248.7l0.5,8.1H102c-0.7-2.4-1.8-4.2-3.1-5.2s-3-1.6-4.9-1.6c-1.6,0-3,0.4-4.3,1.2s-2.3,2.1-3,3.8s-1.1,3.9-1.1,6.6
		c0,2.2,0.3,4,1,5.6s1.7,2.8,3.1,3.6s3,1.3,4.8,1.3c1.5,0,2.9-0.3,4.1-1s2.5-2,3.9-3.9l0.5,0.4c-1.2,2.1-2.6,3.7-4.2,4.7
		s-3.5,1.5-5.7,1.5c-3.9,0-7-1.5-9.2-4.4c-1.6-2.2-2.4-4.7-2.4-7.7c0-2.4,0.5-4.6,1.6-6.6s2.5-3.5,4.4-4.6s3.9-1.6,6.1-1.6
		c1.7,0,3.4,0.4,5.1,1.3c0.5,0.3,0.8,0.4,1.1,0.4s0.6-0.1,0.8-0.3c0.3-0.3,0.5-0.8,0.7-1.3h0.7V248.7z M113.3,256.5
		c2.4,0,4.4,0.9,5.9,2.8c1.3,1.6,1.9,3.4,1.9,5.4c0,1.4-0.3,2.9-1,4.4s-1.6,2.6-2.9,3.3s-2.6,1.1-4.1,1.1c-2.4,0-4.4-1-5.8-2.9
		c-1.2-1.6-1.8-3.5-1.8-5.5c0-1.5,0.4-2.9,1.1-4.4s1.7-2.5,2.9-3.2S112,256.5,113.3,256.5z M112.8,257.7c-0.6,0-1.2,0.2-1.9,0.6
		s-1.1,1-1.5,1.9s-0.6,2.1-0.6,3.6c0,2.3,0.5,4.4,1.4,6.1s2.2,2.5,3.7,2.5c1.1,0,2.1-0.5,2.8-1.4s1.1-2.5,1.1-4.8
		c0-2.9-0.6-5.1-1.8-6.8C115.1,258.2,114.1,257.7,112.8,257.7z M134.8,271.3c-0.8,0.8-1.6,1.4-2.3,1.8s-1.6,0.5-2.4,0.5
		c-1.8,0-3.3-0.7-4.6-2.2s-2-3.4-2-5.7s0.7-4.4,2.2-6.3s3.3-2.9,5.6-2.9c1.4,0,2.6,0.5,3.5,1.4v-3c0-1.8,0-3-0.1-3.4
		s-0.2-0.7-0.4-0.9s-0.4-0.2-0.7-0.2s-0.7,0.1-1.2,0.3l-0.2-0.6l4.8-2h0.8v18.6c0,1.9,0,3,0.1,3.5s0.2,0.7,0.4,0.9s0.4,0.2,0.7,0.2
		s0.7-0.1,1.3-0.3l0.2,0.6l-4.8,2h-0.8v-2.3H134.8z M134.8,270v-8.3c-0.1-0.8-0.3-1.5-0.6-2.2s-0.8-1.2-1.4-1.5s-1.1-0.5-1.7-0.5
		c-1,0-2,0.5-2.8,1.4c-1.1,1.2-1.6,3-1.6,5.3c0,2.4,0.5,4.2,1.5,5.4s2.2,1.9,3.4,1.9C132.8,271.6,133.8,271.1,134.8,270z M147,256.5
		v12.9c0,1,0.1,1.7,0.2,2s0.4,0.6,0.7,0.7s0.8,0.2,1.6,0.2v0.6h-7.8v-0.6c0.8,0,1.3-0.1,1.6-0.2s0.5-0.4,0.6-0.8s0.2-1,0.2-2v-6.2
		c0-1.7-0.1-2.9-0.2-3.4c-0.1-0.4-0.2-0.6-0.4-0.8s-0.4-0.2-0.7-0.2c-0.3,0-0.7,0.1-1.2,0.3l-0.2-0.6l4.9-2h0.7V256.5z M145.5,248.1
		c0.5,0,0.9,0.2,1.3,0.5s0.5,0.8,0.5,1.3s-0.2,0.9-0.5,1.3s-0.8,0.5-1.3,0.5s-0.9-0.2-1.3-0.5s-0.5-0.8-0.5-1.3s0.2-0.9,0.5-1.3
		S145,248.1,145.5,248.1z M156.1,259.9c1.9-2.3,3.7-3.4,5.4-3.4c0.9,0,1.6,0.2,2.3,0.7s1.1,1.2,1.5,2.2c0.3,0.7,0.4,1.8,0.4,3.2v6.9
		c0,1,0.1,1.7,0.2,2.1c0.1,0.3,0.3,0.5,0.6,0.7s0.8,0.2,1.6,0.2v0.6h-8v-0.6h0.3c0.8,0,1.3-0.1,1.6-0.3s0.5-0.6,0.6-1
		c0-0.2,0.1-0.7,0.1-1.7v-6.6c0-1.5-0.2-2.5-0.6-3.2s-1-1-1.9-1c-1.4,0-2.8,0.8-4.2,2.3v8.5c0,1.1,0.1,1.8,0.2,2
		c0.2,0.3,0.4,0.6,0.7,0.7s0.9,0.2,1.7,0.2v0.6h-8v-0.6h0.4c0.8,0,1.4-0.2,1.7-0.6s0.4-1.2,0.4-2.4v-6c0-1.9,0-3.1-0.1-3.5
		s-0.2-0.7-0.4-0.9s-0.4-0.2-0.7-0.2c-0.3,0-0.7,0.1-1.2,0.3l-0.3-0.6l4.9-2h0.8V259.9z M173.7,267.2c-1-0.5-1.7-1.2-2.3-2
		s-0.8-1.8-0.8-2.9c0-1.6,0.6-3,1.8-4.1s2.7-1.7,4.6-1.7c1.5,0,2.9,0.4,4,1.1h3.4c0.5,0,0.8,0,0.9,0s0.1,0.1,0.2,0.1
		c0.1,0.1,0.1,0.3,0.1,0.6c0,0.3,0,0.5-0.1,0.6c0,0.1-0.1,0.1-0.2,0.1s-0.4,0.1-0.9,0.1h-2.1c0.7,0.8,1,1.9,1,3.2
		c0,1.5-0.6,2.8-1.7,3.8s-2.7,1.6-4.6,1.6c-0.8,0-1.6-0.1-2.4-0.4c-0.5,0.4-0.9,0.8-1,1.2s-0.3,0.6-0.3,0.9c0,0.2,0.1,0.4,0.3,0.6
		s0.6,0.3,1.1,0.4c0.3,0,1.1,0.1,2.5,0.1c2.4,0.1,4,0.1,4.7,0.2c1.1,0.2,2,0.6,2.6,1.2s1,1.5,1,2.4c0,1.3-0.6,2.6-1.9,3.7
		c-1.8,1.7-4.2,2.6-7.2,2.6c-2.3,0-4.2-0.5-5.7-1.5c-0.9-0.6-1.3-1.2-1.3-1.8c0-0.3,0.1-0.6,0.2-0.8c0.2-0.4,0.6-1,1.2-1.8
		c0.1-0.1,0.7-0.7,1.8-1.9c-0.6-0.4-1-0.7-1.3-1s-0.4-0.6-0.4-1s0.2-0.9,0.5-1.4S172.5,268.2,173.7,267.2z M173.6,273.1
		c-0.6,0.6-1,1.2-1.2,1.7s-0.4,1-0.4,1.4c0,0.6,0.3,1.1,1,1.5c1.2,0.7,2.9,1.1,5.1,1.1c2.1,0,3.7-0.4,4.7-1.1s1.5-1.5,1.5-2.4
		c0-0.6-0.3-1-0.9-1.3s-1.8-0.4-3.6-0.5C177,273.4,175,273.3,173.6,273.1z M176.8,257.4c-0.9,0-1.6,0.3-2.2,1s-0.9,1.8-0.9,3.2
		c0,1.9,0.4,3.3,1.2,4.3c0.6,0.8,1.4,1.2,2.3,1.2s1.6-0.3,2.2-1s0.9-1.7,0.9-3.1c0-1.9-0.4-3.3-1.2-4.4
		C178.5,257.7,177.7,257.4,176.8,257.4z"/>
	<path d="M101.1,289.8l0.3,5.6h-0.7c-0.1-1-0.3-1.7-0.5-2.1c-0.4-0.7-0.8-1.2-1.5-1.5s-1.4-0.5-2.4-0.5H93v18.2
		c0,1.5,0.2,2.4,0.5,2.7c0.4,0.5,1.1,0.7,2.1,0.7h0.8v0.7H86.3V313h0.8c1,0,1.7-0.3,2.1-0.9c0.3-0.4,0.4-1.2,0.4-2.6v-18.2h-2.9
		c-1.1,0-1.9,0.1-2.4,0.2c-0.6,0.2-1.1,0.7-1.6,1.3s-0.7,1.5-0.8,2.6h-0.7l0.3-5.6H101.1z M103.6,303.6c0,2.4,0.6,4.3,1.7,5.6
		s2.5,2,4.1,2c1.1,0,2-0.3,2.8-0.9s1.4-1.6,2-3l0.5,0.4c-0.2,1.6-1,3.1-2.1,4.4s-2.7,2-4.4,2c-1.9,0-3.6-0.8-5-2.3s-2.1-3.5-2.1-6.1
		c0-2.8,0.7-4.9,2.1-6.4s3.2-2.3,5.3-2.3c1.8,0,3.3,0.6,4.4,1.8s1.7,2.8,1.7,4.8H103.6z M103.6,302.6h7.5c-0.1-1-0.2-1.8-0.4-2.2
		c-0.3-0.7-0.7-1.2-1.3-1.5s-1.2-0.6-1.8-0.6c-1,0-1.8,0.4-2.6,1.1S103.7,301.2,103.6,302.6z M127.3,297.1v5.5h-0.6
		c-0.4-1.7-1-2.9-1.7-3.5s-1.6-0.9-2.7-0.9c-0.8,0-1.5,0.2-2,0.7s-0.8,0.9-0.8,1.4c0,0.7,0.2,1.2,0.6,1.7c0.4,0.5,1.1,1,2.2,1.5
		l2.6,1.2c2.4,1.2,3.6,2.7,3.6,4.6c0,1.5-0.6,2.6-1.7,3.5s-2.3,1.3-3.7,1.3c-1,0-2.1-0.2-3.4-0.5c-0.4-0.1-0.7-0.2-0.9-0.2
		c-0.3,0-0.5,0.2-0.6,0.5h-0.6v-5.7h0.6c0.3,1.6,1,2.9,1.9,3.7s2,1.2,3.1,1.2c0.8,0,1.5-0.2,2-0.7s0.8-1,0.8-1.7
		c0-0.8-0.3-1.5-0.9-2s-1.7-1.2-3.4-2.1s-2.8-1.6-3.3-2.3c-0.5-0.7-0.8-1.5-0.8-2.5c0-1.3,0.5-2.4,1.4-3.3s2.1-1.3,3.5-1.3
		c0.6,0,1.4,0.1,2.3,0.4c0.6,0.2,1,0.3,1.2,0.3s0.3,0,0.4-0.1s0.2-0.3,0.4-0.5h0.5V297.1z M135.6,292.3v5.3h3.8v1.2h-3.8v10.4
		c0,1,0.1,1.7,0.4,2.1s0.7,0.5,1.2,0.5c0.4,0,0.8-0.1,1.1-0.4s0.6-0.6,0.8-1.1h0.7c-0.4,1.1-1,2-1.7,2.6s-1.5,0.9-2.3,0.9
		c-0.5,0-1.1-0.1-1.6-0.4s-0.9-0.7-1.1-1.3s-0.4-1.4-0.4-2.6v-10.8h-2.5v-0.6c0.6-0.3,1.3-0.7,2-1.3s1.3-1.3,1.8-2.2
		c0.3-0.4,0.6-1.3,1.1-2.4L135.6,292.3L135.6,292.3z M146.4,297.1V310c0,1,0.1,1.7,0.2,2s0.4,0.6,0.7,0.7s0.8,0.2,1.6,0.2v0.6h-7.8
		V313c0.8,0,1.3-0.1,1.6-0.2s0.5-0.4,0.6-0.8s0.2-1,0.2-2v-6.2c0-1.7-0.1-2.9-0.2-3.4c-0.1-0.4-0.2-0.6-0.4-0.8s-0.4-0.2-0.7-0.2
		c-0.3,0-0.7,0.1-1.2,0.3l-0.2-0.6l4.9-2L146.4,297.1L146.4,297.1z M145,288.7c0.5,0,0.9,0.2,1.3,0.5s0.5,0.8,0.5,1.3
		s-0.2,0.9-0.5,1.3s-0.8,0.5-1.3,0.5s-0.9-0.2-1.3-0.5s-0.5-0.8-0.5-1.3s0.2-0.9,0.5-1.3S144.5,288.7,145,288.7z M155.6,300.5
		c1.9-2.3,3.7-3.4,5.4-3.4c0.9,0,1.6,0.2,2.3,0.7s1.1,1.2,1.5,2.2c0.3,0.7,0.4,1.8,0.4,3.2v6.9c0,1,0.1,1.7,0.2,2.1
		c0.1,0.3,0.3,0.5,0.6,0.7s0.8,0.2,1.6,0.2v0.6h-8V313h0.3c0.8,0,1.3-0.1,1.6-0.3s0.5-0.6,0.6-1c0-0.2,0.1-0.7,0.1-1.7v-6.6
		c0-1.5-0.2-2.5-0.6-3.2s-1-1-1.9-1c-1.4,0-2.8,0.8-4.2,2.3v8.5c0,1.1,0.1,1.8,0.2,2c0.2,0.3,0.4,0.6,0.7,0.7s0.9,0.2,1.7,0.2v0.6
		h-8V313h0.4c0.8,0,1.4-0.2,1.7-0.6s0.4-1.2,0.4-2.4v-6c0-1.9,0-3.1-0.1-3.5s-0.2-0.7-0.4-0.9s-0.4-0.2-0.7-0.2
		c-0.3,0-0.7,0.1-1.2,0.3L150,299l4.9-2h0.8L155.6,300.5L155.6,300.5z M173.2,307.8c-1-0.5-1.7-1.2-2.3-2s-0.8-1.8-0.8-2.9
		c0-1.6,0.6-3,1.8-4.1s2.7-1.7,4.6-1.7c1.5,0,2.9,0.4,4,1.1h3.4c0.5,0,0.8,0,0.9,0s0.1,0.1,0.2,0.1c0.1,0.1,0.1,0.3,0.1,0.6
		c0,0.3,0,0.5-0.1,0.6c0,0.1-0.1,0.1-0.2,0.1s-0.4,0.1-0.9,0.1h-2.1c0.7,0.8,1,1.9,1,3.2c0,1.5-0.6,2.8-1.7,3.8s-2.7,1.6-4.6,1.6
		c-0.8,0-1.6-0.1-2.4-0.4c-0.5,0.4-0.9,0.8-1,1.2s-0.3,0.6-0.3,0.9c0,0.2,0.1,0.4,0.3,0.6s0.6,0.3,1.1,0.4c0.3,0,1.1,0.1,2.5,0.1
		c2.4,0.1,4,0.1,4.7,0.2c1.1,0.2,2,0.6,2.6,1.2s1,1.5,1,2.4c0,1.3-0.6,2.6-1.9,3.7c-1.8,1.7-4.2,2.6-7.2,2.6c-2.3,0-4.2-0.5-5.7-1.5
		c-0.9-0.6-1.3-1.2-1.3-1.8c0-0.3,0.1-0.6,0.2-0.8c0.2-0.4,0.6-1,1.2-1.8c0.1-0.1,0.7-0.7,1.8-1.9c-0.6-0.4-1-0.7-1.3-1
		s-0.4-0.6-0.4-1s0.2-0.9,0.5-1.4S172,308.8,173.2,307.8z M173,313.6c-0.6,0.6-1,1.2-1.2,1.7s-0.4,1-0.4,1.4c0,0.6,0.3,1.1,1,1.5
		c1.2,0.7,2.9,1.1,5.1,1.1c2.1,0,3.7-0.4,4.7-1.1s1.5-1.5,1.5-2.4c0-0.6-0.3-1-0.9-1.3s-1.8-0.4-3.6-0.5
		C176.5,314,174.4,313.8,173,313.6z M176.3,297.9c-0.9,0-1.6,0.3-2.2,1s-0.9,1.8-0.9,3.2c0,1.9,0.4,3.3,1.2,4.3
		c0.6,0.8,1.4,1.2,2.3,1.2s1.6-0.3,2.2-1s0.9-1.7,0.9-3.1c0-1.9-0.4-3.3-1.2-4.4C178,298.3,177.2,297.9,176.3,297.9z"/>
	<path d="M87.7,99.7v6.9c0,1.5,0.2,2.4,0.5,2.8c0.4,0.5,1.1,0.8,2,0.8h0.9v0.7H80.9v-0.7h0.9c1,0,1.7-0.3,2.2-1
		c0.2-0.4,0.4-1.2,0.4-2.6V91.2c0-1.5-0.2-2.4-0.5-2.8c-0.5-0.5-1.1-0.8-2-0.8H81V87h8.7c2.1,0,3.8,0.2,5,0.7s2.3,1.2,3.1,2.2
		s1.3,2.3,1.3,3.7c0,1.9-0.6,3.5-1.9,4.7s-3.1,1.8-5.4,1.8c-0.6,0-1.2,0-1.9-0.1S88.4,99.9,87.7,99.7z M87.7,98.7
		c0.6,0.1,1.2,0.2,1.7,0.3s0.9,0.1,1.2,0.1c1.2,0,2.3-0.5,3.2-1.4s1.3-2.2,1.3-3.7c0-1-0.2-2-0.6-2.9s-1-1.5-1.8-2s-1.7-0.7-2.6-0.7
		c-0.6,0-1.4,0.1-2.3,0.3L87.7,98.7L87.7,98.7z M107,85.9v21.4c0,1,0.1,1.7,0.2,2s0.4,0.6,0.7,0.7s0.9,0.3,1.7,0.3v0.6h-7.9v-0.6
		c0.7,0,1.2-0.1,1.5-0.2s0.5-0.4,0.6-0.8s0.2-1,0.2-2V92.7c0-1.8,0-2.9-0.1-3.3s-0.2-0.7-0.4-0.9s-0.4-0.2-0.7-0.2s-0.7,0.1-1.2,0.3
		l-0.3-0.6l4.8-2L107,85.9L107,85.9z M120.6,108.5c-1.7,1.3-2.7,2-3.1,2.2c-0.6,0.3-1.3,0.4-2,0.4c-1.1,0-2-0.4-2.8-1.1
		s-1.1-1.8-1.1-3c0-0.8,0.2-1.5,0.5-2c0.5-0.8,1.3-1.5,2.5-2.2s3.2-1.6,5.9-2.6v-0.6c0-1.6-0.3-2.7-0.8-3.3s-1.3-0.9-2.2-0.9
		c-0.7,0-1.3,0.2-1.8,0.6c-0.4,0.4-0.7,0.9-0.7,1.4v1c0,0.5-0.1,1-0.4,1.2s-0.6,0.4-1.1,0.4c-0.4,0-0.8-0.2-1.1-0.5
		s-0.4-0.7-0.4-1.2c0-1,0.5-1.9,1.5-2.8s2.5-1.3,4.3-1.3c1.4,0,2.6,0.2,3.5,0.7c0.7,0.4,1.2,0.9,1.5,1.7c0.2,0.5,0.3,1.5,0.3,3.1
		v5.5c0,1.5,0,2.5,0.1,2.8s0.2,0.6,0.3,0.7s0.3,0.2,0.5,0.2s0.4,0,0.5-0.1c0.2-0.2,0.7-0.6,1.4-1.3v1c-1.3,1.8-2.6,2.6-3.8,2.6
		c-0.6,0-1-0.2-1.4-0.6S120.6,109.5,120.6,108.5z M120.6,107.4v-6.1c-1.8,0.7-2.9,1.2-3.4,1.5c-0.9,0.5-1.6,1.1-2,1.6
		s-0.6,1.2-0.6,1.8c0,0.8,0.3,1.5,0.8,2.1s1.1,0.8,1.7,0.8C117.9,109.2,119.1,108.6,120.6,107.4z M132.1,97.7
		c1.9-2.3,3.7-3.4,5.4-3.4c0.9,0,1.6,0.2,2.3,0.7s1.1,1.2,1.5,2.2c0.3,0.7,0.4,1.8,0.4,3.2v6.9c0,1,0.1,1.7,0.2,2.1
		c0.1,0.3,0.3,0.5,0.6,0.7s0.8,0.2,1.6,0.2v0.6h-8v-0.6h0.3c0.8,0,1.3-0.1,1.6-0.3s0.5-0.6,0.6-1c0-0.2,0.1-0.7,0.1-1.7v-6.6
		c0-1.5-0.2-2.5-0.6-3.2s-1-1-1.9-1c-1.4,0-2.8,0.8-4.2,2.3v8.5c0,1.1,0.1,1.8,0.2,2c0.2,0.3,0.4,0.6,0.7,0.7s0.9,0.2,1.7,0.2v0.6
		h-8v-0.6h0.4c0.8,0,1.4-0.2,1.7-0.6s0.4-1.2,0.4-2.4v-6c0-1.9,0-3.1-0.1-3.5s-0.2-0.7-0.4-0.9s-0.4-0.2-0.7-0.2s-0.7,0.1-1.2,0.3
		l-0.3-0.6l4.9-2h0.8V97.7z M151,94.3v12.9c0,1,0.1,1.7,0.2,2s0.4,0.6,0.7,0.7s0.8,0.2,1.6,0.2v0.6h-7.8v-0.6c0.8,0,1.3-0.1,1.6-0.2
		s0.5-0.4,0.6-0.8s0.2-1,0.2-2V101c0-1.7-0.1-2.9-0.2-3.4c-0.1-0.4-0.2-0.6-0.4-0.8s-0.4-0.2-0.7-0.2c-0.3,0-0.7,0.1-1.2,0.3
		l-0.2-0.6l4.9-2H151z M149.5,85.9c0.5,0,0.9,0.2,1.3,0.5s0.5,0.8,0.5,1.3s-0.2,0.9-0.5,1.3s-0.8,0.5-1.3,0.5s-0.9-0.2-1.3-0.5
		s-0.5-0.8-0.5-1.3s0.2-0.9,0.5-1.3S149,85.9,149.5,85.9z M160.1,97.7c1.9-2.3,3.7-3.4,5.4-3.4c0.9,0,1.6,0.2,2.3,0.7
		s1.1,1.2,1.5,2.2c0.3,0.7,0.4,1.8,0.4,3.2v6.9c0,1,0.1,1.7,0.2,2.1c0.1,0.3,0.3,0.5,0.6,0.7s0.8,0.2,1.6,0.2v0.6h-8v-0.6h0.3
		c0.8,0,1.3-0.1,1.6-0.3s0.5-0.6,0.6-1c0-0.2,0.1-0.7,0.1-1.7v-6.6c0-1.5-0.2-2.5-0.6-3.2s-1-1-1.9-1c-1.4,0-2.8,0.8-4.2,2.3v8.5
		c0,1.1,0.1,1.8,0.2,2c0.2,0.3,0.4,0.6,0.7,0.7c0.3,0.2,0.9,0.2,1.7,0.2v0.6h-8v-0.6h0.4c0.8,0,1.4-0.2,1.7-0.6s0.4-1.2,0.4-2.4v-6
		c0-1.9,0-3.1-0.1-3.5s-0.2-0.7-0.4-0.9s-0.4-0.2-0.7-0.2c-0.3,0-0.7,0.1-1.2,0.3l-0.3-0.6l4.9-2h0.8V97.7z M177.7,105
		c-1-0.5-1.7-1.2-2.3-2s-0.8-1.8-0.8-2.9c0-1.6,0.6-3,1.8-4.1s2.7-1.7,4.6-1.7c1.5,0,2.9,0.4,4,1.1h3.4c0.5,0,0.8,0,0.9,0
		s0.1,0.1,0.2,0.1c0.1,0.1,0.1,0.3,0.1,0.6s0,0.5-0.1,0.6c0,0.1-0.1,0.1-0.2,0.1s-0.4,0.1-0.9,0.1h-2.1c0.7,0.8,1,1.9,1,3.2
		c0,1.5-0.6,2.8-1.7,3.8s-2.7,1.6-4.6,1.6c-0.8,0-1.6-0.1-2.4-0.4c-0.5,0.4-0.9,0.8-1,1.2s-0.3,0.6-0.3,0.9c0,0.2,0.1,0.4,0.3,0.6
		s0.6,0.3,1.1,0.4c0.3,0,1.1,0.1,2.5,0.1c2.4,0.1,4,0.1,4.7,0.2c1.1,0.2,2,0.6,2.6,1.2s1,1.5,1,2.4c0,1.3-0.6,2.6-1.9,3.7
		c-1.8,1.7-4.2,2.6-7.2,2.6c-2.3,0-4.2-0.5-5.7-1.5c-0.9-0.6-1.3-1.2-1.3-1.8c0-0.3,0.1-0.6,0.2-0.8c0.2-0.4,0.6-1,1.2-1.8
		c0.1-0.1,0.7-0.7,1.8-1.9c-0.6-0.4-1-0.7-1.3-1s-0.4-0.6-0.4-1s0.2-0.9,0.5-1.4S176.5,106,177.7,105z M177.6,110.9
		c-0.6,0.6-1,1.2-1.2,1.7s-0.4,1-0.4,1.4c0,0.6,0.3,1.1,1,1.5c1.2,0.7,2.9,1.1,5.1,1.1c2.1,0,3.7-0.4,4.7-1.1s1.5-1.5,1.5-2.4
		c0-0.6-0.3-1-0.9-1.3s-1.8-0.4-3.6-0.5C181,111.2,179,111.1,177.6,110.9z M180.8,95.1c-0.9,0-1.6,0.3-2.2,1s-0.9,1.8-0.9,3.2
		c0,1.9,0.4,3.3,1.2,4.3c0.6,0.8,1.4,1.2,2.3,1.2s1.6-0.3,2.2-1s0.9-1.7,0.9-3.1c0-1.9-0.4-3.3-1.2-4.4
		C182.5,95.5,181.7,95.1,180.8,95.1z"/>
</g>
<path id="check_x5F_box" class="st2" d="M57.9,112.2H31.5V85.8h26.4V112.2z M57.9,126.4H31.5v26.4h26.4V126.4z M57.9,167H31.5v26.4
	h26.4V167z M57.9,207.5H31.5v26.4h26.4V207.5z M57.9,248.1H31.5v26.4h26.4V248.1z M57.9,288.6H31.5V315h26.4V288.6z"/>
<path id="check_x5F_1" class="st1" d="M71.1,73.7l-26.6,33.6l-7.8-13.2"/>
<path id="check_x5F_2" class="st1" d="M71.1,113.7l-26.6,33.6l-7.8-13.2"/>
<path id="check_x5F_3" class="st1" d="M71.1,153.7l-26.6,33.6l-7.8-13.2"/>
<path id="check_x5F_4" class="st1" d="M71.1,195.8l-26.6,33.6l-7.8-13.2"/>
<path id="check_x5F_5" class="st1" d="M71.1,235.7l-26.6,33.6l-7.8-13.2"/>
<path id="check_x5F_6" class="st1" d="M72.5,275.6l-26.6,33.6L38.1,296"/>
</svg>
