<?xml version="1.0" encoding="utf-8"?>
<!-- Generator: Adobe Illustrator 27.0.0, SVG Export Plug-In . SVG Version: 6.00 Build 0)  -->
<svg version="1.1" id="cms" xmlns="http://www.w3.org/2000/svg" xmlns:xlink="http://www.w3.org/1999/xlink" x="0px" y="0px"
	 viewBox="0 0 200 200" style="enable-background:new 0 0 200 200;" xml:space="preserve">
<style type="text/css">
	@import url(../css/cardicon.css);
</style>

<path id="mangu" d="M186.6,124.8v42.5l-10.5,6.1v-42.5l-26.3-15.2l-26.3,15.2l0.1,42.5l-10.5-6.1v-42.5l36.8-21.3L186.6,124.8z
	 M155,173.4l-5.2,3.1l-5.3-3v-42.5L134,137l0,42.5l15.8,9.1l15.8-9.1V137l-10.5-6.1V173.4L155,173.4z"/>
<path id="drupal" d="M65,121.5c-5.9-5.9-11.6-11.6-13.3-18c-1.7,6.4-7.3,12-13.3,18c-8.9,8.9-19,19-19,34.1
	c-0.4,17.8,13.7,32.6,31.6,33s32.6-13.7,33-31.6c0-0.5,0-0.9,0-1.4C84,140.5,73.9,130.4,65,121.5z M36,158.6c-1,1.2-1.8,2.6-2.5,4
	c-0.1,0.2-0.3,0.4-0.6,0.5h-0.3c-0.7,0-1.5-1.4-1.5-1.4l0,0c-0.2-0.3-0.4-0.7-0.6-1.1l-0.1-0.3c-1.9-4.3-0.2-10.3-0.2-10.3l0,0
	c0.8-3,2.1-5.8,3.9-8.3c1.1-1.6,2.2-3.1,3.5-4.6l1.5,1.5l7.2,7.4c0.3,0.3,0.3,0.8,0,1.1l-7.5,8.4l0,0L36,158.6z M52.1,179.7
	c-6.2,0-11.1-5.1-11.1-11.2c0-2.7,1-5.3,2.8-7.4c2.4-2.8,5.2-5.6,8.4-9.2c3.7,3.9,6.1,6.7,8.5,9.6c0.2,0.2,0.3,0.5,0.5,0.7
	c1.3,1.8,2,4,2,6.3C63.2,174.7,58.2,179.7,52.1,179.7C52.1,179.7,52.1,179.7,52.1,179.7L52.1,179.7z M73,162L73,162
	c-0.1,0.5-0.5,0.8-1,0.9h-0.2c-0.4-0.1-0.8-0.4-1-0.8l0,0c-1.9-2.9-4.1-5.6-6.6-8.1l-3-3.1l-9.8-10.2c-2.1-1.9-4-3.9-5.9-6
	c0-0.1-0.1-0.2-0.2-0.2c-0.3-0.5-0.6-1-0.8-1.5v-0.3c-0.3-1.7,0.3-3.4,1.5-4.6c1.9-1.9,3.8-3.8,5.6-5.8c2,2.2,4.1,4.3,6.2,6.4l0,0
	c4.3,4,8.1,8.4,11.6,13.1c2.9,4.1,4.4,8.9,4.5,13.9C74,157.8,73.7,159.9,73,162z"/>
<path id="shopify" d="M177.9,25.3c-0.1-0.4-0.4-0.7-0.8-0.7c-0.3,0-6.4-0.1-6.4-0.1s-3.7-3.6-5.1-4.9v74.2l21.5-5.3
	C187.3,88.4,178,25.7,177.9,25.3z M160.9,19.6c-0.3-1-0.7-2-1.2-3c-1.8-3.4-4.5-5.3-7.6-5.3c-0.2,0-0.5,0-0.7,0.1
	c-0.1-0.1-0.2-0.2-0.3-0.3c-1.4-1.5-3.2-2.2-5.3-2.1c-4.1,0.1-8.2,3.1-11.5,8.4c-2.3,3.7-4.1,8.4-4.6,12c-4.7,1.4-8,2.5-8.1,2.5
	c-2.4,0.8-2.5,0.8-2.7,3.1c-0.2,1.7-6.5,50-6.5,50l51.9,9V18.7c-0.3,0-0.5,0-0.8,0.1C163.4,18.8,162.4,19.1,160.9,19.6z M151.4,22.5
	c-2.7,0.8-5.8,1.8-8.7,2.7c0.8-3.2,2.5-6.4,4.4-8.6c0.8-0.8,1.8-1.6,2.9-2.2C151.2,16.9,151.5,20.2,151.4,22.5z M145.8,11.7
	c0.9,0,1.7,0.2,2.5,0.6c-1.1,0.5-2.2,1.4-3.2,2.5c-2.6,2.8-4.6,7.2-5.4,11.4c-2.5,0.8-4.9,1.5-7.2,2.2
	C133.9,21.8,139.5,11.8,145.8,11.7z M137.8,49.4c0.3,4.4,11.9,5.3,12.6,15.7c0.5,8.2-4.3,13.7-11.2,14.1c-8.4,0.5-13-4.4-13-4.4
	l1.8-7.5c0,0,4.6,3.5,8.3,3.2c2.4-0.1,3.3-2.1,3.2-3.5c-0.3-5.8-9.8-5.4-10.4-14.9c-0.5-8,4.7-16,16.2-16.7c4.5-0.3,6.7,0.8,6.7,0.8
	l-2.6,9.9c0,0-2.9-1.4-6.4-1.1C137.8,45.4,137.7,48.6,137.8,49.4z M154.1,21.7c0-2.1-0.3-5-1.2-7.5c3.2,0.6,4.7,4.1,5.4,6.2
	C157,20.8,155.7,21.2,154.1,21.7z"/>
<path id="wordpress" d="M51.7,8.9C28.3,8.9,9.2,27.9,9.2,51.4c0,23.4,19.1,42.5,42.5,42.5s42.5-19.1,42.5-42.5
	C94.2,27.9,75.1,8.9,51.7,8.9z M13.5,51.4c0-5.5,1.2-10.8,3.3-15.5L35,85.7C22.3,79.5,13.5,66.5,13.5,51.4z M51.7,89.6
	c-3.8,0-7.4-0.5-10.8-1.6l11.5-33.3l11.7,32.2c0.1,0.2,0.2,0.4,0.3,0.5C60.4,88.8,56.2,89.6,51.7,89.6z M57,33.4
	c2.3-0.1,4.4-0.4,4.4-0.4c2.1-0.2,1.8-3.3-0.2-3.2c0,0-6.2,0.5-10.2,0.5c-3.8,0-10.1-0.5-10.1-0.5c-2.1-0.1-2.3,3-0.2,3.2
	c0,0,2,0.2,4,0.4l5.9,16.3l-8.4,25.1L28.3,33.4c2.3-0.1,4.4-0.4,4.4-0.4c2.1-0.2,1.8-3.3-0.2-3.2c0,0-6.2,0.5-10.2,0.5
	c-0.7,0-1.6,0-2.5-0.1C26.6,20,38.4,13.1,51.7,13.1c9.9,0,19,3.8,25.8,10c-0.2,0-0.3,0-0.5,0c-3.8,0-6.4,3.3-6.4,6.8
	c0,3.2,1.8,5.8,3.8,9c1.5,2.5,3.2,5.8,3.2,10.5c0,3.3-1.3,7.1-2.9,12.4l-3.8,12.7L57,33.4L57,33.4z M70.9,84.4l11.7-33.7
	c2.2-5.4,2.9-9.8,2.9-13.7c0-1.4-0.1-2.7-0.3-3.9c3,5.4,4.7,11.7,4.7,18.3C89.9,65.5,82.3,77.8,70.9,84.4z"/>
</svg>
