<?xml version="1.0" encoding="UTF-8"?><svg id="Layer_1" xmlns="http://www.w3.org/2000/svg" viewBox="0 0 165.31 188.22"><defs><style>.cls-1{fill:#00749c;}.cls-2{fill:#25aae1;}.cls-3{fill:#96bf48;}.cls-4{fill:#f46f25;}</style></defs><path class="cls-4" d="M165.31,128.81v39.6l-9.64,5.64v-39.55l-24.09-14.16-24.11,14.16,.06,39.57-9.62-5.66v-39.57l33.73-19.81,33.67,19.78Zm-28.89,45.24l-4.8,2.85-4.83-2.81v-39.58l-9.62,5.66,.02,39.57,14.42,8.49,14.45-8.49v-39.58l-9.64-5.66v39.57h0Z"/><path class="cls-2" d="M142.04,17.66c-5.5-5.83-10.73-11.4-12.29-17.66-1.53,6.26-6.8,11.83-12.3,17.66-8.23,8.75-17.57,18.65-17.57,33.53-.36,17.52,12.72,32.04,29.22,32.42,16.5,.38,30.16-13.51,30.52-31.04,0-.46,0-.92,0-1.38,0-14.87-9.34-24.78-17.57-33.53Zm-26.8,36.42c-.91,1.22-1.7,2.54-2.34,3.94-.1,.23-.28,.39-.51,.45h-.26c-.67,0-1.42-1.38-1.42-1.38h0c-.2-.33-.38-.68-.57-1.04l-.13-.29c-1.73-4.2-.23-10.18-.23-10.18h0c.74-2.91,1.95-5.67,3.57-8.14,.99-1.57,2.07-3.08,3.23-4.52l1.42,1.51,6.69,7.26c.26,.31,.26,.78,0,1.08l-6.99,8.23h0l-2.48,3.07Zm14.85,20.79c-5.71-.03-10.3-4.98-10.27-11.04,.01-2.67,.95-5.25,2.62-7.24,2.18-2.76,4.85-5.46,7.74-9.03,3.43,3.88,5.67,6.55,7.87,9.47,.17,.23,.32,.47,.45,.72,1.2,1.82,1.85,3.98,1.84,6.2,.02,6.01-4.56,10.9-10.22,10.91h-.03Zm19.39-17.45h0c-.13,.46-.5,.8-.95,.87h-.2c-.41-.14-.75-.43-.96-.83h0c-1.79-2.85-3.82-5.53-6.07-7.99l-2.73-3.01-9.08-10.01c-1.91-1.88-3.72-3.86-5.44-5.93-.04-.08-.09-.15-.14-.23-.31-.46-.55-.97-.72-1.51v-.29c-.26-1.66,.27-3.35,1.42-4.52,1.76-1.87,3.53-3.75,5.2-5.71,1.84,2.17,3.81,4.25,5.75,6.31h0c3.96,3.92,7.55,8.25,10.7,12.92,2.66,4.01,4.11,8.78,4.15,13.68-.02,2.11-.33,4.21-.92,6.23Z"/><path class="cls-3" d="M59.21,123.41c-.05-.33-.32-.58-.66-.6-.3,0-5.57-.12-5.57-.12,0,0-3.23-3.11-4.43-4.31v64.74l18.8-4.67s-8.08-54.68-8.14-55.04Zm-14.91-5.03c-.29-.91-.65-1.79-1.08-2.63-1.56-2.99-3.89-4.62-6.65-4.62-.2,0-.4,.01-.6,.06-.06-.12-.18-.18-.24-.3-1.2-1.31-2.75-1.91-4.61-1.86-3.59,.12-7.18,2.69-10.06,7.31-2.04,3.23-3.59,7.31-4.01,10.48-4.13,1.26-7.01,2.16-7.07,2.22-2.09,.66-2.16,.72-2.39,2.69-.18,1.5-5.68,43.66-5.68,43.66l45.27,7.85V117.66c-.22,0-.44,.03-.66,.06,0,0-.84,.24-2.22,.66Zm-8.26,2.58c-2.39,.72-5.03,1.56-7.61,2.34,.72-2.82,2.16-5.63,3.83-7.48,.66-.66,1.56-1.44,2.57-1.92,1.02,2.15,1.26,5.09,1.2,7.06Zm-4.91-9.46c.75-.02,1.5,.16,2.16,.53-.96,.48-1.92,1.26-2.81,2.16-2.28,2.46-4.01,6.28-4.73,9.94-2.16,.66-4.31,1.32-6.28,1.92,1.31-5.74,6.16-14.43,11.67-14.55Zm-6.95,32.94c.24,3.83,10.36,4.67,10.96,13.71,.42,7.13-3.77,11.98-9.82,12.34-7.31,.48-11.32-3.83-11.32-3.83l1.56-6.58s4.01,3.05,7.25,2.82c2.09-.12,2.88-1.86,2.81-3.05-.3-5.03-8.56-4.73-9.1-12.99-.48-6.95,4.07-13.95,14.13-14.61,3.89-.24,5.87,.72,5.87,.72l-2.28,8.62s-2.57-1.2-5.63-.96c-4.43,.3-4.49,3.11-4.43,3.83Zm14.25-24.2c0-1.8-.24-4.37-1.08-6.53,2.76,.54,4.07,3.59,4.67,5.45-1.08,.3-2.28,.66-3.59,1.08Z"/><path class="cls-1" d="M37.35,7.39C16.76,7.39,0,24.14,0,44.74s16.76,37.35,37.35,37.35,37.35-16.76,37.35-37.35S57.94,7.39,37.35,7.39ZM3.77,44.74c0-4.86,1.04-9.49,2.91-13.66l16.02,43.89C11.49,69.52,3.77,58.03,3.77,44.74Zm33.59,33.59c-3.3,0-6.48-.48-9.49-1.37l10.08-29.28,10.32,28.28c.08,.17,.15,.32,.24,.47-3.48,1.22-7.23,1.9-11.15,1.9Zm4.62-49.32c2.02-.11,3.84-.32,3.84-.32,1.81-.21,1.6-2.88-.21-2.77,0,0-5.44,.42-8.95,.42-3.3,0-8.84-.42-8.84-.42-1.81-.11-2.02,2.67-.21,2.77,0,0,1.72,.21,3.52,.32l5.23,14.34-7.35,22.03L16.78,29c2.02-.11,3.84-.32,3.84-.32,1.81-.21,1.6-2.88-.21-2.77,0,0-5.44,.42-8.95,.42-.63,0-1.37-.02-2.17-.05,6.01-9.11,16.33-15.14,28.06-15.14,8.74,0,16.7,3.34,22.68,8.81-.15-.02-.29-.03-.44-.03-3.3,0-5.63,2.88-5.63,5.96,0,2.77,1.6,5.11,3.3,7.88,1.28,2.23,2.77,5.11,2.77,9.26,0,2.88-1.1,6.21-2.56,10.86l-3.34,11.19-12.15-36.09h0Zm12.26,44.76l10.26-29.65c1.91-4.79,2.56-8.61,2.56-12.03,0-1.23-.08-2.38-.23-3.45,2.62,4.79,4.11,10.27,4.11,16.12,0,12.4-6.72,23.21-16.7,29.02Z"/></svg>