<?xml version="1.0" encoding="utf-8"?>
<!-- Generator: Adobe Illustrator 27.0.0, SVG Export Plug-In . SVG Version: 6.00 Build 0)  -->
<svg version="1.1" id="gears" xmlns="http://www.w3.org/2000/svg" xmlns:xlink="http://www.w3.org/1999/xlink" x="0px" y="0px"
	 viewBox="0 0 300 421" style="enable-background:new 0 0 300 421;" xml:space="preserve">
	 	 <style type="text/css">
	@import url(../css/gears.css);
</style>
<path id="gear2" d="M156,105.4l4.7-0.8l6.5-2.7v-4.6l-6.5-2.7l-4.7-0.8l-1.8,0.1l-0.9-7l1.7-0.3l4.3-1.9l5.6-4.3l-1.2-4.4l-7-0.9
	l-4.7,0.5l-1.7,0.6l-2.7-6.5l1.6-0.8l3.7-3l4.3-5.6l-2.3-3.9l-7,0.9l-4.4,1.7l-1.4,1l-4.3-5.6l1.3-1.1l2.8-3.8l2.7-6.5l-3.2-3.2
	l-6.5,2.7l-3.8,2.8l-1.1,1.3l-5.6-4.3l1-1.4l1.7-4.4l0.9-7l-3.9-2.3l-5.6,4.3l-3,3.7l-0.8,1.6l-6.5-2.7l0.6-1.7l0.5-4.7l-0.9-7
	l-4.4-1.2l-4.3,5.6l-2,4.3l-0.3,1.7l-7-0.9l0.1-1.8l-0.8-4.7L87,17.2h-4.6l-2.7,6.5l-0.8,4.7l0.1,1.8l-7,0.9l-0.3-1.7l-1.9-4.3
	l-4.3-5.6l-4.4,1.2l-0.9,7l0.5,4.7l0.6,1.7l-6.2,2.2l-0.8-1.6l-3-3.7l-5.6-4.3L41.8,29l0.9,7l1.7,4.4l1,1.4l-5.6,4.3l-1.1-1.3
	L34.9,42l-6.5-2.7L25,42.7l2.7,6.5l2.8,3.8l1.3,1.1l-4.3,5.6l-1.4-1L21.7,57l-7-0.9L12.4,60l4.3,5.6l3.7,3l1.6,0.8l-2.7,6.5
	l-1.7-0.6l-4.7-0.5l-7,0.9l-1.2,4.6l5.6,4.3l4.3,1.9l1.7,0.3l-0.9,7.1l-1.8-0.1l-4.7,0.8l-6.5,2.7v4.6l6.5,2.7l4.7,0.8l1.8-0.1
	l0.9,7l-1.7,0.3l-4.3,1.9l-5.6,4.3l1.2,4.4l7,0.9l4.7-0.5l1.7-0.6l2.7,6.5l-1.6,0.8l-3.7,3l-4.3,5.6l2.3,3.9l7-0.9l4.4-1.7l1.4-1
	l4.3,5.6l-1.3,1.1l-2.8,3.8l-2.7,6.5l3.2,3.2l6.5-2.7l3.8-2.8l1.1-1.3l5.6,4.3l-1,1.4l-1.7,4.4l-0.9,7l3.9,2.3l5.6-4.3l3-3.7
	l0.8-1.6l6.5,2.7l-0.6,1.7l-0.5,4.7l0.9,7l4.4,1.2l4.3-5.6l1.9-4.3l0.3-1.7l7,0.9l-0.1,1.8l0.8,4.7l2.7,6.5h4.6l2.7-6.5l0.8-4.7
	l-0.1-1.8l7-0.9l0.3,1.7l1.9,4.3l4.3,5.6l4.4-1.2l0.9-7l-0.5-4.7l-0.6-1.7l6.5-2.7l0.8,1.6l3,3.7l5.6,4.3l3.9-2.3l-0.9-7l-1.7-4.4
	l-1-1.4l5.6-4.3l1.1,1.3l3.8,2.8l6.5,2.7l3.2-3.2l-2.7-6.5l-2.8-3.8l-1.3-1.1l4.3-5.6l1.4,1l4.4,1.7l7,0.9l2.3-3.9l-4.3-5.6l-3.7-3
	l-1.6-0.8l2.7-6.5l1.7,0.6l4.7,0.5l7-0.9l1.2-4.4l-5.6-4.3l-4.3-1.9l-1.7-0.3l0.9-7L156,105.4z M84.8,110.8c-6.2,0-11.2-5-11.2-11.2
	s5-11.2,11.2-11.2S96,93.4,96,99.6S91,110.8,84.8,110.8z"/>
<path id="gear1" d="M274.7,148.2l3.1-0.4l6.6-2.9v-4.2l-6.6-2.9l-3.1-0.4l-3.3,0.4l-1.3-7.4l3.2-0.9l2.7-1.6l5-5.2l-1.6-3.9
	l-7.2-0.1l-3,0.8l-2.9,1.6l-4.1-6.2l2.6-2.1l1.9-2.5l2.6-6.7l-3-3l-6.7,2.6l-2.5,1.9l-2.1,2.6l-6.2-4.1l1.6-2.9l0.8-3l-0.1-7.2
	l-3.9-1.6l-5.2,5l-1.6,2.7l-0.9,3.2l-7.3-1.4l0.4-3.3l-0.4-3.1l-2.9-6.6h-4.2l-2.9,6.6l-0.4,3.1l0.4,3.3l-7.3,1.4l-0.9-3.2l-1.6-2.7
	l-5.2-5l-3.9,1.6l-0.1,7.2l0.8,3.1l1.6,2.9l-6.2,4.1l-2.1-2.6l-2.5-1.9l-6.7-2.6l-3,3l2.6,6.7l1.9,2.5l2.6,2.1l-4.1,6.2l-2.9-1.6
	l-3.1-0.8l-7.2,0.1l-1.6,3.9l5,5.2l2.7,1.6l3.2,0.9l-1.4,7.3l-3.3-0.4l-3.1,0.4l-6.6,2.9v4.2l6.6,2.9l3.1,0.4l3.3-0.4l1.4,7.3
	L181,156l-2.7,1.6l-5,5.2l1.6,3.9l7.2,0.1l3-0.8l2.9-1.6l4.1,6.2l-2.6,2.1l-1.9,2.5l-2.6,6.7l3,3l6.7-2.6l2.5-1.9l2.1-2.6l6.2,4.1
	l-1.6,2.9l-0.8,3l0.1,7.2l3.9,1.6l5.2-5l1.6-2.7l0.9-3.2l7.3,1.4l-0.4,3.3l0.4,3.1l2.9,6.6h4.2l2.9-6.6l0.4-3.1l-0.4-3.3l7.3-1.4
	l0.9,3.2l1.6,2.7l5.2,5l3.9-1.6l0.1-7.2l-0.8-3l-1.6-2.9l6.2-4.1l2.1,2.6l2.5,1.9l6.7,2.6l3-3l-2.6-6.7l-1.9-2.5l-2.6-2.1l4.1-6.2
	l2.9,1.6l3,0.8l7.2-0.1l1.6-3.9l-5-5.2l-2.7-1.6l-3.2-0.9l1.4-7.3L274.7,148.2z M227.1,150.2c-4.1,0-7.5-3.4-7.5-7.5
	s3.4-7.5,7.5-7.5s7.5,3.4,7.5,7.5C234.6,146.9,231.2,150.2,227.1,150.2z"/>
<path id="gear3" d="M251,296.5l6.5-2.6v-4.8l-6.5-2.6l-6.4-1.3l-0.5-6.3l6.1-2.4l5.9-3.7l-0.8-4.7l-6.8-1.4l-6.6-0.2l-1.6-6.1
	l5.6-3.4l5.2-4.7l-1.6-4.5l-7-0.2l-6.5,1l-2.7-5.7l4.9-4.3l4.3-5.5l-2.4-4.1l-6.9,1l-6.2,2.1l-3.6-5.2l4.1-5.1l3.3-6.1l-3.1-3.7
	l-6.6,2.2l-5.8,3.1l-4.4-4.4l3.1-5.8l2.2-6.6l-3.7-3.1l-6.1,3.3l-5.1,4.1l-5.2-3.6l2.1-6.2l1-6.9l-4.2-2.4l-5.5,4.3l-4.3,4.9
	l-5.7-2.7l1-6.5l-0.2-7l-4.5-1.6l-4.7,5.2l-3.4,5.6l-6.1-1.6l-0.2-6.6l-1.4-6.8l-4.7-0.8l-3.7,5.9l-2.4,6.1l-6.3-0.5l-1.3-6.4
	l-2.6-6.5h-4.8l-2.6,6.5l-1.3,6.4l-6.3,0.5l-2.4-6.3l-3.7-5.9l-4.7,0.8l-1.4,6.8l-0.2,6.6l-6.1,1.6l-3.4-5.6l-4.7-5.2l-4.5,1.6
	l-0.2,7l1,6.5l-5.7,2.7l-4.4-4.9l-5.5-4.3l-4.2,2.4l1,6.9L77,201l-5.2,3.6l-5.1-4.1l-6.1-3.3l-3.7,3.1l2.2,6.6l3.1,5.8l-4.4,4.4
	L52,214l-6.6-2.2l-3.1,3.7l3.3,6.1l4.1,5.1l-3.6,5.2l-6.2-2.1l-6.9-1l-2.4,4.1l4.3,5.5l4.9,4.3l-2.7,5.7l-6.5-1l-7,0.2l-1.6,4.5
	l5.2,4.7l5.6,3.4l-1.6,6.1l-6.6,0.2l-6.8,1.4l-0.8,4.7l5.9,3.7l6.1,2.4l-0.5,6.4l-6.4,1.3l-6.5,2.6v4.8l6.5,2.6l6.4,1.3L29,304
	l-6.1,2.4l-5.9,3.7l0.8,4.7l6.8,1.4l6.6,0.2l1.6,6.1l-5.6,3.4l-5.2,4.7l1.6,4.5l7,0.2l6.5-1l2.7,5.7l-4.9,4.3l-4.3,5.5l2.4,4.1
	l6.9-1l6.2-2.1l3.6,5.2l-4.1,5.1l-3.3,6.1l3.1,3.7l6.6-2.2l5.8-3.1l4.4,4.4l-3.1,5.8l-2.2,6.6l3.7,3.1l6.1-3.3l5.1-4.1l5.2,3.6
	l-2.1,6.2l-1,6.9l4.2,2.4l5.5-4.3l4.3-4.9l5.7,2.7l-1,6.5l0.2,7l4.5,1.6l4.7-5.2l3.4-5.6l6.1,1.6l0.2,6.6l1.4,6.8l4.7,0.8l3.8-5.8
	l2.4-6.1l6.3,0.5l1.3,6.4l2.6,6.5h4.8l2.6-6.5l1.3-6.4l6.3-0.5l2.4,6.1l3.7,5.9l4.7-0.8l1.4-6.8l0.2-6.6l6.1-1.6l3.4,5.6l4.7,5.2
	l4.5-1.6l0.2-7l-1-6.5l5.7-2.7l4.3,4.9l5.5,4.3l4.2-2.4l-1-6.9l-2.1-6.2l5.2-3.6l5.1,4.1l6.1,3.3l3.7-3.1l-2.2-6.6l-3.1-5.8l4.4-4.4
	l5.8,3.1l6.6,2.2l3.1-3.7l-3.3-6.1l-4.1-5.1l3.6-5.2l6.2,2.1l6.9,1l2.4-4.1l-4.3-5.5l-4.9-4.3l2.7-5.7l6.5,1l7-0.2l1.6-4.5l-5.2-4.7
	l-5.6-3.4l1.6-6.1l6.6-0.2l6.8-1.4l0.8-4.7l-5.9-3.7l-6.1-2.4l0.5-6.3L251,296.5z M136.6,302.6c-6.1,0-11.1-5-11.1-11.1
	s5-11.1,11.1-11.1s11.1,5,11.1,11.1S142.7,302.6,136.6,302.6z"/>
</svg>
