<?xml version="1.0" encoding="utf-8"?>
<!-- Generator: Adobe Illustrator 27.0.0, SVG Export Plug-In . SVG Version: 6.00 Build 0)  -->
<svg version="1.1" id="Graphic" xmlns="http://www.w3.org/2000/svg" xmlns:xlink="http://www.w3.org/1999/xlink" x="0px" y="0px"
	 viewBox="0 0 238.1 70.5" style="enable-background:new 0 0 238.1 70.5;" xml:space="preserve">
	 	 <style type="text/css">
		@import url(../css/header.css);
</style>
<path id="GRA-G" d="M45.2,4l1.2,15h-1.2c-1.2-3.7-2.8-6.6-4.8-8.5c-2.8-2.7-6.5-4.1-10.9-4.1c-6.1,0-10.7,2.4-13.9,7.2
	c-2.6,4.1-4,8.9-4,14.5c0,4.5,0.9,8.7,2.6,12.4c1.8,3.8,4.1,6.5,6.9,8.2c2.8,1.7,5.8,2.6,8.8,2.6c1.8,0,3.5-0.2,5.1-0.7
	c1.6-0.4,3.2-1.1,4.7-2V35c0-2.4-0.2-4-0.5-4.7c-0.4-0.7-0.9-1.3-1.7-1.7c-0.8-0.4-2.1-0.6-4-0.6v-1.3h18.5v1.3h-0.9
	c-1.8,0-3.1,0.6-3.8,1.8c-0.5,0.9-0.7,2.6-0.7,5.1v14.6c-2.7,1.5-5.4,2.5-8,3.2c-2.6,0.7-5.5,1-8.8,1c-9.2,0-16.2-3-21-8.9
	c-3.6-4.4-5.4-9.5-5.4-15.3c0-4.2,1-8.2,3-12.1c2.4-4.6,5.7-8.1,9.8-10.5C19.9,5,24,4,28.7,4c1.7,0,3.3,0.1,4.7,0.4
	c1.4,0.3,3.4,0.9,6,1.9C40.8,6.8,41.7,7,42.1,7c0.4,0,0.8-0.2,1.1-0.6C43.6,6,43.8,5.2,43.9,4H45.2z"/>
<path id="GRA-R" d="M64.6,19.6v7.2c2.7-4.8,5.5-7.2,8.3-7.2c1.3,0,2.4,0.4,3.2,1.2c0.8,0.8,1.3,1.7,1.3,2.7c0,0.9-0.3,1.7-0.9,2.3
	s-1.3,0.9-2.2,0.9c-0.8,0-1.7-0.4-2.8-1.2s-1.8-1.2-2.3-1.2c-0.4,0-0.9,0.2-1.4,0.7c-1.1,1-2.1,2.5-3.3,4.7v15.4
	c0,1.8,0.2,3.1,0.7,4c0.3,0.6,0.8,1.2,1.6,1.6s1.9,0.6,3.3,0.6v1.3H53.8v-1.3c1.6,0,2.9-0.3,3.7-0.8c0.6-0.4,1-1,1.2-1.8
	c0.1-0.4,0.2-1.5,0.2-3.4V33c0-3.7-0.1-6-0.2-6.7c-0.2-0.7-0.4-1.2-0.8-1.6c-0.4-0.3-0.9-0.5-1.5-0.5c-0.7,0-1.5,0.2-2.5,0.5
	l-0.4-1.3l9.7-3.9H64.6z"/>
<path id="GRA-A" d="M97.4,48.1c-3.3,2.6-5.4,4-6.2,4.4c-1.3,0.6-2.6,0.9-4,0.9c-2.2,0-4.1-0.8-5.5-2.3c-1.4-1.5-2.2-3.5-2.2-6
	c0-1.6,0.4-2.9,1.1-4.1c1-1.6,2.6-3.1,5-4.5s6.3-3.1,11.9-5.1v-1.3c0-3.2-0.5-5.4-1.5-6.6s-2.5-1.8-4.4-1.8c-1.5,0-2.6,0.4-3.5,1.2
	c-0.9,0.8-1.3,1.7-1.3,2.7l0.1,2c0,1.1-0.3,1.9-0.8,2.5c-0.6,0.6-1.3,0.9-2.2,0.9c-0.9,0-1.6-0.3-2.1-0.9c-0.6-0.6-0.8-1.4-0.8-2.5
	c0-2,1-3.9,3.1-5.6s5-2.5,8.7-2.5c2.9,0,5.2,0.5,7,1.4c1.4,0.7,2.4,1.9,3.1,3.4c0.4,1,0.6,3.1,0.6,6.2v10.9c0,3.1,0.1,5,0.2,5.6
	c0.1,0.7,0.3,1.2,0.6,1.4c0.3,0.2,0.6,0.4,0.9,0.4c0.4,0,0.7-0.1,1-0.2c0.5-0.3,1.4-1.2,2.8-2.6v2c-2.6,3.5-5.1,5.3-7.5,5.3
	c-1.1,0-2.1-0.4-2.7-1.2S97.5,50,97.4,48.1z M97.4,45.8V33.6c-3.5,1.4-5.8,2.4-6.9,3c-1.9,1-3.2,2.1-4,3.2s-1.2,2.4-1.2,3.7
	c0,1.7,0.5,3.1,1.5,4.2c1,1.1,2.2,1.7,3.5,1.7C92.2,49.3,94.5,48.2,97.4,45.8z"/>
<path id="GRA-P" d="M108.8,23.8l9.9-4h1.3v7.5c1.7-2.8,3.3-4.8,5-6c1.7-1.1,3.4-1.7,5.3-1.7c3.2,0,5.9,1.3,8.1,3.8
	c2.6,3.1,4,7.1,4,12.1c0,5.6-1.6,10.1-4.8,13.8c-2.6,3-5.9,4.5-9.9,4.5c-1.7,0-3.2-0.2-4.5-0.7c-0.9-0.4-2-1.1-3.2-2.1v9.8
	c0,2.2,0.1,3.6,0.4,4.2c0.3,0.6,0.7,1.1,1.4,1.4s1.9,0.5,3.6,0.5v1.3h-16.9v-1.3h0.9c1.3,0,2.4-0.2,3.3-0.7c0.4-0.3,0.8-0.7,1-1.2
	c0.2-0.6,0.4-2,0.4-4.4V30c0-2.1-0.1-3.4-0.3-4s-0.5-1-0.9-1.3s-1-0.4-1.7-0.4c-0.6,0-1.3,0.2-2.1,0.5L108.8,23.8z M120.1,29.3v12
	c0,2.6,0.1,4.3,0.3,5.1c0.3,1.4,1.1,2.6,2.4,3.6c1.3,1,2.9,1.5,4.8,1.5c2.3,0,4.2-0.9,5.7-2.7c1.9-2.4,2.8-5.8,2.8-10.1
	c0-4.9-1.1-8.7-3.2-11.4c-1.5-1.8-3.3-2.7-5.3-2.7c-1.1,0-2.2,0.3-3.3,0.8C123.4,26,122,27.2,120.1,29.3z"/>
<path id="GRA-H" d="M156.6,2.8v23.6c2.6-2.9,4.7-4.7,6.2-5.5s3-1.2,4.6-1.2c1.8,0,3.4,0.5,4.7,1.5c1.3,1,2.3,2.6,2.9,4.7
	c0.4,1.5,0.7,4.2,0.7,8.2v11.4c0,2,0.2,3.4,0.5,4.2c0.2,0.6,0.6,1,1.2,1.3c0.6,0.3,1.6,0.5,3.1,0.5v1.3h-15.8v-1.3h0.7
	c1.5,0,2.5-0.2,3.1-0.7s1-1.1,1.2-2c0.1-0.4,0.1-1.5,0.1-3.3V34.1c0-3.5-0.2-5.8-0.5-6.9c-0.4-1.1-0.9-1.9-1.7-2.5
	c-0.8-0.6-1.8-0.8-2.9-0.8c-1.1,0-2.3,0.3-3.6,0.9c-1.2,0.6-2.7,1.8-4.5,3.7v17c0,2.2,0.1,3.6,0.4,4.1c0.2,0.5,0.7,1,1.4,1.4
	c0.7,0.4,1.8,0.5,3.5,0.5v1.3h-16v-1.3c1.4,0,2.6-0.2,3.4-0.7c0.5-0.2,0.8-0.7,1.1-1.3c0.3-0.7,0.4-2,0.4-4V16.3
	c0-3.7-0.1-5.9-0.3-6.8s-0.4-1.4-0.8-1.7c-0.4-0.3-0.8-0.5-1.5-0.5c-0.5,0-1.3,0.2-2.4,0.6l-0.5-1.2l9.6-3.9H156.6z"/>
<path id="GRA-I" d="M194.2,19.6v25.9c0,2,0.1,3.4,0.4,4s0.7,1.2,1.3,1.5c0.6,0.3,1.6,0.5,3.1,0.5v1.3h-15.6v-1.3
	c1.6,0,2.6-0.2,3.2-0.5c0.5-0.3,1-0.8,1.3-1.5s0.5-2.1,0.5-4V33.1c0-3.5-0.1-5.8-0.3-6.8c-0.2-0.8-0.4-1.3-0.8-1.6
	c-0.4-0.3-0.8-0.4-1.4-0.4c-0.7,0-1.5,0.2-2.4,0.5l-0.5-1.3l9.7-3.9H194.2z M191.3,2.8c1,0,1.8,0.3,2.5,1c0.7,0.7,1,1.5,1,2.5
	s-0.3,1.8-1,2.5s-1.5,1.1-2.5,1.1s-1.8-0.4-2.5-1.1s-1.1-1.5-1.1-2.5s0.3-1.8,1-2.5C189.5,3.1,190.3,2.8,191.3,2.8z"/>
<path id="GRA-C" d="M230.5,40.5c-0.9,4.2-2.6,7.5-5.1,9.8s-5.3,3.4-8.4,3.4c-3.7,0-6.8-1.5-9.6-4.6c-2.7-3.1-4.1-7.2-4.1-12.4
	c0-5.1,1.5-9.2,4.5-12.3s6.6-4.7,10.8-4.7c3.2,0,5.8,0.8,7.8,2.5c2,1.7,3.1,3.4,3.1,5.2c0,0.9-0.3,1.6-0.9,2.2
	c-0.6,0.6-1.4,0.8-2.4,0.8c-1.4,0-2.4-0.4-3.1-1.3c-0.4-0.5-0.7-1.4-0.8-2.8c-0.1-1.4-0.6-2.4-1.4-3.2c-0.8-0.7-2-1.1-3.4-1.1
	c-2.3,0-4.2,0.9-5.7,2.6c-1.9,2.3-2.8,5.3-2.8,9.1c0,3.8,0.9,7.2,2.8,10.2c1.9,2.9,4.4,4.4,7.6,4.4c2.3,0,4.4-0.8,6.2-2.4
	c1.3-1.1,2.5-3,3.8-5.9L230.5,40.5z"/>
</svg>
