<?xml version="1.0" encoding="utf-8"?>
<!-- Generator: Adobe Illustrator 27.0.0, SVG Export Plug-In . SVG Version: 6.00 Build 0)  -->
<svg version="1.1" id="graphic_x5F_adobe" xmlns="http://www.w3.org/2000/svg" xmlns:xlink="http://www.w3.org/1999/xlink" x="0px"
	 y="0px" viewBox="0 0 200 200" style="enable-background:new 0 0 200 200;" xml:space="preserve">
<style type="text/css">
	.st0{fill:#330000;}
</style>
<path id="graphic_x5F_photoshop" d="M91.2,93.1c32.5,0,64.9,0,97.3,0c0,31.6,0,63.2,0,94.8c-32.4,0-64.8,0-97.3,0
	C91.2,156.3,91.2,124.7,91.2,93.1z M113.1,138.7c0,6.7,0,13.4,0,20c0,1,0.3,1.4,1.3,1.3c2.1-0.1,4.2-0.1,6.2,0
	c0.9,0,1.3-0.3,1.2-1.2c0-3.6,0-7.1,0-10.7c0-1.7,0-1.5,1.6-1.6c3.1-0.2,6.3-0.1,9.3-0.8c13-2.9,13.2-17.6,7.5-23.6
	c-3.1-3.2-6.9-4.6-11.2-4.8c-4.8-0.2-9.7,0.1-14.5,0c-1.1,0-1.4,0.4-1.4,1.5C113.1,125.5,113.1,132.1,113.1,138.7z M148.2,151.2
	c0,2.2,0,4.3,0,6.5c0,1,0.4,1.6,1.3,1.8c2.2,0.5,4.3,1.1,6.5,1.3c3.5,0.4,7,0.1,10.2-1.5c3.1-1.6,5-4,5.3-7.6c0.4-3.8-1-6.8-4.4-8.8
	c-1.7-1-3.6-1.7-5.4-2.6c-1.4-0.7-2.8-1.3-4.2-2.1c-0.8-0.4-1.3-1.3-0.9-2.1c0.3-0.6,1-1.1,1.7-1.5c0.5-0.3,1.2-0.2,1.8-0.3
	c2.9-0.1,5.8,0.4,8.5,1.6c1.1,0.5,1.3,0.4,1.3-0.8c0-1.8,0-3.6,0-5.4c0-0.9-0.4-1.4-1.2-1.6c-3.6-1.1-7.3-1.3-11-0.7
	c-1.7,0.3-3.4,0.9-4.8,1.7c-5.3,3.1-6.2,10-1.9,14.4c1.8,1.8,4.1,2.9,6.4,3.8c1.5,0.6,2.9,1.3,4.4,2c0.8,0.4,1.4,1.1,1.2,2.1
	c-0.2,1.1-1,1.5-1.9,1.7c-2.3,0.6-4.6,0.4-6.9-0.2C152.2,152.6,150.3,151.9,148.2,151.2z M121.8,138c0,0.5,0,1,0.7,1
	c2.5-0.2,5.1-0.1,7.5-0.6c3.6-0.8,5-3.1,4.9-7.2c-0.1-2.9-2.1-5.2-5.3-5.7c-2.2-0.4-4.5-0.2-6.7-0.3c-0.9,0-1.1,0.3-1.1,1.1
	c0,1.9,0,3.8,0,5.8C121.8,134,121.8,136,121.8,138z"/>
<path id="graphic_x5F_illustrator" class="st0" d="M12.7,11.7v94.8h82.7h16.1V11.7H12.7z M86.8,62.7c0,4.9,0,9.8,0,14.7
	c0,1.1-0.3,1.4-1.3,1.4c-2.2-0.1-4.4,0-6.6,0c-0.8,0-1.1-0.3-1.1-1.1c0-10.1,0-20.2,0-30.3c0-0.8,0.3-1.1,1.1-1c2.2,0,4.5,0.1,6.7,0
	c1,0,1.3,0.3,1.3,1.3C86.8,52.6,86.8,57.6,86.8,62.7z M82.3,42.9c-3,0-5.1-2.1-5-5.2c0-2.9,2.2-5,5.1-5c3,0,5,2.1,5,5
	C87.5,40.7,85.3,42.9,82.3,42.9z M72,78.5c-2.3,0-4.6-0.1-6.8,0c-1,0-1.5-0.4-1.8-1.3c-0.9-2.7-1.8-5.3-2.7-7.9
	c-0.2-0.7-0.6-0.9-1.3-0.9c-2.2,0-4.5,0-6.7,0c-2.2,0-4.3,0-6.5,0c-0.7,0-1,0.2-1.3,0.9c-0.8,2.7-1.8,5.4-2.6,8.1
	c-0.3,0.8-0.7,1.2-1.5,1.1c-2.1-0.1-4.2,0-6.4,0c-1.3,0-1.4-0.1-1-1.3c2.5-7.3,5.1-14.5,7.6-21.8c1.8-5.2,3.6-10.5,5.4-15.7
	c0.3-0.8,0.5-1.7,0.5-2.6c-0.1-1.1,0.3-1.5,1.4-1.4c2.9,0.1,5.8,0.1,8.6,0c0.9,0,1.3,0.3,1.6,1.1c2.6,7.4,5.2,14.8,7.9,22.2
	c2.1,6,4.3,12,6.4,18C73.5,78.5,73.4,78.5,72,78.5z M57,57.2c0.3,0.9,1.2,2.1,0.6,2.8c-0.4,0.6-1.8,0.2-2.8,0.2c-2.1,0-4.2,0-6.4,0
	c-0.6,0-0.9-0.1-0.6-0.8c1.6-5.1,3.3-10.2,4.7-15.4c0-0.1,0.1-0.1,0.2-0.3C54.2,48.3,55.6,52.8,57,57.2z"/>
</svg>
