<?xml version="1.0" encoding="utf-8"?>
<!-- Generator: Adobe Illustrator 27.0.0, SVG Export Plug-In . SVG Version: 6.00 Build 0)  -->
<svg version="1.1" id="logo_x5F_svg" xmlns="http://www.w3.org/2000/svg" xmlns:xlink="http://www.w3.org/1999/xlink" x="0px"
	 y="0px" viewBox="0 0 612 792" style="enable-background:new 0 0 612 792;" xml:space="preserve">

<path id="k1" d="M534.7,291.9c-0.6,0.6-1.1,1.1-1.7,1.7c-1.4-2.2-2.5-4.8-4.4-6.6c-12.8-12-28.3-13.6-44.6-10.3
	c-2.8,0.6-6,3.8-7.1,6.5c-6.6,16.4-12.6,33.1-18.8,49.7c-6.3,16.8-12.8,33.6-19.1,50.4c-6.2,16.4-12.2,32.9-18.3,49.3
	c-5.3,14.3-10.6,28.6-16.3,42.7c-0.7,1.7-4.3,2.2-6.6,3.3c-0.7-1.8-2.4-3.9-1.9-5.3c5.1-14,10.7-27.8,15.9-41.8
	c6.9-18.6,13.4-37.5,20.5-56c9.9-25.8,20.2-51.4,30.2-77.2c1.8-4.6,2.9-9.4,4.6-15.1c-19.6,12-33.3,28.1-45.9,45.4
	c-13.1,17.8-26.2,35.7-42.9,50.6c-11.1,9.8-23.5,17.6-37,23.5c-1.7,0.7-3.7,0.6-5.4,0.8c4.1,5.3,8.7,9.9,11.6,15.4
	c4.2,8.1,5.1,17.1,4.3,26.3c-1,10.6-1.2,21.3-1.9,31.9c-0.5,6.9-1.6,13.8-1.7,20.8c-0.3,15.2,14.1,30.5,31.7,25
	c7.4-2.3,7.6-1.8,20.9-12c-0.4,3.1,0,5.2-0.8,6.2c-6.8,7.8-15.8,11.7-25.9,12.4c-9.1,0.6-17.6-3.1-24.5-8.1
	c-7.2-5.3-13.2-12.6-16.5-21.4c-5.9-15.7-4.3-31.4-1.2-47.3c1.8-9,3.8-18.1,4.4-27.2c0.5-6.7-1.4-13.6-7.1-18.3
	c-1-0.8-3.2-0.7-4.7-0.3c-6.5,1.7-13,2.5-19.6,0.4c-0.4-0.1-0.5-1.4-1.1-3.5c-5.2,14.3-9.8,27.6-14.9,40.7
	c-3,7.5-6.3,15.1-10.7,21.9c-7.1,11.1-13.9,22.7-23,32c-11.4,11.5-24.6,21.5-37.9,30.9c-8.8,6.2-19,10.4-28.7,15.1
	c-11.4,5.5-23.8,6.7-36.2,7.9l-8.8,0c-16.1-2.4-31.3-6.2-38.9-22.9c-1.3-2.8-1.4-4.6-2.3-7.6c0-2-0.4-7.3,0.2-9.1
	c1.4-5.1,2.7-6.5,6.3-10.2c1.3-1.3,3-2.4,4.9-3.2c-5.2,7.2-8.1,14.9-5.9,23.6c1.8,7.2,6.4,12.4,12.6,16.9c7.7,5.6,16.4,6.9,25.1,7.6
	c7.1,0.6,14.8-0.7,22-1.9c3.5-0.6,5.6-1.4,10.1-2.6c15.6-3.4,28.3-13,39-24.2c10-10.5,19.8-21.6,27.6-33.7
	c8.3-13,14.3-27.4,21.1-41.3c6.8-14,13.2-28.3,20.2-42.2c6-12.1,12-24.2,19.1-35.6c6.7-10.6,14.7-20.4,22.4-30.4
	c9.8-12.8,22.7-21.9,36.7-29.6c1.2-0.6,2.7-0.7,4.1-1c0.3,0.7,0.6,1.4,0.9,2.1c-6,4.5-12.4,8.5-17.7,13.7
	c-6.2,6.1-12.3,12.7-16.9,20c-6.8,11-12.6,22.6-18.2,34.3c-4,8.4-7,17.3-10.4,25.9c6,0.5,11.9,1.9,17.6,1.2
	c6.2-0.7,12.6-2.6,18.2-5.4c14.1-7.1,24.4-18.9,34.3-30.7c12.6-15,23.8-31.2,36.7-45.8c11.8-13.3,24-26.5,40.2-34.9
	c5.8-3,12.3-4.9,17.6-8.6c2.7-1.9,3.4-6.7,4.7-10.3c5.3-14.1,10.5-28.2,15.8-42.3c5.8-15.6,11.7-31.1,17.4-46.7
	c0.4-1.1-0.5-2.7-0.9-4c-1.5-4.7,0.8-10.1,4.8-11.1c5.1-1.3,12.1,1.7,12.3,6c0.1,2.8-1.4,7.5-3.4,8.3c-4.2,1.7-5.1,4.8-6.4,8.2
	c-10.7,28.5-21.4,56.9-32.5,86.4c3.4-0.2,6.6-0.2,9.7-0.7C508.4,267,528.9,275.2,534.7,291.9z M411.5,222.4
	c9.9,14.7,18.9,30.2,33.8,40.5c7.7,5.3,16.7,6,25.8,4.7c0.9-0.1,1.9-1.3,2.3-2.2c1.1-2.4,2-5,3-7.5c7.2-18.6,14.4-37.2,21.5-55.9
	c2.1-5.5,4.1-11,6.7-18.2c-3.5,1.5-5.2,2.2-6.9,3c-16.3,7.7-33.1,10.1-50.2,3.1c-12.5-5.1-24.9-10.6-37.2-16.3
	c-16.4-7.6-32.9-6.9-49.6-1.1c-1.5,0.5-2.8,2.1-3.6,2.7c6.5,2.2,12.9,3.2,18,6.2C391.7,191.1,401.3,207.1,411.5,222.4z"/>
</svg>
