<?xml version="1.0" encoding="utf-8"?>
<!-- Generator: Adobe Illustrator 27.0.0, SVG Export Plug-In . SVG Version: 6.00 Build 0)  -->
<svg version="1.1" id="photo_x5F_graphy" xmlns="http://www.w3.org/2000/svg" xmlns:xlink="http://www.w3.org/1999/xlink" x="0px"
	 y="0px" viewBox="0 0 200 200" style="enable-background:new 0 0 200 200;" xml:space="preserve">
<path id="photo_x5F_camera" d="M47.6,10.2l-2.3,7H28.6c-7.9,0-14.3,6.4-14.3,14.3v57.1c0,7.9,6.4,14.3,14.3,14.3h85.7
	c7.9,0,14.3-6.4,14.3-14.3V31.4c0-7.9-6.4-14.3-14.3-14.3H97.7l-2.3-7c-1.5-4.4-5.5-7.3-10.2-7.3H57.8C53.1,2.9,49.1,5.8,47.6,10.2z
	 M71.5,81.4C59.6,81.4,50,71.8,50,60s9.6-21.4,21.4-21.4S92.9,48.2,92.9,60S83.3,81.4,71.5,81.4z"/>
<path id="photo_x5F_light" d="M191.2,188.6c-34.2,0-68.3,0-102.5,0c0-33.4,0-66.7,0-100.1c34.2,0,68.3,0,102.5,0
	C191.2,121.9,191.2,155.3,191.2,188.6z M124.2,150.6c0-0.7,0-1.2,0-1.7c0-11.1,0-22.2,0-33.2c0-1.1-0.3-1.4-1.4-1.4
	c-2.2,0.1-4.3,0.1-6.5,0c-1.3-0.1-1.5,0.4-1.5,1.6c0,8.8,0,17.5,0,26.3c0,5.2,0,10.5,0,15.7c0,0.7,0,1.3,1,1.3c8.7,0,17.4,0,26.2,0
	c0.8,0,1-0.3,1.1-1c0.3-2,0.6-4,1-6c0.3-1.5,0.3-1.5-1.2-1.5c-5.1,0-10.2,0-15.2,0C126.6,150.6,125.5,150.6,124.2,150.6z
	 M158.4,129.4c-0.2-1-0.3-2.1-0.5-3.1c-0.2-0.8-0.7-1.2-1.7-1.2c-2,0.1-4.1,0-6.1,0c-0.9,0-1.1,0.3-1.1,1.1c0.1,2.6,0.2,5.1,0.3,7.7
	c0,8,0,15.9,0,23.9c0,1.1,0.4,1.5,1.4,1.4c2.2-0.1,4.3-0.1,6.5,0c1.3,0.1,1.6-0.4,1.5-1.6c0-6.4,0-12.8-0.1-19.2
	c0-1.4,0.5-2.2,1.7-2.8c2.6-1.3,5.3-1.9,8.1-1.8c1.1,0,1.4-0.4,1.4-1.4c-0.1-2.2-0.1-4.4,0-6.6c0-1.1-0.3-1.5-1.4-1.4
	c-2.3,0.2-4.5,0.8-6.4,2.1C160.7,127.4,159.6,128.4,158.4,129.4z"/>
</svg>
