<?xml version="1.0" encoding="utf-8"?>
<!-- Generator: Adobe Illustrator 27.0.0, SVG Export Plug-In . SVG Version: 6.00 Build 0)  -->
<svg version="1.1" id="check_x5F_list" xmlns="http://www.w3.org/2000/svg" xmlns:xlink="http://www.w3.org/1999/xlink" x="0px"
	 y="0px" viewBox="0 0 500 500" style="enable-background:new 0 0 500 500;" xml:space="preserve">
<style type="text/css">
	.st0{fill:none;stroke:#231F20;stroke-width:3;stroke-miterlimit:10;}
	.st1{fill:none;stroke:#23B320;stroke-width:3;stroke-miterlimit:10;}
</style>
<path id="Board" class="st0" d="M354,95v323.4H128.9V95H354z M297.5,89.8v24.4h-112V89.8c0-5.7,4.6-10.3,10.3-10.3h21.1
	c-0.2-1-0.3-1.9-0.3-2.9c0-10.2,11.1-18.4,24.9-18.4c13.7,0,24.9,8.2,24.9,18.4c0,1-0.1,2-0.3,2.9h21.1
	C292.8,79.4,297.5,84,297.5,89.8z M251.8,76.5c0-5.7-4.6-10.3-10.3-10.3c-5.7,0-10.3,4.6-10.3,10.3s4.6,10.3,10.3,10.3
	C247.2,86.8,251.8,82.2,251.8,76.5z"/>
<g id="texts">
	<path d="M218,178l0.5,8.1H218c-0.7-2.4-1.8-4.2-3.1-5.2s-3-1.6-4.9-1.6c-1.6,0-3,0.4-4.3,1.2s-2.3,2.1-3,3.8s-1.1,3.9-1.1,6.6
		c0,2.2,0.3,4,1,5.6s1.7,2.8,3.1,3.6s3,1.3,4.8,1.3c1.5,0,2.9-0.3,4.1-1s2.5-2,3.9-3.9l0.5,0.4c-1.2,2.1-2.6,3.7-4.2,4.7
		s-3.5,1.5-5.7,1.5c-3.9,0-7-1.5-9.2-4.4c-1.6-2.2-2.4-4.7-2.4-7.7c0-2.4,0.5-4.6,1.6-6.6s2.5-3.5,4.4-4.6s3.9-1.6,6.1-1.6
		c1.7,0,3.4,0.4,5.1,1.3c0.5,0.3,0.8,0.4,1.1,0.4c0.3,0,0.6-0.1,0.8-0.3c0.3-0.3,0.5-0.8,0.7-1.3H218z M229.3,185.8
		c2.4,0,4.4,0.9,5.9,2.8c1.3,1.6,1.9,3.4,1.9,5.4c0,1.4-0.3,2.9-1,4.4s-1.6,2.6-2.9,3.3s-2.6,1.1-4.1,1.1c-2.4,0-4.4-1-5.8-2.9
		c-1.2-1.6-1.8-3.5-1.8-5.5c0-1.5,0.4-2.9,1.1-4.4s1.7-2.5,2.9-3.2S228,185.8,229.3,185.8z M228.8,187c-0.6,0-1.2,0.2-1.9,0.6
		s-1.1,1-1.5,1.9s-0.6,2.1-0.6,3.6c0,2.3,0.5,4.4,1.4,6.1s2.2,2.5,3.7,2.5c1.1,0,2.1-0.5,2.8-1.4s1.1-2.5,1.1-4.8
		c0-2.9-0.6-5.1-1.8-6.8C231.1,187.5,230.1,187,228.8,187z M244.1,189.3c1.9-2.3,3.7-3.4,5.4-3.4c0.9,0,1.6,0.2,2.3,0.7
		s1.1,1.2,1.5,2.2c0.3,0.7,0.4,1.8,0.4,3.2v6.9c0,1,0.1,1.7,0.2,2.1c0.1,0.3,0.3,0.5,0.6,0.7s0.8,0.2,1.6,0.2v0.6h-8v-0.6h0.3
		c0.8,0,1.3-0.1,1.6-0.3s0.5-0.6,0.6-1c0-0.2,0.1-0.7,0.1-1.7v-6.6c0-1.5-0.2-2.5-0.6-3.2s-1-1-1.9-1c-1.4,0-2.8,0.8-4.2,2.3v8.5
		c0,1.1,0.1,1.8,0.2,2c0.2,0.3,0.4,0.6,0.7,0.7s0.9,0.2,1.7,0.2v0.6h-8v-0.6h0.4c0.8,0,1.4-0.2,1.7-0.6s0.4-1.2,0.4-2.4v-6
		c0-1.9,0-3.1-0.1-3.5s-0.2-0.7-0.4-0.9s-0.4-0.2-0.7-0.2c-0.3,0-0.7,0.1-1.2,0.3l-0.3-0.6l4.9-2h0.8V189.3z M262.1,181v5.3h3.8v1.2
		h-3.8V198c0,1,0.1,1.7,0.4,2.1s0.7,0.5,1.2,0.5c0.4,0,0.8-0.1,1.1-0.4s0.6-0.6,0.8-1.1h0.7c-0.4,1.1-1,2-1.7,2.6s-1.5,0.9-2.3,0.9
		c-0.5,0-1.1-0.1-1.6-0.4s-0.9-0.7-1.1-1.3s-0.4-1.4-0.4-2.6v-10.8h-2.5V187c0.6-0.3,1.3-0.7,2-1.3s1.3-1.3,1.8-2.2
		c0.3-0.4,0.6-1.3,1.1-2.4H262.1z M270.1,192.4c0,2.4,0.6,4.3,1.7,5.6s2.5,2,4.1,2c1.1,0,2-0.3,2.8-0.9s1.4-1.6,2-3l0.5,0.4
		c-0.2,1.6-1,3.1-2.1,4.4s-2.7,2-4.4,2c-1.9,0-3.6-0.8-5-2.3s-2.1-3.5-2.1-6.1c0-2.8,0.7-4.9,2.1-6.4s3.2-2.3,5.3-2.3
		c1.8,0,3.3,0.6,4.4,1.8s1.7,2.8,1.7,4.8H270.1z M270.1,191.4h7.5c-0.1-1-0.2-1.8-0.4-2.2c-0.3-0.7-0.7-1.2-1.3-1.5
		s-1.2-0.6-1.8-0.6c-1,0-1.8,0.4-2.6,1.1S270.3,190,270.1,191.4z M288.1,189.3c1.9-2.3,3.7-3.4,5.4-3.4c0.9,0,1.6,0.2,2.3,0.7
		s1.1,1.2,1.5,2.2c0.3,0.7,0.4,1.8,0.4,3.2v6.9c0,1,0.1,1.7,0.2,2.1c0.1,0.3,0.3,0.5,0.6,0.7s0.8,0.2,1.6,0.2v0.6h-8v-0.6h0.3
		c0.8,0,1.3-0.1,1.6-0.3s0.5-0.6,0.6-1c0-0.2,0.1-0.7,0.1-1.7v-6.6c0-1.5-0.2-2.5-0.6-3.2s-1-1-1.9-1c-1.4,0-2.8,0.8-4.2,2.3v8.5
		c0,1.1,0.1,1.8,0.2,2c0.2,0.3,0.4,0.6,0.7,0.7s0.9,0.2,1.7,0.2v0.6h-8v-0.6h0.4c0.8,0,1.4-0.2,1.7-0.6s0.4-1.2,0.4-2.4v-6
		c0-1.9,0-3.1-0.1-3.5s-0.2-0.7-0.4-0.9s-0.4-0.2-0.7-0.2c-0.3,0-0.7,0.1-1.2,0.3l-0.3-0.6l4.9-2h0.8V189.3z M306.1,181v5.3h3.8v1.2
		h-3.8V198c0,1,0.1,1.7,0.4,2.1s0.7,0.5,1.2,0.5c0.4,0,0.8-0.1,1.1-0.4s0.6-0.6,0.8-1.1h0.7c-0.4,1.1-1,2-1.7,2.6s-1.5,0.9-2.3,0.9
		c-0.5,0-1.1-0.1-1.6-0.4s-0.9-0.7-1.1-1.3s-0.4-1.4-0.4-2.6v-10.8h-2.5V187c0.6-0.3,1.3-0.7,2-1.3s1.3-1.3,1.8-2.2
		c0.3-0.4,0.6-1.3,1.1-2.4H306.1z"/>
	<path d="M196.9,243v-0.7h0.9c1,0,1.7-0.3,2.1-1c0.3-0.4,0.4-1.3,0.4-2.6v-15.4c0-1.5-0.2-2.4-0.5-2.8c-0.5-0.5-1.1-0.8-2-0.8h-0.9
		v-0.7h9.7c3.6,0,6.3,0.4,8.1,1.2s3.4,2.2,4.5,4s1.7,4.1,1.7,6.5c0,3.3-1,6.1-3,8.3c-2.3,2.5-5.7,3.7-10.3,3.7H196.9z M203.7,241.3
		c1.5,0.3,2.7,0.5,3.7,0.5c2.7,0,5-1,6.8-2.9s2.7-4.5,2.7-7.8c0-3.3-0.9-5.9-2.7-7.8s-4.1-2.8-6.9-2.8c-1.1,0-2.3,0.2-3.6,0.5V241.3
		z M226.1,232.9c0,2.4,0.6,4.3,1.7,5.6s2.5,2,4.1,2c1.1,0,2-0.3,2.8-0.9s1.4-1.6,2-3l0.5,0.4c-0.2,1.6-1,3.1-2.1,4.4s-2.7,2-4.4,2
		c-1.9,0-3.6-0.8-5-2.3s-2.1-3.5-2.1-6.1c0-2.8,0.7-4.9,2.1-6.4s3.2-2.3,5.3-2.3c1.8,0,3.3,0.6,4.4,1.8s1.7,2.8,1.7,4.8H226.1z
		 M226.1,231.9h7.5c-0.1-1-0.2-1.8-0.4-2.2c-0.3-0.7-0.7-1.2-1.3-1.5s-1.2-0.6-1.8-0.6c-1,0-1.8,0.4-2.6,1.1
		S226.3,230.6,226.1,231.9z M249.8,226.4v5.5h-0.6c-0.4-1.7-1-2.9-1.7-3.5s-1.6-0.9-2.7-0.9c-0.8,0-1.5,0.2-2,0.7s-0.8,0.9-0.8,1.4
		c0,0.7,0.2,1.2,0.6,1.7c0.4,0.5,1.1,1,2.2,1.5l2.6,1.2c2.4,1.2,3.6,2.7,3.6,4.6c0,1.5-0.6,2.6-1.7,3.5s-2.3,1.3-3.7,1.3
		c-1,0-2.1-0.2-3.4-0.5c-0.4-0.1-0.7-0.2-0.9-0.2c-0.3,0-0.5,0.2-0.6,0.5h-0.6v-5.7h0.6c0.3,1.6,1,2.9,1.9,3.7s2,1.2,3.1,1.2
		c0.8,0,1.5-0.2,2-0.7s0.8-1,0.8-1.7c0-0.8-0.3-1.5-0.9-2s-1.7-1.2-3.4-2.1s-2.8-1.6-3.3-2.3c-0.5-0.7-0.8-1.5-0.8-2.5
		c0-1.3,0.5-2.4,1.4-3.3s2.1-1.3,3.5-1.3c0.6,0,1.4,0.1,2.3,0.4c0.6,0.2,1,0.3,1.2,0.3c0.2,0,0.3,0,0.4-0.1s0.2-0.3,0.4-0.5H249.8z
		 M259,226.4v12.9c0,1,0.1,1.7,0.2,2s0.4,0.6,0.7,0.7s0.8,0.2,1.6,0.2v0.6h-7.8v-0.6c0.8,0,1.3-0.1,1.6-0.2s0.5-0.4,0.6-0.8
		s0.2-1,0.2-2v-6.2c0-1.7-0.1-2.9-0.2-3.4c-0.1-0.4-0.2-0.6-0.4-0.8s-0.4-0.2-0.7-0.2c-0.3,0-0.7,0.1-1.2,0.3l-0.2-0.6l4.9-2H259z
		 M257.5,218c0.5,0,0.9,0.2,1.3,0.5s0.5,0.8,0.5,1.3s-0.2,0.9-0.5,1.3s-0.8,0.5-1.3,0.5s-0.9-0.2-1.3-0.5s-0.5-0.8-0.5-1.3
		s0.2-0.9,0.5-1.3S257,218,257.5,218z M267.7,237.1c-1-0.5-1.7-1.2-2.3-2s-0.8-1.8-0.8-2.9c0-1.6,0.6-3,1.8-4.1s2.7-1.7,4.6-1.7
		c1.5,0,2.9,0.4,4,1.1h3.4c0.5,0,0.8,0,0.9,0s0.1,0.1,0.2,0.1c0.1,0.1,0.1,0.3,0.1,0.6c0,0.3,0,0.5-0.1,0.6c0,0.1-0.1,0.1-0.2,0.1
		s-0.4,0.1-0.9,0.1h-2.1c0.7,0.8,1,1.9,1,3.2c0,1.5-0.6,2.8-1.7,3.8s-2.7,1.6-4.6,1.6c-0.8,0-1.6-0.1-2.4-0.4
		c-0.5,0.4-0.9,0.8-1,1.2s-0.3,0.6-0.3,0.9c0,0.2,0.1,0.4,0.3,0.6s0.6,0.3,1.1,0.4c0.3,0,1.1,0.1,2.5,0.1c2.4,0.1,4,0.1,4.7,0.2
		c1.1,0.2,2,0.6,2.6,1.2s1,1.5,1,2.4c0,1.3-0.6,2.6-1.9,3.7c-1.8,1.7-4.2,2.6-7.2,2.6c-2.3,0-4.2-0.5-5.7-1.5
		c-0.9-0.6-1.3-1.2-1.3-1.8c0-0.3,0.1-0.6,0.2-0.8c0.2-0.4,0.6-1,1.2-1.8c0.1-0.1,0.7-0.7,1.8-1.9c-0.6-0.4-1-0.7-1.3-1
		s-0.4-0.6-0.4-1c0-0.4,0.2-0.9,0.5-1.4S266.5,238.1,267.7,237.1z M267.5,243c-0.6,0.6-1,1.2-1.2,1.7s-0.4,1-0.4,1.4
		c0,0.6,0.3,1.1,1,1.5c1.2,0.7,2.9,1.1,5.1,1.1c2.1,0,3.7-0.4,4.7-1.1c1-0.7,1.5-1.5,1.5-2.4c0-0.6-0.3-1-0.9-1.3
		c-0.6-0.3-1.8-0.4-3.6-0.5C271,243.3,269,243.2,267.5,243z M270.8,227.2c-0.9,0-1.6,0.3-2.2,1s-0.9,1.8-0.9,3.2
		c0,1.9,0.4,3.3,1.2,4.3c0.6,0.8,1.4,1.2,2.3,1.2c0.9,0,1.6-0.3,2.2-1s0.9-1.7,0.9-3.1c0-1.9-0.4-3.3-1.2-4.4
		C272.5,227.6,271.7,227.2,270.8,227.2z M286.1,229.8c1.9-2.3,3.7-3.4,5.4-3.4c0.9,0,1.6,0.2,2.3,0.7s1.1,1.2,1.5,2.2
		c0.3,0.7,0.4,1.8,0.4,3.2v6.9c0,1,0.1,1.7,0.2,2.1c0.1,0.3,0.3,0.5,0.6,0.7s0.8,0.2,1.6,0.2v0.6h-8v-0.6h0.3c0.8,0,1.3-0.1,1.6-0.3
		s0.5-0.6,0.6-1c0-0.2,0.1-0.7,0.1-1.7v-6.6c0-1.5-0.2-2.5-0.6-3.2s-1-1-1.9-1c-1.4,0-2.8,0.8-4.2,2.3v8.5c0,1.1,0.1,1.8,0.2,2
		c0.2,0.3,0.4,0.6,0.7,0.7s0.9,0.2,1.7,0.2v0.6h-8v-0.6h0.4c0.8,0,1.4-0.2,1.7-0.6s0.4-1.2,0.4-2.4v-6c0-1.9,0-3.1-0.1-3.5
		s-0.2-0.7-0.4-0.9s-0.4-0.2-0.7-0.2c-0.3,0-0.7,0.1-1.2,0.3l-0.3-0.6l4.9-2h0.8V229.8z"/>
	<path d="M203.7,272.4v6.9c0,1.5,0.2,2.4,0.5,2.8c0.4,0.5,1.1,0.8,2,0.8h0.9v0.7h-10.2v-0.7h0.9c1,0,1.7-0.3,2.2-1
		c0.2-0.4,0.4-1.2,0.4-2.6v-15.4c0-1.5-0.2-2.4-0.5-2.8c-0.5-0.5-1.1-0.8-2-0.8h-0.9v-0.7h8.7c2.1,0,3.8,0.2,5,0.7s2.3,1.2,3.1,2.2
		s1.3,2.3,1.3,3.7c0,1.9-0.6,3.5-1.9,4.7s-3.1,1.8-5.4,1.8c-0.6,0-1.2,0-1.9-0.1S204.4,272.5,203.7,272.4z M203.7,271.4
		c0.6,0.1,1.2,0.2,1.7,0.3s0.9,0.1,1.2,0.1c1.2,0,2.3-0.5,3.2-1.4s1.3-2.2,1.3-3.7c0-1-0.2-2-0.6-2.9s-1-1.5-1.8-2s-1.7-0.7-2.6-0.7
		c-0.6,0-1.4,0.1-2.3,0.3V271.4z M222.2,267v3.6c1.3-2.4,2.7-3.6,4.1-3.6c0.6,0,1.2,0.2,1.6,0.6s0.6,0.8,0.6,1.4
		c0,0.5-0.2,0.8-0.5,1.2s-0.7,0.5-1.1,0.5c-0.4,0-0.9-0.2-1.4-0.6s-0.9-0.6-1.1-0.6c-0.2,0-0.4,0.1-0.7,0.4
		c-0.5,0.5-1.1,1.3-1.6,2.4v7.7c0,0.9,0.1,1.6,0.3,2c0.2,0.3,0.4,0.6,0.8,0.8s0.9,0.3,1.7,0.3v0.6h-8.2v-0.6c0.8,0,1.4-0.1,1.8-0.4
		c0.3-0.2,0.5-0.5,0.6-0.9c0.1-0.2,0.1-0.8,0.1-1.7v-6.2c0-1.9,0-3-0.1-3.3s-0.2-0.6-0.4-0.8s-0.5-0.2-0.8-0.2
		c-0.4,0-0.8,0.1-1.2,0.3l-0.2-0.6l4.9-2H222.2z M237.3,267c2.4,0,4.4,0.9,5.9,2.8c1.3,1.6,1.9,3.4,1.9,5.4c0,1.4-0.3,2.9-1,4.4
		s-1.6,2.6-2.9,3.3s-2.6,1.1-4.1,1.1c-2.4,0-4.4-1-5.8-2.9c-1.2-1.6-1.8-3.5-1.8-5.5c0-1.5,0.4-2.9,1.1-4.4s1.7-2.5,2.9-3.2
		S236,267,237.3,267z M236.8,268.1c-0.6,0-1.2,0.2-1.9,0.6s-1.1,1-1.5,1.9s-0.6,2.1-0.6,3.6c0,2.3,0.5,4.4,1.4,6.1s2.2,2.5,3.7,2.5
		c1.1,0,2.1-0.5,2.8-1.4s1.1-2.5,1.1-4.8c0-2.9-0.6-5.1-1.8-6.8C239.1,268.7,238.1,268.1,236.8,268.1z M252.1,262.1v5.3h3.8v1.2
		h-3.8v10.4c0,1,0.1,1.7,0.4,2.1s0.7,0.5,1.2,0.5c0.4,0,0.8-0.1,1.1-0.4s0.6-0.6,0.8-1.1h0.7c-0.4,1.1-1,2-1.7,2.6s-1.5,0.9-2.3,0.9
		c-0.5,0-1.1-0.1-1.6-0.4s-0.9-0.7-1.1-1.3s-0.4-1.4-0.4-2.6v-10.8h-2.5v-0.6c0.6-0.3,1.3-0.7,2-1.3s1.3-1.3,1.8-2.2
		c0.3-0.4,0.6-1.3,1.1-2.4H252.1z M265.3,267c2.4,0,4.4,0.9,5.9,2.8c1.3,1.6,1.9,3.4,1.9,5.4c0,1.4-0.3,2.9-1,4.4s-1.6,2.6-2.9,3.3
		s-2.6,1.1-4.1,1.1c-2.4,0-4.4-1-5.8-2.9c-1.2-1.6-1.8-3.5-1.8-5.5c0-1.5,0.4-2.9,1.1-4.4s1.7-2.5,2.9-3.2S264,267,265.3,267z
		 M264.8,268.1c-0.6,0-1.2,0.2-1.9,0.6s-1.1,1-1.5,1.9s-0.6,2.1-0.6,3.6c0,2.3,0.5,4.4,1.4,6.1s2.2,2.5,3.7,2.5
		c1.1,0,2.1-0.5,2.8-1.4s1.1-2.5,1.1-4.8c0-2.9-0.6-5.1-1.8-6.8C267.1,268.7,266.1,268.1,264.8,268.1z M280.1,262.1v5.3h3.8v1.2
		h-3.8v10.4c0,1,0.1,1.7,0.4,2.1s0.7,0.5,1.2,0.5c0.4,0,0.8-0.1,1.1-0.4s0.6-0.6,0.8-1.1h0.7c-0.4,1.1-1,2-1.7,2.6s-1.5,0.9-2.3,0.9
		c-0.5,0-1.1-0.1-1.6-0.4s-0.9-0.7-1.1-1.3s-0.4-1.4-0.4-2.6v-10.8h-2.5v-0.6c0.6-0.3,1.3-0.7,2-1.3c0.7-0.6,1.3-1.3,1.8-2.2
		c0.3-0.4,0.6-1.3,1.1-2.4H280.1z M284.5,267.4h7.5v0.7h-0.4c-0.5,0-0.9,0.1-1.2,0.3s-0.4,0.5-0.4,0.9c0,0.5,0.2,1.1,0.6,1.9
		l3.9,8.1l3.6-8.9c0.2-0.5,0.3-1,0.3-1.4c0-0.2,0-0.4-0.1-0.5c-0.1-0.1-0.2-0.2-0.4-0.3s-0.6-0.1-1.1-0.1v-0.7h5.2v0.7
		c-0.4,0-0.8,0.1-1,0.3s-0.5,0.4-0.8,0.8c-0.1,0.2-0.3,0.6-0.6,1.4l-6.6,16.1c-0.6,1.6-1.5,2.7-2.5,3.5s-2,1.2-3,1.2
		c-0.7,0-1.3-0.2-1.7-0.6s-0.7-0.9-0.7-1.4c0-0.5,0.2-0.9,0.5-1.2s0.8-0.4,1.3-0.4c0.4,0,0.9,0.1,1.6,0.4c0.5,0.2,0.8,0.3,0.9,0.3
		c0.4,0,0.7-0.2,1.2-0.5s0.8-1.1,1.3-2.1l1.1-2.8l-5.8-12.1c-0.2-0.4-0.5-0.8-0.8-1.4c-0.3-0.4-0.5-0.7-0.7-0.8
		c-0.3-0.2-0.7-0.4-1.3-0.5V267.4z M302.3,269l5-2h0.7v3.8c0.8-1.4,1.7-2.4,2.5-3s1.7-0.9,2.6-0.9c1.6,0,3,0.6,4,1.9
		c1.3,1.5,2,3.6,2,6c0,2.8-0.8,5.1-2.4,6.9c-1.3,1.5-3,2.2-5,2.2c-0.9,0-1.6-0.1-2.2-0.4c-0.5-0.2-1-0.5-1.6-1.1v4.9
		c0,1.1,0.1,1.8,0.2,2.1s0.4,0.5,0.7,0.7s0.9,0.3,1.8,0.3v0.7h-8.4v-0.7h0.4c0.6,0,1.2-0.1,1.7-0.4c0.2-0.1,0.4-0.3,0.5-0.6
		s0.2-1,0.2-2.2v-15.2c0-1,0-1.7-0.1-2s-0.2-0.5-0.4-0.6s-0.5-0.2-0.8-0.2c-0.3,0-0.6,0.1-1.1,0.2L302.3,269z M307.9,271.8v6
		c0,1.3,0.1,2.2,0.2,2.6c0.2,0.7,0.6,1.3,1.2,1.8s1.4,0.8,2.4,0.8c1.2,0,2.1-0.5,2.8-1.4c0.9-1.2,1.4-2.9,1.4-5
		c0-2.5-0.5-4.4-1.6-5.7c-0.8-0.9-1.6-1.4-2.7-1.4c-0.6,0-1.1,0.1-1.7,0.4C309.6,270.1,308.9,270.8,307.9,271.8z M324.1,273.5
		c0,2.4,0.6,4.3,1.7,5.6s2.5,2,4.1,2c1.1,0,2-0.3,2.8-0.9s1.4-1.6,2-3l0.5,0.4c-0.2,1.6-1,3.1-2.1,4.4s-2.7,2-4.4,2
		c-1.9,0-3.6-0.8-5-2.3s-2.1-3.5-2.1-6.1c0-2.8,0.7-4.9,2.1-6.4s3.2-2.3,5.3-2.3c1.8,0,3.3,0.6,4.4,1.8s1.7,2.8,1.7,4.8H324.1z
		 M324.1,272.5h7.5c-0.1-1-0.2-1.8-0.4-2.2c-0.3-0.7-0.7-1.2-1.3-1.5s-1.2-0.6-1.8-0.6c-1,0-1.8,0.4-2.6,1.1
		S324.3,271.1,324.1,272.5z"/>
	<path d="M218,299.7l0.5,8.1H218c-0.7-2.4-1.8-4.2-3.1-5.2s-3-1.6-4.9-1.6c-1.6,0-3,0.4-4.3,1.2s-2.3,2.1-3,3.8s-1.1,3.9-1.1,6.6
		c0,2.2,0.3,4,1,5.6s1.7,2.8,3.1,3.6s3,1.3,4.8,1.3c1.5,0,2.9-0.3,4.1-1s2.5-2,3.9-3.9l0.5,0.4c-1.2,2.1-2.6,3.7-4.2,4.7
		s-3.5,1.5-5.7,1.5c-3.9,0-7-1.5-9.2-4.4c-1.6-2.2-2.4-4.7-2.4-7.7c0-2.4,0.5-4.6,1.6-6.6s2.5-3.5,4.4-4.6s3.9-1.6,6.1-1.6
		c1.7,0,3.4,0.4,5.1,1.3c0.5,0.3,0.8,0.4,1.1,0.4c0.3,0,0.6-0.1,0.8-0.3c0.3-0.3,0.5-0.8,0.7-1.3H218z M229.3,307.5
		c2.4,0,4.4,0.9,5.9,2.8c1.3,1.6,1.9,3.4,1.9,5.4c0,1.4-0.3,2.9-1,4.4s-1.6,2.6-2.9,3.3s-2.6,1.1-4.1,1.1c-2.4,0-4.4-1-5.8-2.9
		c-1.2-1.6-1.8-3.5-1.8-5.5c0-1.5,0.4-2.9,1.1-4.4s1.7-2.5,2.9-3.2S228,307.5,229.3,307.5z M228.8,308.7c-0.6,0-1.2,0.2-1.9,0.6
		s-1.1,1-1.5,1.9s-0.6,2.1-0.6,3.6c0,2.3,0.5,4.4,1.4,6.1s2.2,2.5,3.7,2.5c1.1,0,2.1-0.5,2.8-1.4s1.1-2.5,1.1-4.8
		c0-2.9-0.6-5.1-1.8-6.8C231.1,309.2,230.1,308.7,228.8,308.7z M250.8,322.3c-0.8,0.8-1.6,1.4-2.3,1.8s-1.6,0.5-2.4,0.5
		c-1.8,0-3.3-0.7-4.6-2.2s-2-3.4-2-5.7s0.7-4.4,2.2-6.3s3.3-2.9,5.6-2.9c1.4,0,2.6,0.5,3.5,1.4v-3c0-1.8,0-3-0.1-3.4
		s-0.2-0.7-0.4-0.9s-0.4-0.2-0.7-0.2c-0.3,0-0.7,0.1-1.2,0.3l-0.2-0.6l4.8-2h0.8v18.6c0,1.9,0,3,0.1,3.5s0.2,0.7,0.4,0.9
		s0.4,0.2,0.7,0.2c0.3,0,0.7-0.1,1.3-0.3l0.2,0.6l-4.8,2h-0.8V322.3z M250.8,321v-8.3c-0.1-0.8-0.3-1.5-0.6-2.2s-0.8-1.2-1.4-1.5
		s-1.1-0.5-1.7-0.5c-1,0-2,0.5-2.8,1.4c-1.1,1.2-1.6,3-1.6,5.3c0,2.4,0.5,4.2,1.5,5.4s2.2,1.9,3.4,1.9
		C248.8,322.6,249.8,322.1,250.8,321z M263,307.5v12.9c0,1,0.1,1.7,0.2,2s0.4,0.6,0.7,0.7s0.8,0.2,1.6,0.2v0.6h-7.8v-0.6
		c0.8,0,1.3-0.1,1.6-0.2s0.5-0.4,0.6-0.8s0.2-1,0.2-2v-6.2c0-1.7-0.1-2.9-0.2-3.4c-0.1-0.4-0.2-0.6-0.4-0.8s-0.4-0.2-0.7-0.2
		c-0.3,0-0.7,0.1-1.2,0.3l-0.2-0.6l4.9-2H263z M261.5,299.1c0.5,0,0.9,0.2,1.3,0.5s0.5,0.8,0.5,1.3s-0.2,0.9-0.5,1.3
		s-0.8,0.5-1.3,0.5s-0.9-0.2-1.3-0.5s-0.5-0.8-0.5-1.3s0.2-0.9,0.5-1.3S261,299.1,261.5,299.1z M272.1,310.9
		c1.9-2.3,3.7-3.4,5.4-3.4c0.9,0,1.6,0.2,2.3,0.7s1.1,1.2,1.5,2.2c0.3,0.7,0.4,1.8,0.4,3.2v6.9c0,1,0.1,1.7,0.2,2.1
		c0.1,0.3,0.3,0.5,0.6,0.7s0.8,0.2,1.6,0.2v0.6h-8v-0.6h0.3c0.8,0,1.3-0.1,1.6-0.3s0.5-0.6,0.6-1c0-0.2,0.1-0.7,0.1-1.7v-6.6
		c0-1.5-0.2-2.5-0.6-3.2s-1-1-1.9-1c-1.4,0-2.8,0.8-4.2,2.3v8.5c0,1.1,0.1,1.8,0.2,2c0.2,0.3,0.4,0.6,0.7,0.7s0.9,0.2,1.7,0.2v0.6
		h-8v-0.6h0.4c0.8,0,1.4-0.2,1.7-0.6s0.4-1.2,0.4-2.4v-6c0-1.9,0-3.1-0.1-3.5s-0.2-0.7-0.4-0.9s-0.4-0.2-0.7-0.2
		c-0.3,0-0.7,0.1-1.2,0.3l-0.3-0.6l4.9-2h0.8V310.9z M289.7,318.2c-1-0.5-1.7-1.2-2.3-2s-0.8-1.8-0.8-2.9c0-1.6,0.6-3,1.8-4.1
		s2.7-1.7,4.6-1.7c1.5,0,2.9,0.4,4,1.1h3.4c0.5,0,0.8,0,0.9,0s0.1,0.1,0.2,0.1c0.1,0.1,0.1,0.3,0.1,0.6c0,0.3,0,0.5-0.1,0.6
		c0,0.1-0.1,0.1-0.2,0.1s-0.4,0.1-0.9,0.1h-2.1c0.7,0.8,1,1.9,1,3.2c0,1.5-0.6,2.8-1.7,3.8s-2.7,1.6-4.6,1.6c-0.8,0-1.6-0.1-2.4-0.4
		c-0.5,0.4-0.9,0.8-1,1.2s-0.3,0.6-0.3,0.9c0,0.2,0.1,0.4,0.3,0.6s0.6,0.3,1.1,0.4c0.3,0,1.1,0.1,2.5,0.1c2.4,0.1,4,0.1,4.7,0.2
		c1.1,0.2,2,0.6,2.6,1.2s1,1.5,1,2.4c0,1.3-0.6,2.6-1.9,3.7c-1.8,1.7-4.2,2.6-7.2,2.6c-2.3,0-4.2-0.5-5.7-1.5
		c-0.9-0.6-1.3-1.2-1.3-1.8c0-0.3,0.1-0.6,0.2-0.8c0.2-0.4,0.6-1,1.2-1.8c0.1-0.1,0.7-0.7,1.8-1.9c-0.6-0.4-1-0.7-1.3-1
		s-0.4-0.6-0.4-1c0-0.4,0.2-0.9,0.5-1.4S288.5,319.2,289.7,318.2z M289.6,324.1c-0.6,0.6-1,1.2-1.2,1.7s-0.4,1-0.4,1.4
		c0,0.6,0.3,1.1,1,1.5c1.2,0.7,2.9,1.1,5.1,1.1c2.1,0,3.7-0.4,4.7-1.1s1.5-1.5,1.5-2.4c0-0.6-0.3-1-0.9-1.3
		c-0.6-0.3-1.8-0.4-3.6-0.5C293,324.4,291,324.3,289.6,324.1z M292.8,308.4c-0.9,0-1.6,0.3-2.2,1s-0.9,1.8-0.9,3.2
		c0,1.9,0.4,3.3,1.2,4.3c0.6,0.8,1.4,1.2,2.3,1.2c0.9,0,1.6-0.3,2.2-1s0.9-1.7,0.9-3.1c0-1.9-0.4-3.3-1.2-4.4
		C294.5,308.7,293.7,308.4,292.8,308.4z"/>
	<path d="M217.1,340.8l0.3,5.6h-0.7c-0.1-1-0.3-1.7-0.5-2.1c-0.4-0.7-0.8-1.2-1.5-1.5s-1.4-0.5-2.4-0.5H209v18.2
		c0,1.5,0.2,2.4,0.5,2.7c0.4,0.5,1.1,0.7,2.1,0.7h0.8v0.7h-10.1V364h0.8c1,0,1.7-0.3,2.1-0.9c0.3-0.4,0.4-1.2,0.4-2.6v-18.2h-2.9
		c-1.1,0-1.9,0.1-2.4,0.2c-0.6,0.2-1.1,0.7-1.6,1.3s-0.7,1.5-0.8,2.6h-0.7l0.3-5.6H217.1z M219.6,354.6c0,2.4,0.6,4.3,1.7,5.6
		s2.5,2,4.1,2c1.1,0,2-0.3,2.8-0.9s1.4-1.6,2-3l0.5,0.4c-0.2,1.6-1,3.1-2.1,4.4s-2.7,2-4.4,2c-1.9,0-3.6-0.8-5-2.3s-2.1-3.5-2.1-6.1
		c0-2.8,0.7-4.9,2.1-6.4s3.2-2.3,5.3-2.3c1.8,0,3.3,0.6,4.4,1.8s1.7,2.8,1.7,4.8H219.6z M219.6,353.6h7.5c-0.1-1-0.2-1.8-0.4-2.2
		c-0.3-0.7-0.7-1.2-1.3-1.5s-1.2-0.6-1.8-0.6c-1,0-1.8,0.4-2.6,1.1S219.7,352.2,219.6,353.6z M243.3,348.1v5.5h-0.6
		c-0.4-1.7-1-2.9-1.7-3.5s-1.6-0.9-2.7-0.9c-0.8,0-1.5,0.2-2,0.7s-0.8,0.9-0.8,1.4c0,0.7,0.2,1.2,0.6,1.7c0.4,0.5,1.1,1,2.2,1.5
		l2.6,1.2c2.4,1.2,3.6,2.7,3.6,4.6c0,1.5-0.6,2.6-1.7,3.5s-2.3,1.3-3.7,1.3c-1,0-2.1-0.2-3.4-0.5c-0.4-0.1-0.7-0.2-0.9-0.2
		c-0.3,0-0.5,0.2-0.6,0.5h-0.6v-5.7h0.6c0.3,1.6,1,2.9,1.9,3.7s2,1.2,3.1,1.2c0.8,0,1.5-0.2,2-0.7s0.8-1,0.8-1.7
		c0-0.8-0.3-1.5-0.9-2s-1.7-1.2-3.4-2.1s-2.8-1.6-3.3-2.3c-0.5-0.7-0.8-1.5-0.8-2.5c0-1.3,0.5-2.4,1.4-3.3s2.1-1.3,3.5-1.3
		c0.6,0,1.4,0.1,2.3,0.4c0.6,0.2,1,0.3,1.2,0.3c0.2,0,0.3,0,0.4-0.1s0.2-0.3,0.4-0.5H243.3z M251.6,343.3v5.3h3.8v1.2h-3.8v10.4
		c0,1,0.1,1.7,0.4,2.1s0.7,0.5,1.2,0.5c0.4,0,0.8-0.1,1.1-0.4s0.6-0.6,0.8-1.1h0.7c-0.4,1.1-1,2-1.7,2.6s-1.5,0.9-2.3,0.9
		c-0.5,0-1.1-0.1-1.6-0.4s-0.9-0.7-1.1-1.3s-0.4-1.4-0.4-2.6v-10.8h-2.5v-0.6c0.6-0.3,1.3-0.7,2-1.3s1.3-1.3,1.8-2.2
		c0.3-0.4,0.6-1.3,1.1-2.4H251.6z M262.4,348.1V361c0,1,0.1,1.7,0.2,2s0.4,0.6,0.7,0.7s0.8,0.2,1.6,0.2v0.6h-7.8V364
		c0.8,0,1.3-0.1,1.6-0.2s0.5-0.4,0.6-0.8s0.2-1,0.2-2v-6.2c0-1.7-0.1-2.9-0.2-3.4c-0.1-0.4-0.2-0.6-0.4-0.8s-0.4-0.2-0.7-0.2
		c-0.3,0-0.7,0.1-1.2,0.3l-0.2-0.6l4.9-2H262.4z M261,339.7c0.5,0,0.9,0.2,1.3,0.5s0.5,0.8,0.5,1.3s-0.2,0.9-0.5,1.3
		s-0.8,0.5-1.3,0.5s-0.9-0.2-1.3-0.5s-0.5-0.8-0.5-1.3s0.2-0.9,0.5-1.3S260.5,339.7,261,339.7z M271.6,351.5
		c1.9-2.3,3.7-3.4,5.4-3.4c0.9,0,1.6,0.2,2.3,0.7s1.1,1.2,1.5,2.2c0.3,0.7,0.4,1.8,0.4,3.2v6.9c0,1,0.1,1.7,0.2,2.1
		c0.1,0.3,0.3,0.5,0.6,0.7s0.8,0.2,1.6,0.2v0.6h-8V364h0.3c0.8,0,1.3-0.1,1.6-0.3s0.5-0.6,0.6-1c0-0.2,0.1-0.7,0.1-1.7v-6.6
		c0-1.5-0.2-2.5-0.6-3.2s-1-1-1.9-1c-1.4,0-2.8,0.8-4.2,2.3v8.5c0,1.1,0.1,1.8,0.2,2c0.2,0.3,0.4,0.6,0.7,0.7s0.9,0.2,1.7,0.2v0.6
		h-8V364h0.4c0.8,0,1.4-0.2,1.7-0.6s0.4-1.2,0.4-2.4v-6c0-1.9,0-3.1-0.1-3.5s-0.2-0.7-0.4-0.9s-0.4-0.2-0.7-0.2
		c-0.3,0-0.7,0.1-1.2,0.3L266,350l4.9-2h0.8V351.5z M289.2,358.8c-1-0.5-1.7-1.2-2.3-2s-0.8-1.8-0.8-2.9c0-1.6,0.6-3,1.8-4.1
		s2.7-1.7,4.6-1.7c1.5,0,2.9,0.4,4,1.1h3.4c0.5,0,0.8,0,0.9,0s0.1,0.1,0.2,0.1c0.1,0.1,0.1,0.3,0.1,0.6c0,0.3,0,0.5-0.1,0.6
		c0,0.1-0.1,0.1-0.2,0.1s-0.4,0.1-0.9,0.1h-2.1c0.7,0.8,1,1.9,1,3.2c0,1.5-0.6,2.8-1.7,3.8s-2.7,1.6-4.6,1.6c-0.8,0-1.6-0.1-2.4-0.4
		c-0.5,0.4-0.9,0.8-1,1.2s-0.3,0.6-0.3,0.9c0,0.2,0.1,0.4,0.3,0.6s0.6,0.3,1.1,0.4c0.3,0,1.1,0.1,2.5,0.1c2.4,0.1,4,0.1,4.7,0.2
		c1.1,0.2,2,0.6,2.6,1.2s1,1.5,1,2.4c0,1.3-0.6,2.6-1.9,3.7c-1.8,1.7-4.2,2.6-7.2,2.6c-2.3,0-4.2-0.5-5.7-1.5
		c-0.9-0.6-1.3-1.2-1.3-1.8c0-0.3,0.1-0.6,0.2-0.8c0.2-0.4,0.6-1,1.2-1.8c0.1-0.1,0.7-0.7,1.8-1.9c-0.6-0.4-1-0.7-1.3-1
		s-0.4-0.6-0.4-1c0-0.4,0.2-0.9,0.5-1.4S288,359.8,289.2,358.8z M289,364.6c-0.6,0.6-1,1.2-1.2,1.7s-0.4,1-0.4,1.4
		c0,0.6,0.3,1.1,1,1.5c1.2,0.7,2.9,1.1,5.1,1.1c2.1,0,3.7-0.4,4.7-1.1s1.5-1.5,1.5-2.4c0-0.6-0.3-1-0.9-1.3
		c-0.6-0.3-1.8-0.4-3.6-0.5C292.5,365,290.4,364.8,289,364.6z M292.3,348.9c-0.9,0-1.6,0.3-2.2,1s-0.9,1.8-0.9,3.2
		c0,1.9,0.4,3.3,1.2,4.3c0.6,0.8,1.4,1.2,2.3,1.2c0.9,0,1.6-0.3,2.2-1s0.9-1.7,0.9-3.1c0-1.9-0.4-3.3-1.2-4.4
		C294,349.3,293.2,348.9,292.3,348.9z"/>
	<path d="M203.7,150.7v6.9c0,1.5,0.2,2.4,0.5,2.8c0.4,0.5,1.1,0.8,2,0.8h0.9v0.7h-10.2v-0.7h0.9c1,0,1.7-0.3,2.2-1
		c0.2-0.4,0.4-1.2,0.4-2.6v-15.4c0-1.5-0.2-2.4-0.5-2.8c-0.5-0.5-1.1-0.8-2-0.8h-0.9V138h8.7c2.1,0,3.8,0.2,5,0.7s2.3,1.2,3.1,2.2
		s1.3,2.3,1.3,3.7c0,1.9-0.6,3.5-1.9,4.7s-3.1,1.8-5.4,1.8c-0.6,0-1.2,0-1.9-0.1S204.4,150.9,203.7,150.7z M203.7,149.7
		c0.6,0.1,1.2,0.2,1.7,0.3s0.9,0.1,1.2,0.1c1.2,0,2.3-0.5,3.2-1.4s1.3-2.2,1.3-3.7c0-1-0.2-2-0.6-2.9s-1-1.5-1.8-2s-1.7-0.7-2.6-0.7
		c-0.6,0-1.4,0.1-2.3,0.3V149.7z M223,136.9v21.4c0,1,0.1,1.7,0.2,2s0.4,0.6,0.7,0.7s0.9,0.3,1.7,0.3v0.6h-7.9v-0.6
		c0.7,0,1.2-0.1,1.5-0.2s0.5-0.4,0.6-0.8s0.2-1,0.2-2v-14.6c0-1.8,0-2.9-0.1-3.3s-0.2-0.7-0.4-0.9s-0.4-0.2-0.7-0.2
		c-0.3,0-0.7,0.1-1.2,0.3l-0.3-0.6l4.8-2H223z M236.6,159.5c-1.7,1.3-2.7,2-3.1,2.2c-0.6,0.3-1.3,0.4-2,0.4c-1.1,0-2-0.4-2.8-1.1
		s-1.1-1.8-1.1-3c0-0.8,0.2-1.5,0.5-2c0.5-0.8,1.3-1.5,2.5-2.2s3.2-1.6,5.9-2.6v-0.6c0-1.6-0.3-2.7-0.8-3.3s-1.3-0.9-2.2-0.9
		c-0.7,0-1.3,0.2-1.8,0.6c-0.4,0.4-0.7,0.9-0.7,1.4l0,1c0,0.5-0.1,1-0.4,1.2s-0.6,0.4-1.1,0.4c-0.4,0-0.8-0.2-1.1-0.5
		s-0.4-0.7-0.4-1.2c0-1,0.5-1.9,1.5-2.8s2.5-1.3,4.3-1.3c1.4,0,2.6,0.2,3.5,0.7c0.7,0.4,1.2,0.9,1.5,1.7c0.2,0.5,0.3,1.5,0.3,3.1
		v5.5c0,1.5,0,2.5,0.1,2.8s0.2,0.6,0.3,0.7s0.3,0.2,0.5,0.2c0.2,0,0.4,0,0.5-0.1c0.2-0.2,0.7-0.6,1.4-1.3v1
		c-1.3,1.8-2.6,2.6-3.8,2.6c-0.6,0-1-0.2-1.4-0.6S236.6,160.5,236.6,159.5z M236.6,158.4v-6.1c-1.8,0.7-2.9,1.2-3.4,1.5
		c-0.9,0.5-1.6,1.1-2,1.6s-0.6,1.2-0.6,1.8c0,0.8,0.3,1.5,0.8,2.1s1.1,0.8,1.7,0.8C233.9,160.2,235.1,159.6,236.6,158.4z
		 M248.1,148.7c1.9-2.3,3.7-3.4,5.4-3.4c0.9,0,1.6,0.2,2.3,0.7s1.1,1.2,1.5,2.2c0.3,0.7,0.4,1.8,0.4,3.2v6.9c0,1,0.1,1.7,0.2,2.1
		c0.1,0.3,0.3,0.5,0.6,0.7s0.8,0.2,1.6,0.2v0.6h-8v-0.6h0.3c0.8,0,1.3-0.1,1.6-0.3s0.5-0.6,0.6-1c0-0.2,0.1-0.7,0.1-1.7v-6.6
		c0-1.5-0.2-2.5-0.6-3.2s-1-1-1.9-1c-1.4,0-2.8,0.8-4.2,2.3v8.5c0,1.1,0.1,1.8,0.2,2c0.2,0.3,0.4,0.6,0.7,0.7s0.9,0.2,1.7,0.2v0.6
		h-8v-0.6h0.4c0.8,0,1.4-0.2,1.7-0.6s0.4-1.2,0.4-2.4v-6c0-1.9,0-3.1-0.1-3.5s-0.2-0.7-0.4-0.9s-0.4-0.2-0.7-0.2
		c-0.3,0-0.7,0.1-1.2,0.3l-0.3-0.6l4.9-2h0.8V148.7z M267,145.3v12.9c0,1,0.1,1.7,0.2,2s0.4,0.6,0.7,0.7s0.8,0.2,1.6,0.2v0.6h-7.8
		v-0.6c0.8,0,1.3-0.1,1.6-0.2s0.5-0.4,0.6-0.8s0.2-1,0.2-2V152c0-1.7-0.1-2.9-0.2-3.4c-0.1-0.4-0.2-0.6-0.4-0.8s-0.4-0.2-0.7-0.2
		c-0.3,0-0.7,0.1-1.2,0.3l-0.2-0.6l4.9-2H267z M265.5,136.9c0.5,0,0.9,0.2,1.3,0.5s0.5,0.8,0.5,1.3s-0.2,0.9-0.5,1.3
		s-0.8,0.5-1.3,0.5s-0.9-0.2-1.3-0.5s-0.5-0.8-0.5-1.3s0.2-0.9,0.5-1.3S265,136.9,265.5,136.9z M276.1,148.7
		c1.9-2.3,3.7-3.4,5.4-3.4c0.9,0,1.6,0.2,2.3,0.7s1.1,1.2,1.5,2.2c0.3,0.7,0.4,1.8,0.4,3.2v6.9c0,1,0.1,1.7,0.2,2.1
		c0.1,0.3,0.3,0.5,0.6,0.7s0.8,0.2,1.6,0.2v0.6h-8v-0.6h0.3c0.8,0,1.3-0.1,1.6-0.3s0.5-0.6,0.6-1c0-0.2,0.1-0.7,0.1-1.7v-6.6
		c0-1.5-0.2-2.5-0.6-3.2s-1-1-1.9-1c-1.4,0-2.8,0.8-4.2,2.3v8.5c0,1.1,0.1,1.8,0.2,2c0.2,0.3,0.4,0.6,0.7,0.7
		c0.3,0.2,0.9,0.2,1.7,0.2v0.6h-8v-0.6h0.4c0.8,0,1.4-0.2,1.7-0.6s0.4-1.2,0.4-2.4v-6c0-1.9,0-3.1-0.1-3.5s-0.2-0.7-0.4-0.9
		s-0.4-0.2-0.7-0.2c-0.3,0-0.7,0.1-1.2,0.3l-0.3-0.6l4.9-2h0.8V148.7z M293.7,156c-1-0.5-1.7-1.2-2.3-2s-0.8-1.8-0.8-2.9
		c0-1.6,0.6-3,1.8-4.1s2.7-1.7,4.6-1.7c1.5,0,2.9,0.4,4,1.1h3.4c0.5,0,0.8,0,0.9,0s0.1,0.1,0.2,0.1c0.1,0.1,0.1,0.3,0.1,0.6
		c0,0.3,0,0.5-0.1,0.6c0,0.1-0.1,0.1-0.2,0.1s-0.4,0.1-0.9,0.1h-2.1c0.7,0.8,1,1.9,1,3.2c0,1.5-0.6,2.8-1.7,3.8s-2.7,1.6-4.6,1.6
		c-0.8,0-1.6-0.1-2.4-0.4c-0.5,0.4-0.9,0.8-1,1.2s-0.3,0.6-0.3,0.9c0,0.2,0.1,0.4,0.3,0.6s0.6,0.3,1.1,0.4c0.3,0,1.1,0.1,2.5,0.1
		c2.4,0.1,4,0.1,4.7,0.2c1.1,0.2,2,0.6,2.6,1.2s1,1.5,1,2.4c0,1.3-0.6,2.6-1.9,3.7c-1.8,1.7-4.2,2.6-7.2,2.6c-2.3,0-4.2-0.5-5.7-1.5
		c-0.9-0.6-1.3-1.2-1.3-1.8c0-0.3,0.1-0.6,0.2-0.8c0.2-0.4,0.6-1,1.2-1.8c0.1-0.1,0.7-0.7,1.8-1.9c-0.6-0.4-1-0.7-1.3-1
		s-0.4-0.6-0.4-1c0-0.4,0.2-0.9,0.5-1.4S292.5,157,293.7,156z M293.6,161.9c-0.6,0.6-1,1.2-1.2,1.7s-0.4,1-0.4,1.4
		c0,0.6,0.3,1.1,1,1.5c1.2,0.7,2.9,1.1,5.1,1.1c2.1,0,3.7-0.4,4.7-1.1s1.5-1.5,1.5-2.4c0-0.6-0.3-1-0.9-1.3
		c-0.6-0.3-1.8-0.4-3.6-0.5C297,162.2,295,162.1,293.6,161.9z M296.8,146.1c-0.9,0-1.6,0.3-2.2,1s-0.9,1.8-0.9,3.2
		c0,1.9,0.4,3.3,1.2,4.3c0.6,0.8,1.4,1.2,2.3,1.2c0.9,0,1.6-0.3,2.2-1s0.9-1.7,0.9-3.1c0-1.9-0.4-3.3-1.2-4.4
		C298.5,146.5,297.7,146.1,296.8,146.1z"/>
</g>
<path id="check_x5F_box" class="st0" d="M173.9,163.2h-26.4v-26.4h26.4V163.2z M173.9,177.4h-26.4v26.4h26.4V177.4z M173.9,218
	h-26.4v26.4h26.4V218z M173.9,258.5h-26.4v26.4h26.4V258.5z M173.9,299.1h-26.4v26.4h26.4V299.1z M173.9,339.6h-26.4V366h26.4V339.6
	z"/>
<path id="check_x5F_1" class="st1" d="M187.1,124.7l-26.6,33.6l-7.8-13.2"/>
<path id="check_x5F_2" class="st1" d="M187.1,164.7l-26.6,33.6l-7.8-13.2"/>
<path id="check_x5F_3" class="st1" d="M187.1,204.7l-26.6,33.6l-7.8-13.2"/>
<path id="check_x5F_4" class="st1" d="M187.1,246.8l-26.6,33.6l-7.8-13.2"/>
<path id="check_x5F_5" class="st1" d="M187.1,286.7l-26.6,33.6l-7.8-13.2"/>
<path id="check_x5F_6" class="st1" d="M188.5,326.6l-26.6,33.6l-7.8-13.2"/>
</svg>
