<?xml version="1.0" encoding="utf-8"?>
<!-- Generator: Adobe Illustrator 27.0.0, SVG Export Plug-In . SVG Version: 6.00 Build 0)  -->
<svg version="1.1" id="video_graphy" xmlns="http://www.w3.org/2000/svg" xmlns:xlink="http://www.w3.org/1999/xlink" x="0px"
	 y="0px" viewBox="0 0 200 200" style="enable-background:new 0 0 200 200;" xml:space="preserve">
<style type="text/css">
	@import url(../css/cardicon.css);
</style>
<path id="adobe_pre" d="M89.9,90.3c0,33.3,0,66.7,0,100c33.4,0,66.9,0,100.3,0c0-33.3,0-66.7,0-100
	C156.7,90.3,123.3,90.3,89.9,90.3z M144.7,136c-1.1,4-3.6,6.8-7.2,8.7c-1.8,1-3.8,1.4-5.9,1.8c-2.5,0.4-5.1,0.4-7.7,0.3
	c-0.3,0-0.6,0-1,0c-0.1,0-0.1,0-0.2,0.1c0,0.2,0,0.4,0,0.6c0,4.2,0,8.4,0,12.6c0,0.1,0,0.3,0,0.4c0,0.4-0.2,0.5-0.6,0.6
	c-0.1,0-0.2,0-0.2,0c-2.5,0-5,0-7.4,0c-0.1,0-0.2,0-0.2,0c-0.4,0-0.5-0.1-0.5-0.5c0-0.1,0-0.3,0-0.4c0-14.4,0-28.8,0-43.2
	c0-0.8,0-0.9,0.9-0.9c3.5-0.1,6.9-0.2,10.4-0.2c1.7,0,3.3,0,5,0.1c2.8,0.2,5.5,0.9,8,2.2c3.8,2.1,6.1,5.4,6.9,9.7
	C145.5,130.5,145.4,133.3,144.7,136z M170.8,135.5c-1,0.1-2.1,0.1-3.1,0.2c-1.7,0.2-3.4,0.7-4.9,1.4c-0.7,0.3-1.3,0.7-1.9,1.3
	c-0.2,0.2-0.3,0.4-0.3,0.7c0,1.3,0,2.6,0,4c0,5.7,0,11.4,0,17.1c0,0.9-0.1,1-0.9,1c-2.5,0-5,0-7.5,0c-0.1,0-0.3,0-0.4,0
	c-0.3,0-0.5-0.2-0.5-0.5c0-0.2,0-0.4,0-0.5c0-8.1,0-16.2,0-24.3c0-2.4-0.1-4.8-0.2-7.2c0-0.4-0.1-0.8-0.1-1.2c0-0.4,0.1-0.5,0.5-0.5
	c2.4,0,4.7,0,7.1,0c0.6,0,0.9,0.2,1,0.8c0.2,0.9,0.3,1.8,0.5,2.6c0.1,0.3,0,0.7,0.1,1.1c0,0,0.1,0,0.1,0.1c0.1-0.1,0.2-0.3,0.3-0.4
	c2-2.2,4.4-3.7,7.3-4.5c1-0.2,2-0.4,3-0.4c0.5,0,0.7,0.1,0.7,0.7c0,2.7,0,5.4,0,8.1C171.4,135.3,171.3,135.4,170.8,135.5z
	 M136.1,129.9c0.2,1.1,0.1,2.2-0.1,3.3c-0.4,1.9-1.5,3.1-3.1,4c-1,0.6-2,0.8-3.1,1c-1,0.2-2,0.3-3,0.3c-1.1,0-2.2,0-3.3,0
	c-0.2,0-0.4,0-0.6-0.1c0-4.8,0-9.6,0-14.4c0.3,0,0.4,0,0.6,0c1.5,0,3-0.1,4.4,0c1.5,0,3,0.3,4.5,0.9
	C134.5,125.9,135.7,127.6,136.1,129.9z"/>
<path id="video_camera" d="M14.1,26.6c0-9.2,7.1-16.7,15.8-16.7h63c8.7,0,15.8,7.5,15.8,16.7v66.7c0,9.2-7.1,16.7-15.8,16.7h-63
	c-8.7,0-15.8-7.5-15.8-16.7V26.6z M151.7,19.3c2.6,1.5,4.2,4.3,4.2,7.3v66.7c0,3.1-1.6,5.9-4.2,7.3s-5.7,1.3-8.1-0.4L120,83.6
	l-3.5-2.5v-4.5V43.3v-4.5l3.5-2.5l23.6-16.7C146.1,18,149.2,17.8,151.7,19.3L151.7,19.3z"/>
</svg>
